<svg width="89" height="87" viewBox="0 0 89 87" fill="none" xmlns="http://www.w3.org/2000/svg">
<path d="M9.5 0L77.4853 2.175L84.5221 15V51.475L89 59.45L84.5 77.5L76 87L69.1691 85.55L14 87L5.5 78L1.5 35.5L0 21L4 7L9.5 0Z" fill="url(#paint0_linear_1371_5078)"/>
<path d="M7 21L14 7L30.5 9.5L74.5 7L77.5 13.5L79.5 68L74.5 76.5H18L9 68L7 21Z" fill="#9D61E8"/>
<path d="M7 21H0L5.5 78L9 68L7 21Z" fill="#341F73"/>
<path d="M14 7L9.5 0L4 7L0 21H7L14 7Z" fill="#7545C6"/>
<path d="M77.5 2L74.5 7L77.5 13.5L84.5 15L77.5 2Z" fill="url(#paint1_linear_1371_5078)"/>
<path d="M14 87L18 76.5L9 68L5.5 78L14 87Z" fill="url(#paint2_linear_1371_5078)"/>
<path d="M76 87L74.5 76.5L79.5 68L84.5 77.5L76 87Z" fill="url(#paint3_linear_1371_5078)"/>
<path d="M84.5 15L77.5 13.5L79.5 68L84.5 77.5L89 59.5L84.5 51.5V15Z" fill="url(#paint4_linear_1371_5078)"/>
<path d="M76.5 13.5L74.5 7L77.5 13.5L79.5 68L76.5 13.5Z" fill="white"/>
<path d="M74.5 76.5H18L74 75.5L79.5 68L74.5 76.5Z" fill="white"/>
<defs>
<linearGradient id="paint0_linear_1371_5078" x1="3.5" y1="44" x2="83.5" y2="44" gradientUnits="userSpaceOnUse">
<stop stop-color="#BA84FF"/>
<stop offset="0.321" stop-color="#9D62E8"/>
<stop offset="0.801" stop-color="#5626A5"/>
</linearGradient>
<linearGradient id="paint1_linear_1371_5078" x1="73.5" y1="3.5" x2="80" y2="12.5" gradientUnits="userSpaceOnUse">
<stop stop-color="#BA83FF"/>
<stop offset="1" stop-color="#7545C6"/>
</linearGradient>
<linearGradient id="paint2_linear_1371_5078" x1="9" y1="80" x2="18" y2="76.5" gradientUnits="userSpaceOnUse">
<stop stop-color="#9D62E8"/>
<stop offset="1" stop-color="#7545C6"/>
</linearGradient>
<linearGradient id="paint3_linear_1371_5078" x1="80" y1="89.5" x2="80" y2="68" gradientUnits="userSpaceOnUse">
<stop stop-color="#9D62E8"/>
<stop offset="1" stop-color="#7545C6"/>
</linearGradient>
<linearGradient id="paint4_linear_1371_5078" x1="78" y1="46" x2="87.5" y2="46" gradientUnits="userSpaceOnUse">
<stop stop-color="#9D62E8"/>
<stop offset="1" stop-color="#583782"/>
</linearGradient>
</defs>
</svg>
