<svg width="430" height="1493" viewBox="0 0 430 1493" fill="none" xmlns="http://www.w3.org/2000/svg">
<g clip-path="url(#clip0_1563_8458)">
<mask id="mask0_1563_8458" style="mask-type:alpha" maskUnits="userSpaceOnUse" x="-515" y="0" width="1460" height="1526">
<path fill-rule="evenodd" clip-rule="evenodd" d="M-300.333 0H648.591V17H683.588V966.029V1372.07L737.388 1381.74H859.719L944.668 1303.62V1516.35H683.588V1526H335.18L337.643 1516.35H134.448V1519H-41.1371H-268.392V1516.35H-514.579V1282H-268.392V340.335V179.427L-300.333 191.169V0ZM353.391 1454.61L356.639 1441.87L328.137 1413.01L331.893 1392.34L317.337 1361.33L335.18 1282.64L317.337 1248.58L322.268 1216.64L298.32 1193.38L316.633 1113.05L413.829 1025.22L422.135 966.029L465.95 911.266L435.899 827.171L380.962 789.822L359.062 698.053L392.466 627.741L346.684 532.841L377.675 494.318L352.669 439.938L317.103 426.666L307.007 411.868L303.486 389.082L347.213 367.341L359.245 341.842L342.082 263.714L308.885 224.652L303.486 285.726L294.564 299.82L283.999 211.263L264.513 158.645L283.999 123.88L273.471 100.463L259.968 73.9279L257.088 78.0477L238.225 83.2509L229.178 116.204L213.78 96.4061L205.118 66.2924L182.791 43.5525L124.277 50.8755L102.719 79.0112L79.2367 88.8395L70.3827 191.169L53.0595 220.268L37.9079 114.252L29.4708 133.967L-15.1851 154.247L-34.8244 220.182L-60.5425 246.135L-51.6581 298.04L-23.1344 323.058L-9.10629 360.468L-71.2974 489.064L-60.5425 530.448L-41.1371 551.257L-84.8578 624.908L17.704 672.3H58.0712L110.867 689.245L165.224 678.273H208.713L355.389 684.997L336.218 697.155L283.379 703.702L329.204 710.483L310.733 742.748L260.466 767.299L240.126 788.575L234.281 843.521L223.526 857.316L214.128 803.325L197.808 807.514L185.65 823.413L164.608 818.503L144.735 800.032L123.275 832.802L118.081 895.894L98.2084 1019.22L73.4255 1006.49L64.541 919.509L16.6118 966.271L0.0119019 1014.44L40.4595 1056.99L20.7655 1146.82L-42.3061 1253.62L-46.9821 1333.59L41.1609 1353.46L108.496 1388.07L134.448 1450.49V1451.1L141.499 1454H169.999L193.141 1450.45L241.499 1462.5L287.999 1458L319.499 1460L353.391 1454.61Z" fill="#0B004B"/>
</mask>
<g mask="url(#mask0_1563_8458)">
<path d="M-469.864 1646.74V-21.5244H780.082V1646.74H-469.864Z" fill="#0B004B" stroke="black"/>
<path d="M303.483 389.083L347.152 367.237L317.1 393.781V431.835L306.301 420.09L303.483 389.083Z" fill="#351F74"/>
<path d="M356.547 338.812L301.14 387.437L317.104 398.477L336.826 396.598L366.642 375.222V353.376L356.547 338.812Z" fill="url(#paint0_radial_1563_8458)"/>
<path d="M386.359 515.225L335.413 531.198L386.359 627.742L407.254 644.655L386.359 568.782V515.225Z" fill="#351F74"/>
<path d="M376.969 494.553L341.987 532.137L386.125 538.949L410.777 516.868L458.671 494.553L395.751 501.13L376.969 494.553Z" fill="#5626A5"/>
<path d="M461.496 668.146L466.185 641.367L442.473 648.884H421.343L384.483 622.105L345.745 673.549L350.91 697.508L378.614 796.636L403.265 766.099L411.717 709.254L422.289 680.126L461.496 668.146Z" fill="#351F74"/>
<path d="M392.233 627.508L353.729 692.575L373.92 713.951L411.719 709.253L437.31 684.589L474.874 664.857L483.326 631.971L453.744 646.065L421.345 648.884L392.233 627.508Z" fill="#5626A5"/>
<path d="M352.317 1059.25L322.735 1082.04L289.632 1193.85L349.265 1195.03L383.542 1171.54L401.385 1059.25L460.079 1024.25L442.471 902.811L391.055 1007.81L352.317 1059.25Z" fill="#351F74"/>
<path d="M450.219 1030.6L410.542 1025.19L296.206 1110.46L359.361 1119.39L395.047 1097.54L450.219 1030.6Z" fill="url(#paint1_radial_1563_8458)"/>
<path d="M384.483 1301.44L324.145 1292.98L304.894 1359.46L348.562 1363.68L383.074 1338.55L384.483 1301.44Z" fill="#351F74"/>
<path d="M329.075 1218.99L318.745 1215.46L314.519 1246.7L322.736 1252.11L329.075 1249.05L333.77 1232.61L354.9 1228.85L373.447 1213.11L349.5 1217.58L329.075 1218.99Z" fill="#351F74"/>
<path d="M315.458 1425.93L321.797 1422.88L323.676 1412.78L359.831 1420.53L401.856 1401.03L416.177 1379.65L374.857 1394.69L345.744 1397.51L317.806 1387.17L307.241 1420.53L315.458 1425.93Z" fill="#351F74"/>
<path d="M402.328 1264.79L332.365 1282.64L317.339 1300.73L383.78 1313.65L454.448 1287.34L402.328 1264.79Z" fill="#5626A5"/>
<path d="M345.275 1397.04L359.831 1421L325.554 1412.78L327.432 1390.46L345.275 1397.04Z" fill="#5626A5"/>
<path d="M289.399 166.631L263.104 158.409L280.713 208.913L289.869 301.464L296.443 302.168L298.086 255.658L293.391 203.745L295.738 180.725L304.19 162.168L289.399 166.631Z" fill="#351F74"/>
<path d="M301.606 131.161L279.772 122.939L257.233 156.53L288.928 168.04L316.866 158.644L313.11 132.335L301.606 131.161Z" fill="#5626A5"/>
<path d="M437.544 970.695L418.058 964.353L433.553 911.03H453.274L462.195 956.366L437.544 970.695Z" fill="#5626A5"/>
<path d="M74.5938 1348.79L-37.3969 1325.17L-41.1377 1369.36L-35.0589 1393.91L-5.13235 1404.67L19.8844 1401.39L69.684 1407.94L96.3373 1441.61L119.717 1452.83L134.681 1450.49L113.405 1388.3L74.5938 1348.79Z" fill="#351F74"/>
<path d="M134.916 1444.88L146.372 1435.53L415.243 1447.69L550.38 1432.96L564.175 1437.17H584.749L595.972 1432.96L586.853 1442.54L559.499 1447.69L533.079 1464.99L519.285 1482.06L463.499 1447.69L419.999 1470L396.499 1476.5L378.999 1493.13L337.621 1484.86L298.811 1493.13H252.986L190.327 1476.68L157.361 1475.51L124.395 1481.82L96.3389 1478.32L118.316 1474.34L134.916 1463.12V1444.88Z" fill="#351F74"/>
<path d="M6.55762 1064L45.3686 1055.35L21.5209 1151.92L13.104 1126.2V1092.3L6.55762 1064Z" fill="#351F74"/>
<path d="M-9.80595 1022.15L1.18269 1014.44L42.5655 1056.52L23.3938 1064.71H6.56012L-12.6116 1056.52L-38.5635 1022.15H-9.80595Z" fill="#5626A5"/>
<path d="M17.3153 966.272L64.0755 920.679L38.3573 933.538L8.89842 958.088L1.65059 978.664L-9.80566 1022.15L0.949183 1014.44L17.3153 966.272Z" fill="#351F74"/>
<path d="M101.481 862.458L124.16 831.829L134.447 845.624L97.5068 1026.36L103.586 914.13L101.481 862.458Z" fill="#351F74"/>
<path d="M186.821 814.527L185.886 823.879L198.043 807.513L191.731 807.98L186.821 814.527Z" fill="#351F74"/>
<path d="M228.904 796.525L240.126 788.81L238.022 839.079L221.89 860.356L229.371 838.377L228.202 830.428L230.54 809.619L228.904 796.525Z" fill="#351F74"/>
<path d="M293.901 741.113L260.468 767.3L316.112 752.803L334.583 710.717L321.49 703.703H284.082L301.383 712.12L302.318 724.278L293.901 741.113Z" fill="#351F74"/>
<path d="M-4.89883 1405.14L-41.138 1391.34L-77.8447 1356.5L-46.2816 1332.42L45.3684 1350.66L117.145 1383.62L69.9175 1408.41L21.0531 1401.63L-4.89883 1405.14Z" fill="#5626A5"/>
<path d="M-4.89883 1405.14L-41.138 1391.34L-77.8447 1356.5L-46.2816 1332.42L45.3684 1350.66L117.145 1383.62L69.9175 1408.41L21.0531 1401.63L-4.89883 1405.14Z" fill="url(#paint2_radial_1563_8458)"/>
<path d="M61.971 688.504L32.5121 682.892H-4.89607L-35.0564 662.083L-82.7518 650.626L-115.25 636.364L-135.591 610.645L-110.574 622.101L-94.9095 620.698L-31.0818 650.626L164.376 667.461L327.335 675.878L357.495 684.996L335.284 700.662L338.09 690.842L310.501 688.504H247.375L221.657 694.583L186.119 692.244L128.604 705.572L86.7539 700.662L61.971 688.504Z" fill="#5626A5"/>
<path d="M87.6877 138.814L80.2061 146.062L104.288 155.882L118.549 127.123H114.341L100.547 138.814H87.6877Z" fill="#351F74"/>
<path d="M-28.9775 121.046V134.373L-14.9495 154.481L29.4727 138.348L54.957 108.187L33.2135 124.086L21.5235 130.632L2.58559 133.672L-28.9775 121.046Z" fill="#351F74"/>
<path d="M63.8397 730.59L38.823 722.874H24.5611L8.89647 745.086L-10.0414 751.165L-13.7822 788.341L8.89647 799.33L32.7442 817.801L51.6821 811.021L77.1664 817.801L88.3888 799.33L113.873 777.118L125.096 751.165L101.014 730.59H63.8397Z" fill="url(#paint3_radial_1563_8458)"/>
<path d="M63.8415 730.59L38.8248 722.874H24.563L7.49549 743.449L-10.2734 751.165L-11.4424 761.453L-4.89596 755.841L5.62509 753.036L14.9771 745.086L18.9517 742.514L21.7574 735.032H26.6672L33.2136 757.712L38.8248 751.165L41.3966 739.475L48.4107 735.032H65.0105L76.233 736.903L80.2076 735.032L94.9371 736.903L97.7427 747.892L105.224 752.802L114.81 751.165L120.188 752.802L115.278 774.079L125.097 751.165L101.016 730.59H63.8415Z" fill="#0B004B"/>
<path d="M33.7398 754.496L35.6103 744.676L40.9877 741.403L44.9623 740L38.1821 744.676L35.6103 756.133L29.999 762.913L31.168 758.939L33.7398 754.496Z" fill="#854C8D"/>
<path d="M37.8884 814.528L27.835 817.568L44.9024 826.219L73.4262 818.269L63.6065 812.657L58.4629 811.956L51.2151 814.528H37.8884Z" fill="#0B004B"/>
<path d="M56.3569 733.396L50.9795 735.033H65.0076L72.0216 736.436L76.4638 736.903L80.2046 735.033L94.9341 736.903L88.1539 734.331L80.4384 733.162L74.1258 734.331L67.3456 732.461L56.3569 733.396Z" fill="#854C8D"/>
<path d="M99.3793 740.879L95.1709 737.605L97.0413 746.023L98.2103 748.595L105.458 752.803L115.044 751.166L111.303 749.997H105.458L101.951 747.426L99.3793 740.879Z" fill="#854C8D"/>
<path d="M4.45595 751.167L13.1066 743.685L17.5488 742.282L21.5234 735.735L18.7178 742.516L13.5742 746.257L5.62496 753.271L-5.12988 756.077L-2.09047 753.739L4.45595 751.167Z" fill="#854C8D"/>
<path d="M-7.18636 100.401L-13.3457 106.375L6.47969 114.469L18.2209 90.7651H14.7563L3.40002 100.401H-7.18636Z" fill="#351F74"/>
<path d="M71.9218 79.9761L79.8135 89.0335L74.2316 188.472L61.3354 211.79L63.6452 132.393L69.8045 106.377L71.9218 79.9761Z" fill="#351F74"/>
<path d="M216.86 70.147L203.386 66.1001L200.499 94.2358L230.141 120.252L223.019 101.173L222.249 91.5379L216.86 70.147Z" fill="#351F74"/>
</g>
</g>
<defs>
<radialGradient id="paint0_radial_1563_8458" cx="0" cy="0" r="1" gradientUnits="userSpaceOnUse" gradientTransform="translate(333.891 368.645) rotate(-179.92) scale(35.5809 39.1037)">
<stop offset="0.5" stop-color="#85E4D7"/>
<stop offset="1" stop-color="#5626A5"/>
</radialGradient>
<radialGradient id="paint1_radial_1563_8458" cx="0" cy="0" r="1" gradientUnits="userSpaceOnUse" gradientTransform="translate(373.447 1072.17) rotate(47.5885) scale(29.5884 82.5147)">
<stop stop-color="#FDC96D"/>
<stop offset="1" stop-color="#5626A5"/>
</radialGradient>
<radialGradient id="paint2_radial_1563_8458" cx="0" cy="0" r="1" gradientUnits="userSpaceOnUse" gradientTransform="translate(9.30307 1370.43) rotate(106.649) scale(32.4086 83.1624)">
<stop offset="0.271667" stop-color="#95EDD8"/>
<stop offset="1" stop-color="#5626A5"/>
</radialGradient>
<radialGradient id="paint3_radial_1563_8458" cx="0" cy="0" r="1" gradientUnits="userSpaceOnUse" gradientTransform="translate(52.1497 805.643) rotate(-84.9814) scale(82.8528 121.213)">
<stop stop-color="#FDAD51"/>
<stop offset="0.678308" stop-color="#5626A5"/>
</radialGradient>
<clipPath id="clip0_1563_8458">
<rect width="430" height="1493" fill="white"/>
</clipPath>
</defs>
</svg>
