<svg width="1728" height="2549" viewBox="0 0 1728 2549" fill="none" xmlns="http://www.w3.org/2000/svg">
<g clip-path="url(#clip0_1559_7268)">
<mask id="mask0_1559_7268" style="mask-type:alpha" maskUnits="userSpaceOnUse" x="-271" y="0" width="2271" height="2590">
<path fill-rule="evenodd" clip-rule="evenodd" d="M-271 557.118V0H-270.961H328.5H1221H1997.62H1998.61V399.641L1997.62 399.389V1627.63V2586.32L1999.89 2589.47L-271 2589.47V2588V2302.77V2270V557.118ZM423.135 2471.43L655.849 2487.14L768.248 2499.63L880.541 2491.93L996.672 2503.66L1314 2496.72L1435.91 2446.4L1436.59 2443.71L1387.68 2394.22L1394.13 2358.77L1369.15 2305.59L1399.77 2170.63L1369.15 2112.22L1377.61 2057.43L1336.52 2017.54L1367.94 1879.76L1534.73 1729.15L1548.98 1627.63L1624.17 1533.7L1572.6 1389.48L1478.33 1325.42L1440.75 1168.04L1498.07 1047.45L1419.51 884.69L1472.69 818.62L1429.78 725.357L1368.75 702.595L1351.43 677.215L1345.38 638.137L1420.42 600.851L1441.06 557.118L1411.61 423.126L1355.55 357.189L1346.38 460.877L1331.07 485.048L1330.91 483.731L1330.07 485.049L1311.95 333.169L1278.78 243.654L1278.5 242.927L1311.94 183.303L1293.87 143.142L1077 102.73L1034.7 163.16L995.216 174.037L976.281 242.927L944.052 201.539L925.923 138.585L879.191 91.0473L756.72 106.356L711.599 165.174L662.45 185.72L643.918 399.641L607.66 460.474L572.208 212.712L534.339 191.361L504.527 230.035L472.298 221.173L452.96 161.146L289.423 152.686L242.288 201.539L165.341 236.481L131.5 350.089L131.461 350.09L87.1463 394.807L102.455 484.243L151.605 527.349L175.776 591.808L68.6146 813.383L87.1463 884.69L120.584 920.545L45.2484 1047.45L221.974 1129.1H291.53L382.503 1158.3L476.166 1139.4H551.103L803.842 1150.98L770.807 1171.93L679.76 1183.21L758.721 1194.9L726.895 1250.49L640.279 1292.79L605.23 1329.45L595.158 1424.13L576.626 1447.89L560.434 1354.87L532.311 1362.08L511.362 1389.48L475.105 1381.02L440.861 1349.19L403.884 1405.66L394.935 1514.37L360.691 1726.86L317.988 1704.92L302.679 1555.06L220.092 1635.63L191.488 1718.62L261.184 1791.94L227.249 1946.72L118.57 2130.75L110.512 2268.53L262.392 2302.77L378.417 2362.4L423.135 2469.96V2471.43Z" fill="#0B004B"/>
</mask>
<g mask="url(#mask0_1559_7268)">
<path d="M0 2546V0H1728V2546H0Z" fill="#0B004B"/>
<path d="M481.564 209.889L468.672 222.378L510.167 239.298L534.742 189.746H527.49L503.721 209.889H481.564Z" fill="#351F74"/>
<path d="M647.139 167.191L663.656 186.126L651.973 394.004L624.981 442.751L629.816 276.77L642.707 222.384L647.139 167.191Z" fill="#351F74"/>
<path d="M950.497 146.644L922.297 138.184L916.254 197.002L978.295 251.388L963.389 211.505L961.778 191.362L950.497 146.644Z" fill="#351F74"/>
<path d="M1324.2 256.624L1279.07 242.523L1309.29 329.139L1325 487.868L1336.28 489.076L1339.1 409.309L1331.04 320.276L1335.07 280.796L1349.58 248.969L1324.2 256.624Z" fill="#351F74"/>
<path d="M1345.14 195.792L1307.67 181.691L1269 239.301L1323.39 259.041L1371.33 242.927L1364.88 197.806L1345.14 195.792Z" fill="#5626A5"/>
<path d="M142 179.275V202.238L166.172 236.884L242.716 209.087L286.628 157.117L249.162 184.512L229.019 195.792L196.387 201.029L142 179.275Z" fill="#351F74"/>
<path d="M1345.38 638.138L1420.32 600.672L1368.75 646.196V711.46L1350.22 691.316L1345.38 638.138Z" fill="#351F74"/>
<path d="M1436.43 551.922L1341.36 635.315L1368.75 654.249L1402.59 651.026L1453.75 614.366V576.899L1436.43 551.922Z" fill="url(#paint0_radial_1559_7268)"/>
<path d="M1487.59 854.477L1400.17 881.871L1487.59 1047.45L1523.45 1076.45L1487.59 946.33V854.477Z" fill="#351F74"/>
<path d="M1471.48 819.023L1411.45 883.482L1487.19 895.165L1529.49 857.296L1611.68 819.023L1503.71 830.304L1471.48 819.023Z" fill="#5626A5"/>
<path d="M1616.52 1116.74L1624.57 1070.82L1583.88 1083.71H1547.62L1484.37 1037.78L1417.9 1126.01L1426.76 1167.1L1474.3 1337.11L1516.6 1284.74L1531.1 1187.24L1549.24 1137.29L1616.52 1116.74Z" fill="#351F74"/>
<path d="M1497.67 1047.05L1431.6 1158.64L1466.24 1195.3L1531.11 1187.24L1575.02 1144.94L1639.48 1111.1L1653.98 1054.7L1603.22 1078.87L1547.62 1083.71L1497.67 1047.05Z" fill="#5626A5"/>
<path d="M1429.18 1787.51L1378.42 1826.59L1321.61 2018.35L1423.94 2020.37L1482.76 1980.08L1513.38 1787.51L1614.09 1727.48L1583.88 1519.2L1495.65 1699.28L1429.18 1787.51Z" fill="#351F74"/>
<path d="M1597.17 1738.36L1529.09 1729.09L1332.89 1875.33L1441.27 1890.64L1502.5 1853.18L1597.17 1738.36Z" fill="url(#paint1_radial_1559_7268)"/>
<path d="M1484.37 2202.86L1380.84 2188.36L1347.8 2302.37L1422.73 2309.62L1481.95 2266.52L1484.37 2202.86Z" fill="#351F74"/>
<path d="M1389.3 2061.46L1371.57 2055.42L1364.32 2109L1378.42 2118.26L1389.3 2113.02L1397.36 2084.82L1433.61 2078.38L1465.44 2051.39L1424.35 2059.04L1389.3 2061.46Z" fill="#351F74"/>
<path d="M1365.93 2416.38L1376.81 2411.14L1380.03 2393.82L1442.07 2407.11L1514.18 2373.67L1538.76 2337.01L1467.85 2362.8L1417.9 2367.63L1369.96 2349.9L1351.83 2407.11L1365.93 2416.38Z" fill="#351F74"/>
<path d="M1514.99 2140.01L1394.94 2170.63L1369.15 2201.65L1483.16 2223.81L1604.43 2178.69L1514.99 2140.01Z" fill="#5626A5"/>
<path d="M1417.09 2366.82L1442.07 2407.92L1383.25 2393.82L1386.48 2355.54L1417.09 2366.82Z" fill="#5626A5"/>
<path d="M1321.21 256.624L1276.09 242.523L1306.31 329.139L1322.02 487.868L1333.3 489.076L1336.12 409.309L1328.06 320.276L1332.09 280.796L1346.59 248.969L1321.21 256.624Z" fill="#351F74"/>
<path d="M1342.16 195.792L1304.69 181.691L1266.02 239.301L1320.41 259.041L1368.35 242.927L1361.9 197.806L1342.16 195.792Z" fill="#5626A5"/>
<path d="M1575.42 1635.63L1541.98 1624.75L1568.57 1533.3H1602.41L1617.72 1611.05L1575.42 1635.63Z" fill="#5626A5"/>
<path d="M424.031 179.275V202.238L448.203 236.884L524.747 209.087L568.66 157.117L531.193 184.512L511.05 195.792L478.418 201.029L424.031 179.275Z" fill="#351F74"/>
<path d="M320.002 2294.72L127.03 2254.03L120.584 2330.17L131.058 2372.47L182.625 2391L225.732 2385.36L311.542 2396.64L357.468 2454.65L397.755 2473.99L423.538 2469.96L386.877 2362.8L320.002 2294.72Z" fill="#351F74"/>
<path d="M423.941 2460.29L443.682 2444.18L906.976 2465.13L1139.83 2439.75L1163.6 2447H1199.05L1218.39 2439.75L1202.68 2456.26L1155.54 2465.13L1110.02 2494.94L1086.25 2524.35L1025.42 2547.71L953.305 2543.28L867.898 2547.71L773.225 2529.18L706.349 2543.42H627.388L519.42 2515.08L462.616 2513.07L405.812 2523.94L357.469 2517.9L395.338 2511.05L423.941 2491.72V2460.29Z" fill="#351F74"/>
<path d="M202.769 1804.03L269.644 1789.12L228.552 1955.5L214.049 1911.19V1852.77L202.769 1804.03Z" fill="#351F74"/>
<path d="M174.568 1731.92L193.503 1718.62L264.81 1791.14L231.775 1805.24H202.768L169.734 1791.14L125.016 1731.92H174.568Z" fill="#5626A5"/>
<path d="M221.301 1635.63L301.873 1557.07L257.558 1579.23L206.798 1621.53L194.309 1656.98L174.568 1731.91L193.1 1718.62L221.301 1635.63Z" fill="#351F74"/>
<path d="M366.331 1456.76L405.409 1403.98L423.135 1427.75L359.482 1739.16L369.957 1545.79L366.331 1456.76Z" fill="#351F74"/>
<path d="M513.377 1374.17L511.766 1390.28L532.715 1362.08L521.837 1362.89L513.377 1374.17Z" fill="#351F74"/>
<path d="M585.893 1343.15L605.23 1329.86L601.604 1416.47L573.807 1453.13L586.698 1415.26L584.684 1401.57L588.713 1365.71L585.893 1343.15Z" fill="#351F74"/>
<path d="M697.889 1247.67L640.279 1292.79L736.161 1267.82L767.987 1195.3L745.427 1183.21H680.969L710.781 1197.72L712.392 1218.67L697.889 1247.67Z" fill="#351F74"/>
<path d="M183.029 2391.81L120.585 2368.04L57.335 2308.01L111.722 2266.52L269.644 2297.94L393.324 2354.74L311.945 2397.45L227.747 2385.76L183.029 2391.81Z" fill="#5626A5"/>
<path d="M183.029 2391.81L120.585 2368.04L57.335 2308.01L111.722 2266.52L269.644 2297.94L393.324 2354.74L311.945 2397.45L227.747 2385.76L183.029 2391.81Z" fill="url(#paint2_radial_1559_7268)"/>
<path d="M298.247 1157.02L247.486 1147.36H183.028L131.058 1111.5L48.8741 1091.76L0.933594 1077L0.933613 994L13.5 1016L27.9252 1040.19L137.907 1091.76L474.702 1120.77L755.498 1135.27L807.467 1150.98L769.195 1177.97L774.03 1161.05L726.492 1157.02H617.718L573.403 1167.5L512.168 1163.47L413.063 1186.43L340.951 1177.97L298.247 1157.02Z" fill="#5626A5"/>
<path d="M141.533 179.275V202.238L165.705 236.884L242.249 209.087L286.161 157.117L248.695 184.512L228.552 195.792L195.92 201.029L141.533 179.275Z" fill="#351F74"/>
<path d="M301.47 1229.54L258.363 1216.25H233.788L206.797 1254.52L174.165 1264.99L167.719 1329.05L206.797 1347.98L247.889 1379.81L280.521 1368.13L324.433 1379.81L343.77 1347.98L387.683 1309.71L407.02 1264.99L365.525 1229.54H301.47Z" fill="url(#paint3_radial_1559_7268)"/>
<path d="M301.47 1229.54L258.364 1216.25H233.789L204.38 1251.7L173.762 1264.99L171.748 1282.72L183.028 1273.05L201.157 1268.22L217.272 1254.52L224.12 1250.09L228.955 1237.2H237.415L248.695 1276.27L258.364 1264.99L262.795 1244.85L274.881 1237.2H303.485L322.822 1240.42L329.671 1237.2L355.051 1240.42L359.886 1259.35L372.777 1267.81L389.295 1264.99L398.561 1267.81L390.1 1304.47L407.021 1264.99L365.526 1229.54H301.47Z" fill="#0B004B"/>
<path d="M255.141 1262.18L258.364 1245.26L267.63 1239.62L274.479 1237.2L262.796 1245.26L258.364 1265L248.695 1276.68L250.71 1269.83L255.141 1262.18Z" fill="#854C8D"/>
<path d="M256.752 1374.17L239.429 1379.41L268.838 1394.31L317.987 1380.62L301.067 1370.95L292.204 1369.74L279.715 1374.17H256.752Z" fill="#0B004B"/>
<path d="M288.578 1234.38L279.312 1237.2H303.484L315.57 1239.61L323.225 1240.42L329.671 1237.2L355.051 1240.42L343.368 1235.99L330.073 1233.97L319.196 1235.99L307.513 1232.77L288.578 1234.38Z" fill="#854C8D"/>
<path d="M362.706 1247.27L355.454 1241.63L358.677 1256.13L360.691 1260.56L373.18 1267.82L389.698 1265L383.252 1262.98H373.18L367.137 1258.55L362.706 1247.27Z" fill="#854C8D"/>
<path d="M199.142 1265L214.048 1252.1L221.703 1249.69L228.552 1238.41L223.717 1250.09L214.854 1256.54L201.157 1268.62L182.625 1273.46L187.862 1269.43L199.142 1265Z" fill="#854C8D"/>
<path d="M187.5 537.5L177.5 591.5L168.5 590L157 591.5L138.5 584L122.5 566.5L112 548.5L100 531.5L83 519L80.5 489.5L87 481.5L95.5 478L87 454L84.5 438V423L80.5 408L83 392.5L133 349C160.333 390.5 167.3 505.1 176.5 517.5C185.7 529.9 187.667 536 187.5 537.5Z" fill="url(#paint4_radial_1559_7268)"/>
</g>
</g>
<defs>
<radialGradient id="paint0_radial_1559_7268" cx="0" cy="0" r="1" gradientUnits="userSpaceOnUse" gradientTransform="translate(1397.56 603.086) rotate(-179.92) scale(61.0551 67.0644)">
<stop offset="0.5" stop-color="#85E4D7"/>
<stop offset="1" stop-color="#5626A5"/>
</radialGradient>
<radialGradient id="paint1_radial_1559_7268" cx="0" cy="0" r="1" gradientUnits="userSpaceOnUse" gradientTransform="translate(1465.44 1809.67) rotate(47.5734) scale(50.7577 141.557)">
<stop stop-color="#FDC96D"/>
<stop offset="1" stop-color="#5626A5"/>
</radialGradient>
<radialGradient id="paint2_radial_1559_7268" cx="0" cy="0" r="1" gradientUnits="userSpaceOnUse" gradientTransform="translate(205.999 2296) rotate(109.387) scale(180.749 463.83)">
<stop stop-color="#95EDD8"/>
<stop offset="0.423129" stop-color="#5626A5"/>
</radialGradient>
<radialGradient id="paint3_radial_1559_7268" cx="0" cy="0" r="1" gradientUnits="userSpaceOnUse" gradientTransform="translate(281.326 1358.86) rotate(-84.9812) scale(142.758 208.863)">
<stop stop-color="#FDAD51"/>
<stop offset="0.678308" stop-color="#5626A5"/>
</radialGradient>
<radialGradient id="paint4_radial_1559_7268" cx="0" cy="0" r="1" gradientUnits="userSpaceOnUse" gradientTransform="translate(113.5 506) rotate(69.1258) scale(87.5867 39.7335)">
<stop stop-color="#FC95E4"/>
<stop offset="1" stop-color="#532998"/>
</radialGradient>
<clipPath id="clip0_1559_7268">
<rect width="1728" height="2549" fill="white"/>
</clipPath>
</defs>
</svg>
