<svg width="430" height="1774" viewBox="0 0 430 1774" fill="none" xmlns="http://www.w3.org/2000/svg">
<g clip-path="url(#clip0_1563_8416)">
<mask id="mask0_1563_8416" style="mask-type:alpha" maskUnits="userSpaceOnUse" x="253" y="-4" width="243" height="1795">
<path d="M495 625.49V721.096H486.351L474.818 696.056L477.198 630.453L495 625.49Z" fill="#D9D9D9"/>
<path d="M267.626 50.2885C267.626 50.2885 279.503 70.415 279.846 71.5125C280.189 72.6099 306.556 69.537 307.242 71.5125C307.929 73.4879 332.63 81.3212 332.63 81.3212L339.605 88.5308L347.416 95.7404L366.945 99.5019L386.673 115.141L380.337 130.848L371.967 138.371L369.497 147.006L375.673 163.762L386.673 180.897L382.569 189.779L375.673 199.183V215.579L389.264 234.917L396.239 239.933L402.655 247.142L411.862 257.487L418.279 269.712L428.601 281.205L416.047 315.163L412.978 330.523L409.072 338.046L407.907 344.681L411.025 365.004L416.047 376.915L418.835 394.051L429.159 401.679L438.645 402.933L451.853 407.635L455.663 419.86L462.637 428.637L463.753 439.921L467.664 450.213L464.59 461.863L459.848 468.133L455.663 482.238L454.178 495.143L461.521 511.704L469.054 524.556L474.175 537.46L462.637 555.902L452.036 570.635L445.342 586.83L447.572 598.219V609.817L452.036 628.312L454.178 647.694L462.079 671.883L470.449 683.167L474.818 696.056L477.198 630.453L495 625.49V-3H253.979L257.025 23.3308V36.1827L267.626 50.2885Z" fill="#D9D9D9"/>
<path d="M400.437 1051.58L388.985 1067.78L373.655 1103L370.851 1143.02L373.655 1152.11L382.569 1160.26L384.242 1166.53L384.8 1180.32V1193.17L386.195 1206.02L390.938 1216.05L393.449 1236.11L401.467 1258.6L326.213 1342.06L311.985 1368.71V1397.86L307.698 1424.75L333.188 1478.73L357.166 1501.22L350.206 1536.72L354.112 1563.05L376.71 1612.27L374.199 1628.88L357.166 1651.76L336.257 1661.17L317.991 1691.1L307.698 1708.81V1726.71L312.264 1741.1L307.698 1790H495V721.096H486.351L474.818 696.056L472.96 704.169L474.175 713.782L429.299 772.028L426.369 784.102L423.021 792.252L416.326 809.806V821.404L413.487 834.726V843.973L412.699 850.556L414.652 861.527L413.487 877.304L409.072 891.306L402.376 899.456L394.844 913.248V920.771L392.095 930.854V966.38L399.587 972.806L406.977 983.881L409.072 1014.5L400.437 1032.36V1051.58Z" fill="#D9D9D9"/>
<path d="M495 721.096V1790H307.698L312.264 1741.1L307.698 1726.71V1708.81L317.991 1691.1L336.257 1661.17L357.166 1651.76L374.199 1628.88L376.71 1612.27L354.112 1563.05L350.206 1536.72L357.166 1501.22L333.188 1478.73L307.698 1424.75L311.985 1397.86V1368.71L326.213 1342.06L401.467 1258.6L393.449 1236.11L390.938 1216.05L386.195 1206.02L384.8 1193.17V1180.32L384.242 1166.53L382.569 1160.26L373.655 1152.11L370.851 1143.02L373.655 1103L388.985 1067.78L400.437 1051.58V1032.36L409.072 1014.5L406.977 983.881L399.587 972.806L392.095 966.38V930.854L394.844 920.771V913.248L402.376 899.456L409.072 891.306L413.487 877.304L414.652 861.527L412.699 850.556L413.487 843.973V834.726L416.326 821.404V809.806L423.021 792.252L426.369 784.102L429.299 772.028L474.175 713.782L472.96 704.169L474.818 696.056M495 721.096V625.49M495 721.096H486.351L474.818 696.056M495 625.49V-3H253.979L257.025 23.3308V36.1827L267.626 50.2885C267.626 50.2885 279.503 70.415 279.846 71.5125C280.189 72.61 306.556 69.537 307.242 71.5125C307.929 73.4879 332.63 81.3212 332.63 81.3212L339.605 88.5308L347.416 95.7404L366.945 99.5019L386.673 115.141L380.337 130.848L371.967 138.371L369.497 147.006L375.673 163.762L386.673 180.897L382.569 189.779L375.673 199.183V215.58L389.264 234.917L396.239 239.933L402.655 247.142L411.862 257.487L418.279 269.712L428.601 281.205L416.047 315.163L412.978 330.523L409.072 338.046L407.907 344.681L411.025 365.004L416.047 376.915L418.835 394.051L429.159 401.679L438.645 402.933L451.853 407.635L455.663 419.86L462.637 428.637L463.753 439.921L467.664 450.213L464.59 461.863L459.847 468.133L455.663 482.238L454.178 495.143L461.521 511.704L469.054 524.556L474.175 537.46L462.637 555.902L452.036 570.635L445.342 586.83L447.572 598.219V609.817L452.036 628.312L454.178 647.694L462.079 671.883L470.449 683.167L474.818 696.056M495 625.49L477.198 630.454L474.818 696.056" stroke="black"/>
</mask>
<g mask="url(#mask0_1563_8416)">
<path d="M886.898 -90.7692H-693.772V1927.92H886.898V-90.7692Z" fill="#0B004B" stroke="black"/>
<path d="M396.513 1116.06L358.612 1090.72C368.146 1140.35 389.072 1244.73 396.513 1265.21C403.954 1285.69 406.589 1232.47 406.976 1203.3L396.513 1116.06Z" fill="url(#paint0_linear_1563_8416)"/>
<path d="M227.471 68.5745L213.52 78.5008L208.405 161.829L213.52 181.943L233.982 97.5697L227.471 68.5745Z" fill="#351F74"/>
<path d="M-98.2892 134.663L-101.312 81.113L-114.798 89.7332L-116.891 106.451L-130.144 113.504V116.116L-98.2892 134.663Z" fill="#351F74"/>
<path d="M-139.678 160.262L-152.234 138.058L-165.72 152.164L-181.066 158.433L-169.208 166.27L-156.419 169.666L-139.678 160.262Z" fill="#351F74"/>
<path d="M-182.927 281.206L-199.668 288.52L-209.666 290.087L-214.549 263.966L-205.713 240.195L-192.925 233.403L-182.927 281.206Z" fill="#351F74"/>
<path d="M-152.699 424.353L-144.096 375.767L-154.094 380.991H-162.697L-169.905 375.767L-181.066 411.815L-182.83 444.5L-197.11 455.438H-215.014L-220.362 459.879L-219.665 473.462L-199.344 481.935L-202.183 524.083L-211.759 526.49L-221.757 522.049L-217.805 554.179L-206.483 564.115L-217.529 580.038L-223.109 599.16L-217.529 596.652L-188.365 561.25L-186.414 560.448L-186.666 559.188L-186.283 558.723H-186.759L-193.851 523.234L-192.699 522.048L-177.398 475.385L-162.697 469.805L-175.963 441.241L-152.699 424.353Z" fill="#351F74"/>
<path d="M-63.1787 142.76L-72.9445 146.156L-57.1332 172.539L-25.278 235.493L-15.5121 215.64L-43.4145 172.539L-35.7414 166.792L-39.9267 154.254L-48.995 146.156L-63.1787 142.76Z" fill="#351F74"/>
<path d="M406.512 116.116L416.045 138.842L382.562 153.47L363.728 145.895L379.539 113.765L390.7 116.116H406.512Z" fill="#351F74"/>
<path d="M414.185 184.294L404.652 215.64L387.678 220.081L367.448 212.244L382.562 177.502L390.7 185.339L414.185 184.294Z" fill="#351F74"/>
<path d="M30.7594 82.1579L20.296 105.145L28.2016 110.369L40.2927 97.5697L30.7594 82.1579Z" fill="#351F74"/>
<path d="M159.11 105.145L151.205 94.1739L164.923 82.1579L159.11 105.145Z" fill="#351F74"/>
<path d="M-185.252 307.589L-172.463 287.214L-185.252 346.249V307.589Z" fill="#351F74"/>
<path d="M-242.359 671.569H-231.478L-223.109 626.431L-242.359 632.7L-248.775 647.746L-242.359 671.569Z" fill="#351F74"/>
<path d="M-207.806 1558.56L-197.11 1580.24L-179.206 1594.61L-173.16 1592.52L-177.811 1598.27H-184.089L-174.556 1601.92L-163.395 1608.98L-146.421 1606.36L-133.399 1608.98L-126.191 1619.68L-118.983 1628.04L-100.847 1631.7L-83.1752 1640.32L-64.1085 1646.59L-43.6468 1649.46L-16.6745 1686.82L26.5743 1706.93L20.0637 1714.25L10.5304 1720.25H24.2491L35.41 1714.25H93.54L108.886 1718.16L119.815 1727.83L136.556 1735.4L216.776 1742.72L246.073 1750.29H284.904L301.645 1742.72L319.317 1740.37L312.574 1728.35L329.78 1716.07L337.686 1697.53L392.561 1657.3L400.001 1631.44L392.996 1625.68L387.445 1597.74L384.422 1576.06L390.003 1539.23L342.569 1537.4L375.819 1613.15L376.551 1613.74L-184.089 1558.56H-207.806Z" fill="#351F74"/>
<path d="M-230.826 1182.14L-211.061 1213.23V1240.18L-214.782 1242.75L-250.59 1235.69L-207.109 1279.58L-159.907 1266.26L-204.055 1236.03L-149.909 1151.84L-230.826 1182.14Z" fill="#351F74"/>
<path d="M-240.685 1399.43L-230.362 1405.07L-222.222 1440.23L-240.685 1458.98V1399.43Z" fill="#351F74"/>
<path d="M379.074 1424.56L329.315 1439.71L261.419 1405.23L296.762 1333.13L403.489 1325.55L383.957 1372.83L379.074 1424.56Z" fill="#351F74"/>
<path d="M431.39 829.762C386.049 809.735 398.372 803.901 387.212 800.767L411.394 875.214L418.834 880.7L424.182 865.288L431.39 829.762Z" fill="url(#paint1_linear_1563_8416)"/>
<path d="M405.348 958.804C405.348 962.565 391.242 968.295 381.166 969.775L387.212 926.935L405.348 937.384C407.363 943.566 405.348 955.042 405.348 958.804Z" fill="url(#paint2_linear_1563_8416)"/>
<path d="M463.474 637.088L451.477 650.254L441.434 631.133V582.86L470.169 589.129L463.474 637.088Z" fill="url(#paint3_linear_1563_8416)"/>
<path d="M474.354 530.198C469.89 517.973 460.74 493.21 459.847 491.956L451.477 496.344L459.847 522.362L474.354 538.035V530.198Z" fill="url(#paint4_linear_1563_8416)"/>
<path d="M404.887 339.613L418.557 403.873L450.361 408.575L428.529 391.021L431.111 379.11V333.344L416.604 350.898L404.887 339.613Z" fill="url(#paint5_linear_1563_8416)"/>
<path d="M403.492 341.808L417.442 351.838L433.623 333.344L464.311 274.413L438.644 280.369H417.442L403.492 341.808Z" fill="#5626A5"/>
<path d="M-176.649 439.765L-175.964 441.241L-162.698 469.805L-197.111 482.866L-219.665 473.462L-220.363 459.879L-215.015 455.438H-197.111L-182.83 444.5L-176.649 439.765Z" fill="#5626A5"/>
<path d="M-211.76 526.49L-194.088 522.049L-186.415 560.448L-202.924 567.24L-217.805 554.179L-221.758 522.049L-211.76 526.49Z" fill="#5626A5"/>
<path d="M-245.428 781.281L-261.051 801.029L-264.957 824.225L-261.051 855.885L-234.827 865.602L-245.428 781.281Z" fill="#5626A5"/>
<path d="M-255.193 970.612L-261.051 888.485L-234.827 978.762V1041.49L-162.698 1180.58L-179.439 1190.77L-225.943 1184.23C-236.949 1177.18 -238.964 1147.23 -238.964 1144.9C-238.964 1140.79 -239.289 1134.47 -239.694 1126.61C-240.633 1108.37 -241.999 1081.83 -240.713 1055.36L-255.193 1013.24V970.612Z" fill="#5626A5"/>
<path d="M440.039 584.74L472.123 535.527L477.144 539.915H485.793L488.304 544.931L469.891 591.01H455.663L440.039 584.74Z" fill="#5626A5"/>
<path d="M476.865 449.325L469.891 481.925L460.405 495.717H452.315L464.032 447.758L469.891 452.46L476.865 449.325Z" fill="#5626A5"/>
<path d="M-194.088 279.377L-200.366 286.43L-209.434 287.736L-211.527 295.312L-200.366 310.201H-185.252L-171.301 289.826L-194.088 279.377Z" fill="#5626A5"/>
<path d="M-172.231 383.603L-157.815 386.216L-146.421 377.595L-179.207 343.115L-191.065 348.6L-206.179 345.988L-195.948 363.751L-172.231 383.603Z" fill="#5626A5"/>
<path d="M-234.827 588.815L-219.761 596.965L-217.529 636.148L-242.638 632.7L-249.892 611.071L-245.428 578.471L-234.827 588.815Z" fill="#5626A5"/>
<path d="M413.021 713.26L406.976 831.591L416.974 840.995L437.669 833.942L471.844 758.085L474.355 713.26H413.021Z" fill="#5626A5"/>
<path d="M406.976 939.474C403.876 942.087 397.443 946.527 396.513 943.393C396.114 942.049 394.895 939.353 393.483 936.233L393.483 936.232C390.779 930.254 387.371 922.719 387.677 920.144C388.049 917.01 397.21 881.484 403.488 866.072L418.369 880.7L423.252 882.79L422.09 913.353L406.976 939.474Z" fill="#5626A5"/>
<path d="M303.737 1335.48L368.378 1255.02L402.558 1257.11L423.02 1279.06V1300.74L402.558 1327.12L352.102 1353.5L303.737 1335.48Z" fill="#5626A5"/>
<path d="M369.773 1099.6L396.28 1116.06L409.301 1107.18L419.067 1076.61L413.487 1059.63L394.188 1047.62L369.773 1099.6Z" fill="#5626A5"/>
<path d="M343.266 1488.29L370.238 1513.37L390.235 1516.5L421.857 1507.36L399.303 1526.17L390.235 1539.23L370.238 1543.93L343.266 1539.23V1488.29Z" fill="#5626A5"/>
<path d="M313.968 1691.26L335.593 1700.66L356.752 1686.3H377.911L395.118 1662L405.116 1639.28L417.44 1629.35L424.88 1616.29L408.371 1624.13L392.56 1627L377.911 1613.16L293.507 1639.28L313.968 1691.26Z" fill="#5626A5"/>
<path d="M-254.635 677.838L-241.522 671.883L-225.341 725.171L-236.779 730.813L-250.729 722.037L-263.283 704.796V674.704L-254.635 677.838Z" fill="#5626A5"/>
<path d="M413.021 713.26L406.976 831.591L416.974 840.995L437.668 833.942L471.843 758.085L474.354 713.26H413.021Z" fill="url(#paint6_radial_1563_8416)"/>
<path d="M403.492 341.808L417.441 351.838L433.623 333.344L464.311 274.413L438.644 280.369H417.441L403.492 341.808Z" fill="url(#paint7_radial_1563_8416)"/>
<path d="M303.737 1335.48L368.378 1255.02L402.558 1257.11L423.02 1279.06V1300.74L402.558 1327.12L352.101 1353.5L303.737 1335.48Z" fill="url(#paint8_radial_1563_8416)"/>
</g>
<mask id="mask1_1563_8416" style="mask-type:alpha" maskUnits="userSpaceOnUse" x="-108" y="19" width="494" height="1755">
<path d="M-108 975.659V572.04L-57.0975 889.258L-108 975.659Z" fill="#D9D9D9"/>
<path d="M32.3235 488.801V475.545L27.8191 457.51L40.4538 443.636L51.8025 423.386L62.8445 408.966L66.3398 392.336L57.0168 384.42L51.8025 373.375L26.6875 360.716L29.7185 349.136L33.0924 341.466L34.0126 328.886L38.0262 311.024L31.8656 304.341L26.3445 300.966L15.371 297.476L14.2393 287.159L15.371 278.875V265.682L14.2393 251.651L21.7437 245.739L28.7983 234.08L36.1597 225.489L43.7066 220.676L51.1891 210.455L57.0168 197.875L67.4936 183.887L65.2983 171.795L58.7954 161.926L57.0168 141.114L58.7954 132.046L69.5924 121.17L75.2823 119.739L89.0867 132.046L98.7311 135.591H111.072L113.454 119.739L111.072 106.188L121.429 97.2386L135.101 91.9333L143.206 55.5114L135.101 19H-108V572.04L-57.0975 889.258L-50.0294 872.875L-41.2885 863.773L-39.9076 856L-36.5336 845.261V820.716L-41.2885 789.881L-39.9076 779.909L-33.4664 771.932L-27.9454 745.545L-21.0931 733.119V721.614L-35.6644 679.823L-27.9454 659.943L-16.2899 641.841L-12.6571 624.966V604.511L-2.05122 594.028L8.55463 583.545L15.371 579.864L22.1097 572.04L24.8109 565.136L22.1097 546.114L15.371 533.176L17.7563 515.125L24.8109 498.864L32.3235 488.801Z" fill="#D9D9D9"/>
<path d="M18.7659 1549.42L45.9478 1521.03L27.2647 1494.49L18.7659 1473.93L-17.4914 1435.85L-28.8655 1417.17L-33.7784 1391.96L-25.7983 1356.73L-9.84874 1332.18L2.7269 1300.27L18.7659 1270.63L9.16807 1245.66L0.637268 1234.5L26.3445 1206.69L36.1597 1191.35L47.8151 1180.61V1169.57L32.1723 1149.32L11.3151 1139.5L-19.6639 1101.15L-33.7784 1075.74L-35.3067 1027.82L-41.2885 987.011V967.375L-57.0975 889.258L-108 975.659V1029.66V1774H385.21L385.517 1714.48L360.979 1701.28L347.483 1684.94L328.16 1679.19L299.634 1682.88L268.04 1684.94L231.849 1661.7L202.316 1630.74L176.025 1614.15L147.193 1604.33L95.8071 1576.53L80.6345 1574.88L66.5252 1581.93L27.2647 1561.99L18.7659 1549.42Z" fill="#D9D9D9"/>
</mask>
<g mask="url(#mask1_1563_8416)">
<path d="M1206.22 -66.9091H-531.602V1909H1206.22V-66.9091Z" fill="#0B004B" stroke="black"/>
<path d="M97.7787 1514.48L-24.416 1503.23L8.56122 1537.24L23.1326 1548.74L65.3127 1514.48H97.7787Z" fill="url(#paint9_linear_1563_8416)"/>
<path d="M-3.96519 1421.42L-33.6191 1449.8L-20.0704 1475.11L-24.4162 1503.23L21.0873 1519.34L59.4329 1521.39L-3.96519 1421.42Z" fill="url(#paint10_linear_1563_8416)"/>
<path d="M481.234 89.0576L465.896 98.7735L460.272 180.336L465.896 200.024L488.392 117.438L481.234 89.0576Z" fill="#351F74"/>
<path d="M123.086 153.745L119.763 101.33L104.936 109.768L102.635 126.131L88.0638 133.035V135.592L123.086 153.745Z" fill="#351F74"/>
<path d="M77.5827 178.802L63.7782 157.069L48.9513 170.876L32.0792 177.012L45.1167 184.683L59.1768 188.006L77.5827 178.802Z" fill="#351F74"/>
<path d="M30.0341 297.183L11.6282 304.342L0.635777 305.876L-4.73261 280.308L4.98162 257.041L19.0417 250.393L30.0341 297.183Z" fill="#351F74"/>
<path d="M63.267 437.296L72.7256 389.739L61.7331 394.853H52.2746L44.3498 389.739L32.0792 425.024L30.1406 457.016L14.4402 467.722H-5.24389L-11.1236 472.069L-10.3566 485.364L11.984 493.657L8.86297 534.913L-1.66496 537.268L-12.6574 532.921L-8.31153 564.37L4.1354 574.096L-8.00861 589.682L-14.1431 608.398L-8.00861 605.943L24.0554 571.292L26.1995 570.507L25.9228 569.274L26.3443 568.818H25.8206L18.0238 534.081L19.2897 532.92L36.1118 487.246L52.2746 481.785L37.6898 453.826L63.267 437.296Z" fill="#351F74"/>
<path d="M161.687 161.671L150.951 164.995L168.334 190.819L203.356 252.438L214.093 233.006L183.417 190.819L191.853 185.194L187.251 172.921L177.281 164.995L161.687 161.671Z" fill="#351F74"/>
<path d="M678.075 135.592L688.556 157.836L651.745 172.154L631.038 164.739L648.421 133.291L660.692 135.592H678.075Z" fill="#351F74"/>
<path d="M686.511 202.325L676.03 233.006L657.369 237.353L635.128 229.683L651.745 195.677L660.692 203.347L686.511 202.325Z" fill="#351F74"/>
<path d="M264.965 102.353L253.461 124.853L262.153 129.967L275.446 117.438L264.965 102.353Z" fill="#351F74"/>
<path d="M406.077 124.853L397.385 114.114L412.468 102.353L406.077 124.853Z" fill="#351F74"/>
<path d="M27.4777 323.007L41.5378 303.063L27.4777 360.847V323.007Z" fill="#351F74"/>
<path d="M-35.3069 679.273H-23.3447L-14.1431 635.091L-35.3069 641.227L-42.3615 655.955L-35.3069 679.273Z" fill="#351F74"/>
<path d="M2.68116 1547.47L14.4405 1568.69L34.1246 1582.75L40.7711 1580.7L35.6584 1586.33H28.7562L39.2373 1589.91L51.5079 1596.81L70.1695 1594.25L84.4852 1596.81L92.4099 1607.29L100.335 1615.48L120.274 1619.06L139.703 1627.49L160.665 1633.63L183.161 1636.44L212.815 1673L260.364 1692.69L253.206 1699.85L242.725 1705.73H257.807L270.078 1699.85H333.987L350.859 1703.69L362.874 1713.15L381.28 1720.56L469.475 1727.72L501.686 1735.14H544.377L562.783 1727.72L582.211 1725.42L574.798 1713.66L593.715 1701.64L602.407 1683.49L662.737 1644.11L670.918 1618.8L663.216 1613.16L657.113 1585.82L653.79 1564.6L659.925 1528.54L607.775 1526.75L644.331 1600.9L645.136 1601.47L28.7562 1547.47H2.68116Z" fill="#351F74"/>
<path d="M-22.6271 1179.03L-0.897915 1209.45V1235.84L-4.98827 1238.35L-44.3564 1231.44L3.44777 1274.4L55.3422 1261.36L6.80454 1231.77L66.3347 1149.37L-22.6271 1179.03Z" fill="#351F74"/>
<path d="M-33.4666 1391.7L-22.1179 1397.23L-13.1685 1431.64L-33.4666 1450V1391.7Z" fill="#351F74"/>
<path d="M647.91 1416.3L593.204 1431.13L518.557 1397.38L557.414 1326.81L674.752 1319.4L653.278 1365.68L647.91 1416.3Z" fill="#351F74"/>
<path d="M674.756 356.5L690.092 366.318L707.882 348.216L741.622 290.534L713.403 296.364H690.092L674.756 356.5Z" fill="#5626A5"/>
<path d="M36.9364 452.381L37.6899 453.826L52.2746 481.785L14.4403 494.569L-10.3565 485.364L-11.1235 472.069L-5.24379 467.722H14.4403L30.1407 457.016L36.9364 452.381Z" fill="#5626A5"/>
<path d="M-1.66487 537.268L17.7636 532.921L26.1996 570.506L8.04935 577.154L-8.31144 564.37L-12.6573 532.921L-1.66487 537.268Z" fill="#5626A5"/>
<path d="M-38.6808 786.659L-55.8572 805.989L-60.1514 828.693L-55.8572 859.682L-27.0253 869.193L-38.6808 786.659Z" fill="#5626A5"/>
<path d="M-49.4161 971.977L-55.8572 891.591L-27.0253 979.955V1041.35L52.2747 1177.49L33.8688 1187.47L-17.2587 1181.07C-29.3588 1174.17 -31.5744 1144.86 -31.5744 1142.57C-31.5744 1138.55 -31.9319 1132.36 -32.3764 1124.67C-33.4087 1106.82 -34.9106 1080.84 -33.4973 1054.93L-49.4161 1013.7V971.977Z" fill="#5626A5"/>
<path d="M714.937 594.284L750.21 546.114L755.731 550.409H765.239L768 555.318L747.756 600.42H732.113L714.937 594.284Z" fill="#5626A5"/>
<path d="M755.424 461.739L747.756 493.648L737.328 507.148H728.433L741.315 460.205L747.756 464.807L755.424 461.739Z" fill="#5626A5"/>
<path d="M17.7636 295.393L10.8614 302.296L0.891556 303.575L-1.40918 310.989L10.8614 325.563H27.4779L42.8161 305.62L17.7636 295.393Z" fill="#5626A5"/>
<path d="M41.7936 397.41L57.6431 399.967L70.1693 391.529L34.1244 357.779L21.0869 363.148L4.47048 360.592L15.7185 377.978L41.7936 397.41Z" fill="#5626A5"/>
<path d="M-27.0253 598.273L-10.4623 606.25L-8.00851 644.602L-35.6136 641.227L-43.5883 620.057L-38.6808 588.148L-27.0253 598.273Z" fill="#5626A5"/>
<path d="M685.233 720.08L678.586 835.903L689.579 845.108L712.33 838.205L749.903 763.955L752.664 720.08H685.233Z" fill="#5626A5"/>
<path d="M678.586 941.5C675.178 944.057 668.105 948.403 667.083 945.335C666.644 944.02 665.304 941.381 663.752 938.327L663.752 938.326C660.779 932.475 657.032 925.099 657.368 922.58C657.777 919.511 667.849 884.739 674.752 869.653L691.112 883.972L696.481 886.017L695.203 915.932L678.586 941.5Z" fill="#5626A5"/>
<path d="M565.083 1329.11L636.151 1250.36L673.729 1252.41L696.226 1273.89V1295.11L673.729 1320.93L618.256 1346.75L565.083 1329.11Z" fill="#5626A5"/>
<path d="M637.685 1098.23L666.827 1114.34L681.143 1105.65L691.88 1075.73L685.744 1059.11L664.526 1047.35L637.685 1098.23Z" fill="#5626A5"/>
<path d="M608.542 1478.69L638.196 1503.23L660.181 1506.3L694.947 1497.35L670.15 1515.76L660.181 1528.55L638.196 1533.15L608.542 1528.55V1478.69Z" fill="#5626A5"/>
<path d="M576.332 1677.35L600.106 1686.56L623.369 1672.5H646.632L665.549 1648.72L676.542 1626.47L690.09 1616.76L698.271 1603.97L680.12 1611.64L662.737 1614.46L646.632 1600.9L553.836 1626.47L576.332 1677.35Z" fill="#5626A5"/>
<path d="M-48.8026 685.409L-34.3867 679.58L-16.5967 731.739L-29.1724 737.261L-44.5085 728.67L-58.311 711.795V682.341L-48.8026 685.409Z" fill="#5626A5"/>
<path d="M14.441 1568.69L2.68164 1547.47H28.7567L228.665 1622.89L183.162 1636.44L160.666 1633.63L139.703 1627.49L120.275 1619.06L100.335 1615.48L92.4104 1607.29L84.4856 1596.81L70.1699 1594.25L51.5084 1596.81L39.2378 1589.91L28.7567 1586.33H35.6589L40.7716 1580.7L34.125 1582.75L14.441 1568.69Z" fill="url(#paint11_radial_1563_8416)"/>
<path d="M-12.5 1054.5L-26 1099.5L-12.5 1105L20.5 1094.5L49.5 1034H9.5L-12.5 1054.5Z" fill="url(#paint12_linear_1563_8416)"/>
</g>
<mask id="mask2_1563_8416" style="mask-type:alpha" maskUnits="userSpaceOnUse" x="-272" y="-12" width="827" height="198">
<path d="M-272 -12L555 -11.9999V46.7643L540.355 48.4482L532.027 46.7654L522.551 38.5517L508.768 33.7373H498.43L476.895 38.5517L446.743 45.506L431.237 46.7654L396.204 40.6916L378.975 43.5891L347.388 23.841L337.338 19.9626L327.575 23.841H314.94L306.757 19.9626L283.064 27.3181L274.687 46.7654V65.2988L269.857 79.9943L263.918 130.071L255.78 140.101L245.736 110.769L242.003 78.9244L235.916 64.2937L223.051 57.2747L214.377 56.5168L208.693 62.3566L205.522 71.0048L195.484 69.0434L186.376 71.0048L177.681 76.8L170.101 78.9244L157.867 65.2988L145.69 56.5168L119.102 49.5181L109.791 43.5891L93.5453 48.1807L78.1999 56.5168L76.8904 69.3108L72.5851 79.9943L65.9786 85.0915L58.2255 85.8939L49.898 74.6602L45.8907 71.0048L42.4321 106.222L36.689 122.716L32.2491 186L24.112 179.999L21.7571 170.414L7.11978 141.216V124.722L-3.6499 122.716L-11.5477 112.908L-14.137 99.5349L-11.5477 89.1036L-14.137 72.5205L-19.88 56.5168L-33.9505 47.9132L-48.3076 43.5891L-79.4639 45.7512L-110.62 47.9132L-136.751 51.6578L-159.148 63.9613H-181.26L-203.658 56.5168L-218.015 68.5084L-234.957 71.0048L-251.899 56.5168L-272 46.7654L-272 -12Z" fill="#D9D9D9"/>
</mask>
<g mask="url(#mask2_1563_8416)">
<path d="M-44.5734 46.7654L-16.3329 67.0149L-11.5463 112.908L-3.64856 122.716L7.12113 124.722V141.216L24.1134 179.999L32.2505 186L45.8921 71.0048L56.9011 84.8241L71.2608 78.9244L78.2012 56.5168L109.792 43.5891L145.691 56.5168L170.103 78.9244L186.377 71.0048H205.523L214.378 56.5168L235.918 64.2937L255.782 140.101L263.919 130.071L274.689 46.7654L283.065 27.3181L306.758 19.9626M554.835 -16.8145H-272.164" stroke="black"/>
<path d="M1316.53 -45.7012H-310.477V282.217H1316.53V-45.7012Z" fill="#0B004B" stroke="black"/>
</g>
</g>
<defs>
<linearGradient id="paint0_linear_1563_8416" x1="417.672" y1="1181.36" x2="389.623" y2="1268.05" gradientUnits="userSpaceOnUse">
<stop stop-color="#351F74"/>
<stop offset="1" stop-color="#FDA74E"/>
</linearGradient>
<linearGradient id="paint1_linear_1563_8416" x1="417.672" y1="1181.36" x2="389.623" y2="1268.05" gradientUnits="userSpaceOnUse">
<stop stop-color="#351F74"/>
<stop offset="1" stop-color="#FDA74E"/>
</linearGradient>
<linearGradient id="paint2_linear_1563_8416" x1="417.672" y1="1181.36" x2="389.623" y2="1268.05" gradientUnits="userSpaceOnUse">
<stop stop-color="#351F74"/>
<stop offset="1" stop-color="#FDA74E"/>
</linearGradient>
<linearGradient id="paint3_linear_1563_8416" x1="417.672" y1="1181.36" x2="389.623" y2="1268.05" gradientUnits="userSpaceOnUse">
<stop stop-color="#351F74"/>
<stop offset="1" stop-color="#FDA74E"/>
</linearGradient>
<linearGradient id="paint4_linear_1563_8416" x1="417.672" y1="1181.36" x2="389.623" y2="1268.05" gradientUnits="userSpaceOnUse">
<stop stop-color="#351F74"/>
<stop offset="1" stop-color="#FDA74E"/>
</linearGradient>
<linearGradient id="paint5_linear_1563_8416" x1="417.672" y1="1181.36" x2="389.623" y2="1268.05" gradientUnits="userSpaceOnUse">
<stop stop-color="#351F74"/>
<stop offset="1" stop-color="#FDA74E"/>
</linearGradient>
<radialGradient id="paint6_radial_1563_8416" cx="0" cy="0" r="1" gradientUnits="userSpaceOnUse" gradientTransform="translate(446.735 771.563) rotate(123.282) scale(82.8671 47.1656)">
<stop offset="0.156667" stop-color="#9CFAF1"/>
<stop offset="0.99" stop-color="#5626A5"/>
</radialGradient>
<radialGradient id="paint7_radial_1563_8416" cx="0" cy="0" r="1" gradientUnits="userSpaceOnUse" gradientTransform="translate(421.905 307.013) rotate(115.052) scale(48.0959 39.558)">
<stop offset="0.48" stop-color="#80E5D5"/>
<stop offset="1" stop-color="#5626A5"/>
</radialGradient>
<radialGradient id="paint8_radial_1563_8416" cx="0" cy="0" r="1" gradientUnits="userSpaceOnUse" gradientTransform="translate(363.379 1304.26) rotate(90) scale(49.2396 59.6414)">
<stop offset="0.64" stop-color="#DDA980"/>
<stop offset="1" stop-color="#5626A5"/>
</radialGradient>
<linearGradient id="paint9_linear_1563_8416" x1="-3.45374" y1="1503.49" x2="36.6891" y2="1548.74" gradientUnits="userSpaceOnUse">
<stop offset="0.345" stop-color="#351F74"/>
<stop offset="1" stop-color="#22628A"/>
</linearGradient>
<linearGradient id="paint10_linear_1563_8416" x1="12.9069" y1="1421.42" x2="12.9069" y2="1521.39" gradientUnits="userSpaceOnUse">
<stop offset="0.32" stop-color="#5626A5"/>
<stop offset="1" stop-color="#3972A5"/>
</linearGradient>
<radialGradient id="paint11_radial_1563_8416" cx="0" cy="0" r="1" gradientUnits="userSpaceOnUse" gradientTransform="translate(88.5758 1582.24) rotate(18.4379) scale(121.262 33.5075)">
<stop offset="0.205" stop-color="#47C3BB"/>
<stop offset="1" stop-color="#351F74"/>
</radialGradient>
<linearGradient id="paint12_linear_1563_8416" x1="11.75" y1="1034" x2="23" y2="1092" gradientUnits="userSpaceOnUse">
<stop stop-color="#351F74"/>
<stop offset="1" stop-color="#EB5ACB"/>
</linearGradient>
<clipPath id="clip0_1563_8416">
<rect width="430" height="1774" fill="white"/>
</clipPath>
</defs>
</svg>
