<svg width="1728" height="2860" viewBox="0 0 1728 2860" fill="none" xmlns="http://www.w3.org/2000/svg">
<mask id="mask0_1655_7166" style="mask-type:alpha" maskUnits="userSpaceOnUse" x="0" y="0" width="1728" height="2860">
<path fill-rule="evenodd" clip-rule="evenodd" d="M1728 0H1296.04H396.289H144.001H0V901.25V1559V1647V2494V2859.98V2860H804L804 2859.97L1392.32 2859.96L1392.32 2860H1728V1155V1002.5V0ZM742.838 2715.28L805.068 2763.22L1340.57 2780.03L1392.3 2759L1392.32 2758.95V2730.5L1410.7 2702.34L1410.75 2702.2L1410.93 2702L1443.5 2654.5L1461.51 2647.29L1513.53 2591.01L1516 2576.5L1475.5 2498L1468.5 2456L1480.97 2399.37L1438 2363.5L1392.32 2277.39L1400 2234.5V2188L1425.5 2145.5L1560.37 2012.37L1546 1976.5L1541.5 1944.5L1533 1928.5L1530.5 1908V1887.5L1529.5 1865.5L1526.5 1855.5L1510.52 1842.5L1505.5 1828L1510.52 1764.18L1538 1708L1558.52 1682.15V1651.5L1574 1623L1570.24 1574.17L1557 1556.5L1543.57 1546.25V1489.58L1548.5 1473.5V1461.5L1562 1439.5L1574 1426.5L1581.91 1404.17L1584 1379L1580.5 1361.5L1581.91 1351V1336.25L1587 1315V1296.5L1599 1268.5L1605 1255.5L1610.25 1236.24L1690.68 1143.33L1688.5 1128L1691.83 1115.06L1684 1094.5L1669 1076.5L1654.84 1037.92L1651 1007L1643 977.5V959L1639 940.833L1651 915L1670 891.5L1690.68 862.083L1681.5 841.5L1668 821L1654.84 794.583L1657.5 774L1665 751.5L1673.5 741.5L1679.01 722.917L1672 706.5L1670 688.5L1657.5 674.5L1650.67 655L1627 647.5L1610 645.5L1591.5 633.333L1586.5 606L1577.5 587L1571.91 554.583L1574 544L1581 532L1586.5 507.5L1609 453.333L1590.5 435L1579 415.5L1562.5 399L1551 387.5L1538.5 379.5L1514.14 348.654V322.5L1526.5 307.5L1533.85 293.333L1514.14 266L1503.07 239.274L1507.5 225.5L1522.5 213.5L1533.85 188.445L1498.5 163.5L1463.5 157.5L1449.5 146L1437 134.5C1437 134.5 1392.73 122.005 1391.5 118.854C1390.79 117.048 1374.97 117.888 1361.47 118.604C1351.42 119.137 1342.66 119.601 1342.4 118.854C1342.11 118.045 1337.42 110.753 1332.44 103.143L1307.5 98.5L1277.5 103.917L1222.5 67L1205 59.75L1188 67H1166L1151.75 59.75L1110.5 73.5L1095.91 109.854V144.5L1087.5 171.971L1077.16 265.583L1062.99 284.333L1045.5 229.5L1039 169.971L1028.4 142.621L1006 129.5L990.896 128.083L981 139L975.477 155.167L958 151.5L942.14 155.167L927 166L913.802 169.971L892.5 144.5L871.296 128.083L825 115L808.788 103.917L780.5 112.5L753.78 128.083L751.5 152L744.004 171.971L732.5 181.5L719 183L704.5 162L697.522 155.167L691.5 221L681.5 251.833L673.769 370.135L659.6 358.917L655.5 341L630.013 286.417V255.583L611.26 251.833L597.509 233.5L593 208.5L597.509 189L593 158L583 128.083L558.5 112L533.501 103.917L479.25 107.958L425 112L396.85 116.331L396.289 118.854L374 127.5L357.117 142.083L361 164.167L357.117 190H337L321.278 184.223L298.775 164.167L289.5 166.5L271.899 184.223L269 199L271.899 232.917L282.5 249L286.079 268.704L269 291.5L259.5 312L247.303 328.657L235 336.5L223 350.5L211.5 369.5L199.267 379.135L201.112 402V423.5L199.267 437L201.112 453.813L219 459.5L228 465L238.043 475.891L231.5 505L230 525.5L224.5 538L219.559 556.871L260.5 577.5L269 595.5L284.198 608.4L278.5 635.5L260.5 659L242 692L221.404 714.609L228.747 744V765.602L216.5 782L205 808.5L201.112 837.917L212.097 859L216.5 890L212.097 901.25L201.112 914L190 920L172.711 937.083L155.422 954.167V987.5L149.5 1015L130.5 1044.5L117.917 1076.9L141.67 1145V1163.75L130.5 1184L121.5 1227L111 1240L108.749 1256.25L116.5 1306.5V1346.5L111 1364L108.749 1376.67L94.5 1391.5L82.9781 1418.2L108.749 1545.5V1577.5L118.5 1644L120.991 1722.1L144 1763.5L194.5 1826L228.5 1842L254 1875V1893L235 1910.5L219 1935.5L177.094 1980.82L191 1999L206.646 2039.7L180.5 2088L160 2140L134 2180L120.991 2237.41L129 2278.5L147.541 2308.94L206.646 2371L220.5 2404.5L250.956 2447.75L206.657 2494.01L229.871 2519.26L267.125 2538.18H302.146L307.5 2535.5L332.005 2538.18H332.233L432.079 2588.97L463 2599.5L505.653 2626.41L505.857 2626.51L612.997 2714.84H613.378L664.5 2711.5L711 2705.5L742.5 2714.87L742.838 2715.28Z" fill="#D9D9D9"/>
</mask>
<g mask="url(#mask0_1655_7166)">
<path d="M2141.89 -140H-691V3080H2141.89V-140Z" fill="#0B004B" stroke="black"/>
<path d="M335.448 2437.08L136.254 2418.75L190.011 2474.17L213.765 2492.92L282.524 2437.08H335.448Z" fill="url(#paint0_linear_1655_7166)"/>
<path d="M169.59 2285.42L121.25 2331.67L143.336 2372.92L136.252 2418.75L210.429 2445L272.938 2448.33L169.59 2285.42Z" fill="url(#paint1_linear_1655_7166)"/>
<path d="M376.704 219.585L371.287 134.168L347.117 147.918L343.366 174.585L319.613 185.835V190.001L376.704 219.585Z" fill="#351F74"/>
<path d="M302.527 260.418L280.024 225.001L255.854 247.501L228.351 257.501L249.603 270.001L272.523 275.418L302.527 260.418Z" fill="#351F74"/>
<path d="M225.017 453.335L195.013 465.001L177.093 467.501L168.342 425.835L184.178 387.918L207.098 377.085L225.017 453.335Z" fill="#351F74"/>
<path d="M279.191 681.668L294.61 604.168L276.691 612.501H261.272L248.353 604.168L228.351 661.668L225.19 713.803L199.597 731.251H167.509L157.924 738.335L159.174 760.001L195.593 773.516L190.505 840.746L173.343 844.585L155.424 837.501L162.508 888.751L182.798 904.601L163.002 930L153.002 960.5L163.002 956.5L215.271 900.031L218.766 898.751L218.315 896.742L219.002 896H218.148L205.438 839.392L207.502 837.5L234.924 763.068L261.272 754.168L237.497 708.605L279.191 681.668Z" fill="#351F74"/>
<path d="M439.63 232.501L422.127 237.918L450.465 280.001L507.556 380.418L525.058 348.751L475.051 280.001L488.803 270.835L481.302 250.835L465.05 237.918L439.63 232.501Z" fill="#351F74"/>
<path d="M220.85 495.418L243.769 462.918L220.85 557.085V495.418Z" fill="#351F74"/>
<path d="M118.502 1076H138.002L153.002 1004L118.502 1014L107.002 1038L118.502 1076Z" fill="#351F74"/>
<path d="M139.172 1890.42L174.593 1940V1982.99L167.926 1987.08L103.75 1975.83L181.677 2045.83L266.272 2024.58L187.149 1976.37L284.192 1842.08L139.172 1890.42Z" fill="#351F74"/>
<path d="M121.502 2237L140.002 2246L154.591 2302.08L121.502 2332V2237Z" fill="#351F74"/>
<path d="M236.266 706.251L237.495 708.605L261.27 754.168L199.595 775.001L159.172 760.001L157.922 738.335L167.507 731.251H199.595L225.188 713.803L236.266 706.251Z" fill="#5626A5"/>
<path d="M173.341 844.585L205.012 837.501L218.764 898.751L189.177 909.585L162.506 888.751L155.422 837.501L173.341 844.585Z" fill="#5626A5"/>
<path d="M113 1251L85 1282.5L78 1319.5L85 1370L132 1385.5L113 1251Z" fill="#5626A5"/>
<path d="M95.5 1553L85 1422L132 1566V1666.06L261.27 1887.92L231.266 1904.17L147.921 1893.75C128.196 1882.5 124.584 1834.73 124.584 1831C124.584 1824.44 124.002 1814.37 123.277 1801.84C121.594 1772.74 119.146 1730.41 121.45 1688.18L95.5 1621V1553Z" fill="#5626A5"/>
<path d="M205.012 450.418L193.761 461.668L177.508 463.751L173.758 475.835L193.761 499.585H220.848L245.851 467.085L205.012 450.418Z" fill="#5626A5"/>
<path d="M244.184 616.668L270.021 620.835L290.441 607.085L231.682 552.085L210.43 560.835L183.342 556.668L201.678 585.001L244.184 616.668Z" fill="#5626A5"/>
<path d="M132 944L159 957L163 1019.5L118 1014L105 979.5L113 927.5L132 944Z" fill="#5626A5"/>
<path d="M96.5 1086L120 1076.5L149 1161.5L128.5 1170.5L103.5 1156.5L81 1129V1081L96.5 1086Z" fill="#5626A5"/>
<path d="M96.5 1086L120 1076.5L149 1161.5L128.5 1170.5L103.5 1156.5L81 1129V1081L96.5 1086Z" fill="url(#paint2_radial_1655_7166)"/>
<path d="M199.595 2525.42L180.426 2490.83H222.932L548.81 2613.75L474.633 2635.83L437.961 2631.25L403.79 2621.25L372.119 2607.5L339.614 2601.67L326.696 2588.33L313.777 2571.25L290.441 2567.08L260.02 2571.25L240.017 2560L222.932 2554.17H234.183L242.518 2545L231.683 2548.33L199.595 2525.42Z" fill="url(#paint3_radial_1655_7166)"/>
<path d="M95.5 1035.5L82 1080.5L95.5 1086L128.5 1075.5L157.5 1015H117.5L95.5 1035.5Z" fill="url(#paint4_linear_1655_7166)"/>
<path d="M1551.49 1785L1483.56 1744.58C1500.65 1823.75 1538.15 1990.25 1551.49 2022.92C1564.82 2055.58 1569.55 1970.69 1570.24 1924.17L1551.49 1785Z" fill="url(#paint5_linear_1655_7166)"/>
<path d="M1569.41 190.001L1586.49 226.251L1526.49 249.585L1492.73 237.501L1521.07 186.251L1541.07 190.001H1569.41Z" fill="#351F74"/>
<path d="M1583.16 298.751L1566.08 348.751L1535.65 355.835L1499.4 343.335L1526.49 287.918L1541.07 300.418L1583.16 298.751Z" fill="#351F74"/>
<path d="M1520.24 2277.08L1431.06 2301.25L1309.37 2246.25L1372.72 2131.25L1563.99 2119.17L1528.99 2194.58L1520.24 2277.08Z" fill="#351F74"/>
<path d="M1614 1328.33C1532.74 1296.39 1554.82 1287.08 1534.82 1282.08L1578.16 1400.83L1591.49 1409.58L1601.08 1385L1614 1328.33Z" fill="url(#paint6_linear_1655_7166)"/>
<path d="M1567.32 1534.17C1567.32 1540.17 1542.04 1549.3 1523.98 1551.67L1534.82 1483.33L1567.32 1500C1570.94 1509.86 1567.32 1528.17 1567.32 1534.17Z" fill="url(#paint7_linear_1655_7166)"/>
<path d="M1671.5 1021L1650 1042L1632 1011.5V934.5L1683.5 944.5L1671.5 1021Z" fill="url(#paint8_linear_1655_7166)"/>
<path d="M1691 850.5C1683 831 1666.6 791.5 1665 789.5L1650 796.5L1665 838L1691 863V850.5Z" fill="url(#paint9_linear_1655_7166)"/>
<path d="M1566.5 546.5L1591 649L1648 656.5L1608.87 628.5L1613.5 609.5V536.5L1587.5 564.5L1566.5 546.5Z" fill="url(#paint10_linear_1655_7166)"/>
<path d="M1564 550L1589 566L1618 536.5L1673 442.5L1627 452H1589L1564 550Z" fill="#5626A5"/>
<path d="M1629.5 937.5L1687 859L1696 866H1711.5L1716 874L1683 947.5H1657.5L1629.5 937.5Z" fill="#5626A5"/>
<path d="M1695.5 721.5L1683 773.5L1666 795.5H1651.5L1672.5 719L1683 726.5L1695.5 721.5Z" fill="#5626A5"/>
<path d="M1581.08 1142.5L1570.24 1331.25L1588.16 1346.25L1625.25 1335L1686.5 1214L1691 1142.5H1581.08Z" fill="#5626A5"/>
<path d="M1570.24 1503.33C1564.69 1507.5 1553.16 1514.58 1551.49 1509.58C1550.78 1507.44 1548.59 1503.14 1546.06 1498.16L1546.06 1498.16C1541.22 1488.63 1535.11 1476.61 1535.66 1472.5C1536.32 1467.5 1552.74 1410.83 1563.99 1386.25L1590.66 1409.58L1599.41 1412.92L1597.33 1461.67L1570.24 1503.33Z" fill="#5626A5"/>
<path d="M1385.22 2135L1501.07 2006.67L1562.33 2010L1599 2045V2079.58L1562.33 2121.67L1471.9 2163.75L1385.22 2135Z" fill="#5626A5"/>
<path d="M1503.57 1758.75L1551.07 1785L1574.41 1770.83L1591.91 1722.08L1581.91 1695L1547.32 1675.83L1503.57 1758.75Z" fill="#5626A5"/>
<path d="M1456.06 2378.75L1504.4 2418.75L1540.24 2423.75L1596.91 2409.17L1556.49 2439.17L1540.24 2460L1504.4 2467.5L1456.06 2460V2378.75Z" fill="#5626A5"/>
<path d="M1403.55 2702.5L1442.31 2717.5L1480.23 2694.58H1518.15L1548.99 2655.83L1566.91 2619.58L1589 2603.75L1602.33 2582.92L1572.74 2595.42L1544.41 2600L1518.15 2577.92L1366.88 2619.58L1403.55 2702.5Z" fill="#5626A5"/>
<path d="M1581.08 1142.5L1570.24 1331.25L1588.16 1346.25L1625.25 1335L1686.5 1214L1691 1142.5H1581.08Z" fill="url(#paint11_radial_1655_7166)"/>
<path d="M1564 550L1589 566L1618 536.5L1673 442.5L1627 452H1589L1564 550Z" fill="url(#paint12_radial_1655_7166)"/>
<path d="M1385.22 2135L1501.07 2006.67L1562.33 2010L1599 2045V2079.58L1562.33 2121.67L1471.9 2163.75L1385.22 2135Z" fill="url(#paint13_radial_1655_7166)"/>
<path d="M1621.5 452.5H1598.5L1508 348L1535.5 355.5L1564.5 348L1673.5 443L1621.5 452.5Z" fill="url(#paint14_linear_1655_7166)"/>
<path d="M540 109.854L589.173 147.708L597.508 233.5L611.259 251.833L630.012 255.583V286.417L659.599 358.917L673.768 370.135L697.521 155.167L716.691 181L741.694 169.971L753.779 128.083L808.787 103.917L871.295 128.083L913.801 169.971L942.138 155.167H975.476L990.895 128.083L1028.4 142.621L1062.99 284.333L1077.16 265.583L1095.91 109.854L1110.49 73.5L1151.75 59.75M1583.71 -9H143.711" stroke="black"/>
<path d="M1104.24 105.168L1079.24 121.001L1070.07 253.918L1079.24 286.001L1115.91 151.418L1104.24 105.168Z" fill="#351F74"/>
<path d="M583.338 223.501L565.836 228.918L594.173 271.001L651.264 371.418L668.767 339.751L618.76 271.001L632.512 261.835L625.011 241.835L608.759 228.918L583.338 223.501Z" fill="#351F74"/>
<path d="M751.695 126.835L732.942 163.501L747.111 171.835L768.781 151.418L751.695 126.835Z" fill="#351F74"/>
<path d="M981.727 163.501L967.558 146.001L992.145 126.835L981.727 163.501Z" fill="#351F74"/>
<path d="M180.426 2490.81L199.595 2525.39L231.683 2548.31L242.518 2544.98L234.183 2554.14H222.932L240.017 2559.98L260.02 2571.23L290.441 2567.06L313.778 2571.23L326.696 2588.31L339.614 2601.64L372.119 2607.48L403.79 2621.23L437.961 2631.23L474.633 2635.81L522.973 2695.39L600.484 2727.48L588.815 2739.14L571.73 2748.73H596.316L616.319 2739.14H720.5L748.004 2745.39L767.59 2760.81L797.594 2772.89L1228.62 2784.56L1281.13 2796.64H1350.72L1380.73 2784.56L1412.4 2780.81L1400.31 2761.64L1431.15 2742.06L1445.32 2712.48L1543.66 2648.31L1557 2607.06L1544.45 2597.87L1534.5 2553.31L1529.08 2518.73L1539.08 2459.98L1454.07 2457.06L1513.66 2577.89L1514.97 2578.82L222.932 2490.81H180.426Z" fill="#351F74"/>
<path d="M1400.72 2702.48L1439.48 2717.48L1477.4 2694.56H1515.32L1546.16 2655.81L1564.08 2619.56L1586.16 2603.73L1599.5 2582.89L1569.91 2595.39L1541.58 2599.98L1515.32 2577.89L1364.05 2619.56L1400.72 2702.48Z" fill="#5626A5"/>
<path d="M199.595 2525.39L180.426 2490.81H222.932L548.81 2613.73L474.633 2635.81L437.961 2631.23L403.79 2621.23L372.119 2607.48L339.614 2601.64L326.696 2588.31L313.777 2571.23L290.441 2567.06L260.02 2571.23L240.017 2559.98L222.932 2554.14H234.183L242.518 2544.98L231.683 2548.31L199.595 2525.39Z" fill="url(#paint15_radial_1655_7166)"/>
</g>
<defs>
<linearGradient id="paint0_linear_1655_7166" x1="170.425" y1="2419.17" x2="235.841" y2="2492.93" gradientUnits="userSpaceOnUse">
<stop offset="0.345" stop-color="#351F74"/>
<stop offset="1" stop-color="#22628A"/>
</linearGradient>
<linearGradient id="paint1_linear_1655_7166" x1="197.094" y1="2285.42" x2="197.094" y2="2448.33" gradientUnits="userSpaceOnUse">
<stop offset="0.32" stop-color="#5626A5"/>
<stop offset="1" stop-color="#3972A5"/>
</linearGradient>
<radialGradient id="paint2_radial_1655_7166" cx="0" cy="0" r="1" gradientUnits="userSpaceOnUse" gradientTransform="translate(120.5 1118.5) rotate(68.0968) scale(52.2733 37.8147)">
<stop offset="0.295" stop-color="#EC5BCC"/>
<stop offset="1" stop-color="#5626A5"/>
</radialGradient>
<radialGradient id="paint3_radial_1655_7166" cx="0" cy="0" r="1" gradientUnits="userSpaceOnUse" gradientTransform="translate(320.445 2547.5) rotate(18.4326) scale(197.667 54.6065)">
<stop offset="0.205" stop-color="#47C3BB"/>
<stop offset="1" stop-color="#351F74"/>
</radialGradient>
<linearGradient id="paint4_linear_1655_7166" x1="119.75" y1="1015" x2="131" y2="1073" gradientUnits="userSpaceOnUse">
<stop stop-color="#351F74"/>
<stop offset="1" stop-color="#EB5ACB"/>
</linearGradient>
<linearGradient id="paint5_linear_1655_7166" x1="1589.41" y1="1889.17" x2="1548.79" y2="2030.22" gradientUnits="userSpaceOnUse">
<stop stop-color="#351F74"/>
<stop offset="1" stop-color="#FDA74E"/>
</linearGradient>
<linearGradient id="paint6_linear_1655_7166" x1="1589.41" y1="1889.17" x2="1548.79" y2="2030.22" gradientUnits="userSpaceOnUse">
<stop stop-color="#351F74"/>
<stop offset="1" stop-color="#FDA74E"/>
</linearGradient>
<linearGradient id="paint7_linear_1655_7166" x1="1589.41" y1="1889.17" x2="1548.79" y2="2030.22" gradientUnits="userSpaceOnUse">
<stop stop-color="#351F74"/>
<stop offset="1" stop-color="#FDA74E"/>
</linearGradient>
<linearGradient id="paint8_linear_1655_7166" x1="1589.41" y1="1889.17" x2="1548.79" y2="2030.22" gradientUnits="userSpaceOnUse">
<stop stop-color="#351F74"/>
<stop offset="1" stop-color="#FDA74E"/>
</linearGradient>
<linearGradient id="paint9_linear_1655_7166" x1="1589.41" y1="1889.17" x2="1548.79" y2="2030.22" gradientUnits="userSpaceOnUse">
<stop stop-color="#351F74"/>
<stop offset="1" stop-color="#FDA74E"/>
</linearGradient>
<linearGradient id="paint10_linear_1655_7166" x1="1589.41" y1="1889.17" x2="1548.79" y2="2030.22" gradientUnits="userSpaceOnUse">
<stop stop-color="#351F74"/>
<stop offset="1" stop-color="#FDA74E"/>
</linearGradient>
<radialGradient id="paint11_radial_1655_7166" cx="0" cy="0" r="1" gradientUnits="userSpaceOnUse" gradientTransform="translate(1641.5 1235.5) rotate(126.411) scale(137.304 81.3762)">
<stop offset="0.156667" stop-color="#9CFAF1"/>
<stop offset="0.99" stop-color="#5626A5"/>
</radialGradient>
<radialGradient id="paint12_radial_1655_7166" cx="0" cy="0" r="1" gradientUnits="userSpaceOnUse" gradientTransform="translate(1597 494.5) rotate(117.708) scale(78.5016 69.2848)">
<stop offset="0.48" stop-color="#80E5D5"/>
<stop offset="1" stop-color="#5626A5"/>
</radialGradient>
<radialGradient id="paint13_radial_1655_7166" cx="0" cy="0" r="1" gradientUnits="userSpaceOnUse" gradientTransform="translate(1492.11 2085.21) rotate(90) scale(78.5417 106.89)">
<stop offset="0.64" stop-color="#DDA980"/>
<stop offset="1" stop-color="#5626A5"/>
</radialGradient>
<linearGradient id="paint14_linear_1655_7166" x1="1590.75" y1="348" x2="1590.75" y2="452.5" gradientUnits="userSpaceOnUse">
<stop stop-color="#0B004B"/>
<stop offset="1" stop-color="#74E1D3"/>
</linearGradient>
<radialGradient id="paint15_radial_1655_7166" cx="0" cy="0" r="1" gradientUnits="userSpaceOnUse" gradientTransform="translate(320.445 2547.48) rotate(18.4326) scale(197.667 54.6065)">
<stop offset="0.205" stop-color="#47C3BB"/>
<stop offset="1" stop-color="#351F74"/>
</radialGradient>
</defs>
</svg>
