<svg width="430" height="1065" viewBox="0 0 430 1065" fill="none" xmlns="http://www.w3.org/2000/svg">
<g clip-path="url(#clip0_1563_8499)">
<path d="M505.212 166.221V0H-324.984V167.273L-162.189 125.986L-142.895 80.0952L-55.2936 149.061L-51.4072 192.903L-44.986 203.02L-37.3819 139.45L-23.3566 101.679L-37.3819 76.7228L-29.8044 59.9132L0.97641 42.9985L18.7192 68.2917L35.2792 72.8445L43.2212 101.679L56.7395 84.3553L64.3436 58.0058L83.9452 38.1085L135.315 44.5161L154.241 69.1348L174.856 77.7345L182.629 167.273L197.837 192.734L212.707 89.0322L228.591 80.0952L241.096 96.2829L254.614 92.5732L262.725 67.4486L273.033 63.9076L292.803 84.3553L325.078 98.9808L339.273 146.532L458.379 149.061L505.212 166.221Z" fill="#0B004B" stroke="black"/>
<path d="M377.824 567.16L377.808 567.149L377.847 566.973L377.808 566.946L381.858 549.318L382.149 549.371L382.183 549.23L380.969 542.7L358.164 483.275L368.492 475.581L363.442 448.417L362.821 447.803L358.974 421.461L368.243 427.122L389.907 329.024L425.071 287.279L425.226 286.876L401.448 235.199L359.929 215.469L345.608 234.033L287.487 249.635C287.775 281.976 274.4 344.398 269.322 361.464C264.244 378.53 263.908 427.048 264.375 449.173L252.72 433.228L236.315 281.299L247.815 162.293L247.972 162.266L208.823 143.662L194.33 216.201L175.902 195.128L165.371 136.975L144.107 143.662L121.217 102.03L97 64.262V0H735.446V1065H208.823H133.107V1046.59L209.991 990.462L324.335 907.984L404.747 920.513L441.194 818.405L425.089 719.304L379.63 666.638L362.214 626.924L377.807 567.149L377.824 567.16Z" fill="#0B004B"/>
<path fill-rule="evenodd" clip-rule="evenodd" d="M180.762 119.144L165.371 136.975L175.901 195.331L194.33 216.201L185.014 187.428L180.762 119.144ZM416.285 336.966L380.035 339.397L359.379 422.068L363.226 447.802L382.668 467.254L403.324 464.62L415.475 458.338L406.159 438.481V407.885L416.285 336.966ZM357.758 483.465L378.617 487.112L388.54 548.913L386.313 550.331L382.06 549.318L357.758 483.465ZM247.591 161.695L252.654 143.661L267.235 134.341L271.69 174.866L252.654 257.334V433.213L235.441 283.068L247.591 161.695ZM209.924 990.435L215.391 1018.6L235.035 1015.36L241.718 1040.08V1065H258.324L266.425 1036.23L297.207 977.669L324.344 907.966L258.527 945.249L209.924 990.435ZM181.774 1053.25L195.95 1046.36L135.804 1036.43L132.969 1046.56L148.967 1053.86L181.774 1053.25Z" fill="#351F74"/>
<path fill-rule="evenodd" clip-rule="evenodd" d="M425.196 286.918L439.575 291.376V327.24L413.653 353.582L379.833 339.398L425.196 286.918ZM347.634 459.961L363.227 447.803L382.263 466.85L402.717 464.216L415.475 458.34L403.73 478.197L377.808 487.315L357.759 483.465L347.634 459.961ZM296.803 977.669L258.731 945.046L324.345 907.763L353.709 903.103L439.575 925.797L465.294 959.838L439.575 987.598H389.554L296.803 977.669ZM227.138 1039.27L195.344 1046.36L135.805 1036.43L164.562 1020.62L214.177 1011.71L235.036 1015.36L227.138 1039.27Z" fill="#5626A5"/>
<path d="M385.404 549H381.522L358 620.582L368.505 641H385.404C387.84 628.014 392.94 601.712 393.853 600.398C394.767 599.084 391.189 565.585 389.286 549H385.404Z" fill="url(#paint0_radial_1563_8499)"/>
<path d="M225.029 1003.09L225.105 1003.15V1094H-320.387V0H14.23V98.3311L22.0446 136.959L26.4028 163.393L19.8288 191.127L14.59 221.384L26.4028 247.899V259.582L43.213 314.921L42.798 362.794L24.0221 383.681L7.1022 407.544L2.95154 458.331L-4.10464 478.105L-20.7074 501.833V525.353L-6.64795 575.212L-5.09488 575.408L29.3694 620.335L16.9695 649.936L29.3694 695.877L3.17694 789.268L27.4405 803.433L63.9665 895.849L141.999 911.667L225.029 1003.09Z" fill="#0B004B"/>
<path d="M-5.58394 206.712C-5.16098 201.189 -4.81042 196.612 -4.31214 194.613C-3.55019 191.556 -0.99299 188.514 1.42217 185.641C3.74332 182.879 5.93328 180.274 6.2723 177.961L14.3661 160.686V139.247L22.0449 136.541L26.6107 163.391L14.5737 222.088L3.36683 232.287L-10.7455 238.115C-7.56395 232.565 -6.42933 217.75 -5.58394 206.712Z" fill="#351F74"/>
<path d="M56.4956 257.265L46.7415 260.387H26.6107L42.7984 314.712V362.793L53.5901 302.015L56.4956 257.265Z" fill="#351F74"/>
<path d="M216.919 1016.15L138.264 956.002L141.792 911.459L225.013 1003.04L216.919 1016.15Z" fill="#351F74"/>
<path d="M0.253696 631.298L-2.85932 650.031L1.91397 657.108L17.064 650.239L29.516 620.267L0.253696 631.298Z" fill="#351F74"/>
<path d="M3.57429 787.821L11.6681 710.808L29.5161 695.822L3.57429 787.821Z" fill="#351F74"/>
<path d="M-7.42508 580.51L-17.3867 537.633L-5.1422 575.307L-7.42508 580.51Z" fill="#351F74"/>
<path d="M-0.368668 87.6279L14.3663 98.4514L22.045 136.75L14.5738 139.039L-8.25497 112.397L-0.368668 87.6279Z" fill="#5626A5"/>
<path d="M56.7032 257.056L14.5738 221.464L3.57449 231.871L-10.7454 237.491L-4.10427 246.025L3.57449 247.898L20.1772 254.767L26.6108 260.386H46.5341L56.7032 257.056Z" fill="#5626A5"/>
<path d="M16.0265 930.192L63.7594 895.64L141.792 911.459L138.264 956.002L43.6286 995.965L-17.3865 982.644L-41.668 956.002L-17.3865 928.319L16.0265 930.192Z" fill="#5626A5"/>
<path d="M-17.3866 796.98L3.36683 789.07L27.4408 803.432L3.98944 826.744L-17.3866 819.043V796.98Z" fill="#5626A5"/>
<path d="M-17.3866 584.05V607.362L0.253822 631.298H8.76272L29.5161 620.267L-5.14207 575.308L-7.42494 580.511L-17.3866 584.05Z" fill="#5626A5"/>
<path d="M3.57448 707.686L-4.10428 705.397L-8.25497 699.777L-6.80223 677.297L1.91421 657.316L17.0642 650.239L29.5163 695.822L11.6683 710.808L3.57448 707.686Z" fill="#5626A5"/>
<path d="M91.926 899.123L103.058 896.915L132.755 903.06L142.89 920.553L128.748 956.484L82.0818 979.413L46.9639 990.523L13.4959 986.741L-21.6219 970.667L-5.05962 932.761L15.4705 925.692L42.1035 903.06L91.926 899.123Z" fill="url(#paint1_radial_1563_8499)"/>
<path d="M-22 597L-7.5 575L-5 573.5L30 620L10.5 632L-0.5 630.5L-22 597Z" fill="url(#paint2_linear_1563_8499)"/>
<mask id="mask0_1563_8499" style="mask-type:alpha" maskUnits="userSpaceOnUse" x="272" y="34" width="136" height="120">
<path d="M279.994 49.2385L310.168 34.6494L369.504 41.9439L392.388 75.7824L407.982 137.786L364.037 153.388L318.471 142.446L272.703 90.3715L279.994 49.2385Z" fill="#5626A5"/>
</mask>
<g mask="url(#mask0_1563_8499)">
<path d="M279.994 49.2385L310.168 34.6494L369.504 41.9439L392.388 75.7824L407.982 137.786L364.037 153.388L318.471 142.446L272.703 90.3715L279.994 49.2385Z" fill="url(#paint3_radial_1563_8499)"/>
<path d="M339.801 66.2177L331.76 43.7687H318.322L303.734 48.3379L292.707 50.3246L269.275 82.1109L267.438 23.5049L399.989 26.0875L415.272 144.472L362.314 155.617L399.989 138.333V110.52V96.8121L394.008 79.0243L381.841 66.2177L376.787 67.6084L369.435 62.2445L365.99 48.3379L356.801 50.3246L351.976 68.6017L347.841 74.7603L339.801 66.2177Z" fill="#0B004B"/>
<path d="M277.666 66.1963L273.63 79.6221L290.177 57.6525L292.397 51.5499H299.863L318.63 45.4472L322.263 44.0233L331.142 46.8712L336.187 55.6183L332.151 44.0233L330.133 42.8027L315.805 43.413L306.724 46.8712L290.177 50.7362L288.966 54.6012L277.666 66.1963Z" fill="#4C63AB"/>
<path d="M358 50.3191L354.818 46V56.695L351.636 64.922V67.5957L348 75L352.773 68.8298L358 50.3191Z" fill="#4C63AB"/>
<path d="M383.939 63.8579L382 65.7158L391.888 77.8954L392.857 85.9464L398.092 106.59L398.577 122.588L400.031 139L401 114.021L399.061 95.4424V89.8686L394.02 74.5925L384.714 62L383.939 63.8579Z" fill="#4C63AB"/>
<path d="M367.453 50L366 49L368.906 62.2L377 68L371.396 62.2L367.453 50Z" fill="#4C63AB"/>
</g>
</g>
<defs>
<radialGradient id="paint0_radial_1563_8499" cx="0" cy="0" r="1" gradientUnits="userSpaceOnUse" gradientTransform="translate(370.103 601.337) rotate(106.667) scale(41.4028 16.0695)">
<stop offset="0.43" stop-color="#EE8AD6"/>
<stop offset="1" stop-color="#5626A5"/>
</radialGradient>
<radialGradient id="paint1_radial_1563_8499" cx="0" cy="0" r="1" gradientUnits="userSpaceOnUse" gradientTransform="translate(56.5 914) rotate(82.0928) scale(90.8639 98.4978)">
<stop offset="0.0748681" stop-color="#EC9850"/>
<stop offset="0.801926" stop-color="#5626A5"/>
</radialGradient>
<linearGradient id="paint2_linear_1563_8499" x1="4" y1="573.5" x2="15.5" y2="636.5" gradientUnits="userSpaceOnUse">
<stop stop-color="#FC8BD8"/>
<stop offset="1" stop-color="#351F74"/>
</linearGradient>
<radialGradient id="paint3_radial_1563_8499" cx="0" cy="0" r="1" gradientUnits="userSpaceOnUse" gradientTransform="translate(340.343 118.942) rotate(90) scale(65.4481 74.5649)">
<stop stop-color="#3FB9B4"/>
<stop offset="0.7" stop-color="#5626A5"/>
</radialGradient>
<clipPath id="clip0_1563_8499">
<rect width="430" height="1065" fill="white"/>
</clipPath>
</defs>
</svg>
