<svg width="1728" height="2555" viewBox="0 0 1728 2555" fill="none" xmlns="http://www.w3.org/2000/svg">
<g clip-path="url(#clip0_1563_9034)">
<g clip-path="url(#clip1_1563_9034)">
<path d="M287.77 140.627L399.024 166.533L568.502 140.627L973.5 224.5H1726V1H0V225.5H184.5L287.77 140.627Z" fill="#0B004B"/>
<path d="M1182.15 2173.05L910.759 2125.55L632.221 2142.82L632.061 2142.71L37 2039L-216 2125.54H-525V3095.5H1728V2142.82C1583.83 2125.38 1462.2 2134.02 1421 2142.82C1379.8 2151.62 1384.43 2152.87 1182.15 2173.05Z" fill="#0B004B"/>
<path d="M1542.52 1253.31L1542.49 1253.28L1542.57 1252.9L1542.49 1252.84L1551.29 1214.54L1551.92 1214.66L1552 1214.35L1549.36 1200.16L1499.78 1071.05L1522.23 1054.33L1511.26 995.308L1509.91 993.972L1501.54 936.738L1521.69 949.037L1568.79 735.894L1645.24 645.191L1645.58 644.316L1593.88 532.034L1503.62 489.164L1472.48 529.5L1346.13 563.4C1346.75 633.669 1317.68 769.297 1306.64 806.378C1295.6 843.459 1294.87 948.877 1295.88 996.95L1270.54 962.304L1234.88 632.197L1259.88 373.626L1260.22 373.566L1175.11 333.143L1143.6 490.756L1103.54 444.969L1080.64 318.615L1034.42 333.143L984.653 242.688L932.004 160.627V-0.5H1727.5V2335H1175.11H1010.5V2295L1177.65 2173.05L1426.24 1993.84L1601.05 2021.06L1680.29 1799.21L1645.28 1583.88L1546.45 1469.45L1508.59 1383.16L1542.49 1253.29L1542.52 1253.31Z" fill="#0B004B"/>
<path d="M635.061 2142.71L635.221 2142.83V2335H0V21H187.865V228.987L204.444 310.692L213.689 366.605L199.743 425.267L188.629 489.265L213.689 545.35V570.062L249.351 687.113L248.47 788.373L208.639 832.552L172.744 883.027L163.939 990.45L148.97 1032.27L113.748 1082.46V1132.21L143.574 1237.67L146.869 1238.09L219.983 1333.12L193.677 1395.73L219.983 1492.9L164.417 1690.44L215.891 1720.4L293.378 1915.88L458.919 1949.34L635.061 2142.71Z" fill="#0B004B"/>
<path d="M145.832 458.232C146.729 446.551 147.473 436.869 148.53 432.641C150.146 426.175 155.571 419.74 160.695 413.663C165.619 407.822 170.265 402.311 170.984 397.42L188.154 360.879V315.532L204.444 309.809L214.13 366.602L188.595 490.755L164.82 512.328L134.882 524.655C141.631 512.917 144.038 481.581 145.832 458.232Z" fill="#351F74"/>
<path d="M277.529 565.16L256.836 571.764H214.13L248.471 686.672V788.371L271.365 659.816L277.529 565.16Z" fill="#351F74"/>
<path d="M617.857 2170.34L450.995 2043.11L458.479 1948.89L635.027 2142.61L617.857 2170.34Z" fill="#351F74"/>
<path d="M158.216 1356.31L151.612 1395.93L161.738 1410.9L193.878 1396.37L220.294 1332.97L158.216 1356.31Z" fill="#351F74"/>
<path d="M165.26 1687.38L182.431 1524.48L220.294 1492.79L165.26 1687.38Z" fill="#351F74"/>
<path d="M141.926 1248.88L120.793 1158.19L146.769 1237.87L141.926 1248.88Z" fill="#351F74"/>
<path d="M156.895 206.348L188.154 229.241L204.444 310.249L188.594 315.092L140.165 258.738L156.895 206.348Z" fill="#5626A5"/>
<path d="M277.969 564.718L188.594 489.434L165.26 511.447L134.881 523.334L148.97 541.384L165.26 545.346L200.481 559.875L214.13 571.762H256.396L277.969 564.718Z" fill="#5626A5"/>
<path d="M191.676 1988.52L292.938 1915.43L458.479 1948.89L450.994 2043.11L250.232 2127.64L120.793 2099.46L69.2812 2043.11L120.793 1984.55L191.676 1988.52Z" fill="#5626A5"/>
<path d="M120.792 1706.75L164.819 1690.02L215.891 1720.4L166.14 1769.71L120.792 1753.42V1706.75Z" fill="#5626A5"/>
<path d="M120.792 1256.37V1305.67L158.215 1356.3H176.266L220.293 1332.97L146.768 1237.88L141.925 1248.88L120.792 1256.37Z" fill="#5626A5"/>
<path d="M165.26 1517.88L148.97 1513.04L140.165 1501.15L143.246 1453.6L161.738 1411.34L193.877 1396.37L220.293 1492.78L182.43 1524.48L165.26 1517.88Z" fill="#5626A5"/>
<path d="M120.793 1256.37V1305.67L158.216 1356.3H176.267L220.294 1332.97L146.769 1237.88L141.926 1248.88L120.793 1256.37Z" fill="url(#paint0_radial_1563_9034)"/>
<path d="M352.695 1922.8L376.311 1918.13L439.311 1931.13L460.811 1968.13L430.811 2044.13L331.811 2092.63L257.311 2116.13L186.311 2108.13L111.811 2074.13L146.947 1993.95L190.5 1979L247 1931.13L352.695 1922.8Z" fill="url(#paint1_radial_1563_9034)"/>
<path fill-rule="evenodd" clip-rule="evenodd" d="M1114.1 279.871L1080.64 318.614L1103.54 445.408L1143.6 490.755L1123.35 428.238L1114.1 279.871ZM1626.14 753.148L1547.33 758.432L1502.42 938.057L1510.79 993.97L1553.05 1036.23L1597.96 1030.51L1624.37 1016.86L1604.12 973.718V907.239L1626.14 753.148ZM1498.9 1071.46L1544.25 1079.38L1565.82 1213.66L1560.98 1216.74L1551.73 1214.54L1498.9 1071.46ZM1259.39 372.326L1270.4 333.143L1302.1 312.891L1311.78 400.942L1270.4 580.128V962.272L1232.98 636.041L1259.39 372.326ZM1177.5 2172.99L1189.39 2234.18L1232.09 2227.14L1246.62 2280.85V2335H1282.73L1300.34 2272.48L1367.26 2145.25L1426.25 1993.8L1283.17 2074.81L1177.5 2172.99ZM1116.3 2309.46L1147.12 2294.49L1016.36 2272.92L1010.2 2294.93L1044.98 2310.78L1116.3 2309.46Z" fill="#351F74"/>
<path d="M1498.9 1071.46L1544.25 1079.38L1565.82 1213.66L1560.98 1216.74L1551.73 1214.54L1498.9 1071.46Z" fill="url(#paint2_linear_1563_9034)"/>
<path fill-rule="evenodd" clip-rule="evenodd" d="M1645.51 644.406L1676.77 654.092V732.018L1620.41 789.251L1546.89 758.433L1645.51 644.406ZM1476.88 1020.39L1510.79 993.973L1552.17 1035.36L1596.64 1029.63L1624.37 1016.87L1598.84 1060.01L1542.48 1079.82L1498.9 1071.46L1476.88 1020.39ZM1366.38 2145.25L1283.61 2074.37L1426.25 1993.36L1490.09 1983.23L1676.77 2032.54L1732.68 2106.51L1676.77 2166.82H1568.02L1366.38 2145.25ZM1214.92 2279.09L1145.8 2294.5L1016.36 2272.92L1078.88 2238.58L1186.75 2219.21L1232.1 2227.14L1214.92 2279.09Z" fill="#5626A5"/>
<path d="M1558.5 1212H1550L1498.5 1364.5L1521.5 1408H1558.5C1563.83 1380.33 1575 1324.3 1577 1321.5C1579 1318.7 1571.17 1247.33 1567 1212H1558.5Z" fill="url(#paint3_radial_1563_9034)"/>
<mask id="mask0_1563_9034" style="mask-type:alpha" maskUnits="userSpaceOnUse" x="1313" y="96" width="296" height="259">
<path d="M1329.83 127.984L1395.43 96.2852L1524.43 112.134L1574.18 185.658L1608.08 320.377L1512.55 354.277L1413.49 330.503L1313.98 217.356L1329.83 127.984Z" fill="#5626A5"/>
</mask>
<g mask="url(#mask0_1563_9034)">
<path d="M1329.83 127.984L1395.43 96.2852L1524.43 112.134L1574.18 185.658L1608.08 320.377L1512.55 354.277L1413.49 330.503L1313.98 217.356L1329.83 127.984Z" fill="url(#paint4_radial_1563_9034)"/>
<path d="M1459.86 164.876L1442.38 116.099H1413.16L1381.45 126.027L1357.48 130.343L1306.53 199.408L1302.54 72.0703L1590.71 77.6818L1623.94 334.905L1508.8 359.119L1590.71 321.565V261.134V231.35L1577.71 192.701L1551.25 164.876L1540.27 167.897L1524.29 156.242L1516.79 126.027L1496.82 130.343L1486.33 170.055L1477.34 183.437L1459.86 164.876Z" fill="#0B004B"/>
<path d="M1324.78 164.829L1316 194L1351.98 146.265L1356.8 133.006H1373.03L1413.83 119.746L1421.73 116.652L1441.03 122.84L1452 141.845L1443.23 116.652L1438.84 114L1407.69 115.326L1387.95 122.84L1351.98 131.238L1349.34 139.635L1324.78 164.829Z" fill="#4C63AB"/>
<path d="M1499 124.5L1492 114V140L1485 160V166.5L1477 184.5L1487.5 169.5L1499 124.5Z" fill="#4C63AB"/>
<path d="M1551 153.5L1546 158L1571.5 187.5L1574 207L1587.5 257L1588.75 295.75L1592.5 335.5L1595 275L1590 230V216.5L1577 179.5L1553 149L1551 153.5Z" fill="#4C63AB"/>
<path d="M1519.5 125L1516 122.5L1523 155.5L1542.5 170L1529 155.5L1519.5 125Z" fill="#4C63AB"/>
</g>
</g>
</g>
<defs>
<radialGradient id="paint0_radial_1563_9034" cx="0" cy="0" r="1" gradientUnits="userSpaceOnUse" gradientTransform="translate(187 1267) rotate(66.8014) scale(68.542 57.5868)">
<stop offset="0.235" stop-color="#FC8DD9"/>
<stop offset="1" stop-color="#5626A5"/>
</radialGradient>
<radialGradient id="paint1_radial_1563_9034" cx="0" cy="0" r="1" gradientUnits="userSpaceOnUse" gradientTransform="translate(276.749 1936.23) rotate(116.469) scale(206.969 225.015)">
<stop stop-color="#EC9850"/>
<stop offset="0.731746" stop-color="#5626A5"/>
</radialGradient>
<linearGradient id="paint2_linear_1563_9034" x1="1532.36" y1="1071.46" x2="1532.36" y2="1216.74" gradientUnits="userSpaceOnUse">
<stop stop-color="#351F74"/>
<stop offset="1" stop-color="#8545B4"/>
</linearGradient>
<radialGradient id="paint3_radial_1563_9034" cx="0" cy="0" r="1" gradientUnits="userSpaceOnUse" gradientTransform="translate(1525 1323.5) rotate(105.127) scale(235.666 93.5703)">
<stop stop-color="#EE8AD6"/>
<stop offset="0.433506" stop-color="#5626A5"/>
</radialGradient>
<radialGradient id="paint4_radial_1563_9034" cx="0" cy="0" r="1" gradientUnits="userSpaceOnUse" gradientTransform="translate(1461.03 279.433) rotate(90) scale(142.204 162.106)">
<stop stop-color="#3FB9B4"/>
<stop offset="0.7" stop-color="#5626A5"/>
</radialGradient>
<clipPath id="clip0_1563_9034">
<rect width="1728" height="2555" fill="white"/>
</clipPath>
<clipPath id="clip1_1563_9034">
<rect width="2922" height="2555" fill="white" transform="translate(-597)"/>
</clipPath>
</defs>
</svg>
