<svg width="1577" height="4497" viewBox="0 0 1577 4497" fill="none" xmlns="http://www.w3.org/2000/svg">
<g clip-path="url(#clip0_1563_9086)">
<mask id="mask0_1563_9086" style="mask-type:alpha" maskUnits="userSpaceOnUse" x="0" y="0" width="1577" height="4497">
<path d="M521.21 0C547.998 17.325 582.704 40.1229 582.704 42.163C582.704 45.4661 765.582 42.163 765.582 42.163L933.649 67.681L1083.16 206.864L1073.89 279.457L1030.78 350.959L1050.97 412.563L1094.08 532.169L1135.55 502.15L1156.83 442.11L1195.57 399.536L1286.41 412.563L1334.17 480.317V602.034L1373.55 637.853L1408.39 836.188L1334.17 910.419L1310.59 1024.38L1334.82 1179.82L1228.28 1351.81L1089.17 1431.67L1053.94 1510.55V1586.62L971.632 1693.26L797.231 1750.43L702.283 1711.13L586.055 1750.43L540.697 1813.17L397.251 1841.28H264.706L193.715 1785.42L105.861 1743.33L37.1059 1758.61L0 1785.42L2.37064 4497L61.6612 4464.22L103.133 4374.7L195.352 4347.41L267.381 4304.84L389.612 4327.76L432.174 4374.7L414.167 4442.93L480.739 4497H1576.95V3938.06V3875.28L1528.98 3869.28L1494.6 3903.67L1441.13 3918.4L1375.65 4027.57L1195.57 4054.86L1102.4 4047.2L1057.52 4000.89H976.516L862.712 4054.86L676.297 4076.96L628.072 4000.89L550.416 3934.76L441.451 3884.56L371.243 3802.48L399.98 3762.3L390.635 3723.1L264.652 3650.41L217.844 3562.18L274.473 3506.86L327.949 3494.31L347.594 3461.56L264.652 3440.82L205.174 3405.34L190.986 3316.37L211.509 3240.27L274.473 3144.35V3029.82L255.081 2919.45L214.45 2866.07L133.69 2822.95L148.545 2744.16L206.673 2648.24L175.707 2593.17L133.69 2565.33L123.322 2484L164.248 2439.25L206.673 2527.67L271.2 2541.86L319.22 2484L326.859 2415.78L361.237 2378.66L390.682 2304.26L553.86 2278.78L627.936 2224.89L667.906 2114.49L744.846 2082.7L817.421 2153.24H915.097L956.568 2129.22L986.283 2082.7L1181.39 2050.08L1291.07 2114.49L1351.09 2251.49L1446.04 2270.04L1511.52 2202.91L1577 2181.27V0H521.21Z" fill="#633EA4"/>
</mask>
<g mask="url(#mask0_1563_9086)">
<path d="M1984.62 -198.13C1210.12 -248.527 -346.831 -344.518 -378.698 -325.305L-259.195 4474.04L1984.62 4744.77V-198.13Z" fill="#643EA4" stroke="black"/>
<path d="M642.805 -32.7489H516.754L502.566 92.2427L932.012 75.3224L816.875 38.7528L741.026 28.9282H652.081L619.341 19.6493L642.805 -32.7489Z" fill="#A468E2"/>
<path d="M1100.08 211.23L1077.71 203.589L977.304 411.544L1092.44 564.918V471.038L1077.71 423.552V359.146L1108.27 311.66V278.366V246.708L1129 203.589L1100.08 211.23Z" fill="#A468E2"/>
<path d="M1321.62 447.022L1301.43 438.835L1288.88 497.783L1395.84 766.87L1399.66 736.85L1395.84 653.886L1399.66 624.958L1383.29 604.763L1361.46 590.026L1352.73 550.181L1361.46 486.321L1321.62 447.022Z" fill="#A468E2"/>
<path d="M1416.57 841.646L1405.11 836.188L1352.18 859.658L1288.34 971.004L1317.26 1091.08L1323.81 1010.85L1343.45 981.921L1352.18 919.698L1374.01 895.136L1416.57 871.666L1436.22 836.188L1416.57 841.646Z" fill="#A468E2"/>
<path d="M1289.97 1272.84L1304.16 1221.53L1098.99 1382.55L1033.51 1492.8L1070.07 1521.19L1109.36 1516.27L1135 1492.8L1130.09 1453.5L1175.38 1406.02L1215.76 1390.74L1243.59 1362.9L1289.97 1272.84Z" fill="#A468E2"/>
<path d="M594.785 1776.08L626.98 1771.17L662.449 1740.6L702.829 1731.32L761.216 1746.06L796.139 1749.34L708.286 1689.84L542.4 1735.15L416.35 1836.67L560.408 1809.92L594.785 1776.08Z" fill="#A468E2"/>
<path d="M1022.05 1643.99L1035.15 1602.51L819.058 1714.4L770.493 1746.61L797.777 1758.07L831.063 1751.52L888.905 1730.78L946.746 1716.04L990.946 1696.94L997.494 1678.38L1022.05 1643.99Z" fill="#A468E2"/>
<path d="M30.0122 1788.63L-6.0023 1802.83L-16.3701 1788.63L61.1157 1722.59L490.562 1817.02L403.799 1854.13H337.227L266.289 1859.59L228.092 1836.12L186.621 1822.48L129.871 1796.82L106.952 1768.99L64.3897 1765.16L30.0122 1788.63Z" fill="#A468E2"/>
<path d="M1427.49 2241.12L1447.68 2275.5H1317.26L1168.29 2057.72L1203.76 2044.62L1251.23 2068.09L1298.71 2081.19L1329.26 2134.68L1355.46 2211.64L1382.74 2223.65L1427.49 2241.12Z" fill="#A468E2"/>
<path d="M936.923 2086.65L965.844 2074.64L1031.33 2059.36L1108.27 2054.45H1186.3L987.671 2119.4L874.171 2232.38L811.964 2171.8L832.7 2137.41L868.714 2141.23L912.914 2127.04L936.923 2086.65Z" fill="#A468E2"/>
<path d="M630.8 2117.22L669.542 2115.03L629.708 2258.04L607.881 2310.43L560.953 2303.34L551.677 2258.04L591.511 2211.64V2174.53L630.8 2117.22Z" fill="#A468E2"/>
<path d="M358.509 2314.25L392.34 2304.43L378.699 2456.71L275.02 2554.96L212.813 2532.03L266.29 2523.85L275.02 2489.46L299.03 2462.72V2413.59L325.768 2380.84L332.316 2352.46L358.509 2314.25Z" fill="#A468E2"/>
<path d="M111.863 2571.88L135.873 2563.69L224.272 2633.01L152.789 2750.91L162.611 2681.59L184.438 2648.84L162.611 2619.36L126.051 2607.9L111.863 2571.88Z" fill="#A468E2"/>
<path d="M136.965 2842.6V2822.95L296.302 2864.98L318.675 3119.33L225.91 3257.97L255.376 3141.71L249.374 3107.32L233.549 3041.28L236.823 2976.87L210.631 2899.37L162.612 2878.08L136.965 2842.6Z" fill="#A468E2"/>
<path d="M184.984 3410.25L207.902 3404.25L386.338 3435.36L327.405 3502.49L334.499 3464.83H323.585L284.843 3471.38L257.559 3460.47L218.816 3454.46L194.261 3430.99L153.335 3410.25H184.984Z" fill="#A468E2"/>
<path d="M274.474 3675.52L264.106 3644.95L396.705 3680.97L401.616 3764.48L376.515 3751.38L355.234 3730.64L308.306 3723.55L274.474 3675.52Z" fill="#A468E2"/>
<path d="M459.458 3909.13L440.359 3880.74H595.331L677.728 4077.78L628.617 4028.66L607.882 3996.46L560.408 3973.53L512.388 3931.5L459.458 3909.13Z" fill="#A468E2"/>
<path d="M913.46 4047.22L861.075 4054.31L877.991 4003.01L1038.42 3986.08L1068.98 4003.01L1045.51 4016.65H995.857L962.571 4031.93L913.46 4047.22Z" fill="#A468E2"/>
<path d="M1401.29 4022.11L1375.1 4027.02L1359.28 3928.23L1523.52 3849.63L1531.71 3882.38L1526.8 3904.21L1493.51 3928.23L1448.77 3941.87L1431.85 3989.36L1401.29 4022.11Z" fill="#A468E2"/>
<path d="M537.49 4486.05L625.889 4498.06L492.199 4542.82L383.609 4464.22L425.626 4368.7L440.36 4381.8L453.456 4444.02L492.199 4454.94L537.49 4486.05Z" fill="#A468E2"/>
<path d="M238.46 4298.84L283.751 4292.83L318.128 4305.39L354.143 4313.03L381.427 4331.59L192.077 4375.25L171.342 4343.59L212.813 4320.67L238.46 4298.84Z" fill="#A468E2"/>
<path d="M74.2115 4372.52L108.589 4374.71L87.8534 4469.13L-0.545898 4504.06L32.7403 4455.49L51.8389 4434.74L54.0216 4385.62L74.2115 4372.52Z" fill="#A468E2"/>
</g>
</g>
<defs>
<clipPath id="clip0_1563_9086">
<rect width="1577" height="4497" fill="white"/>
</clipPath>
</defs>
</svg>
