<svg width="430" height="1225" viewBox="0 0 430 1225" fill="none" xmlns="http://www.w3.org/2000/svg">
<g clip-path="url(#clip0_1729_7466)">
<mask id="mask0_1729_7466" style="mask-type:alpha" maskUnits="userSpaceOnUse" x="0" y="0" width="430" height="1225">
<path d="M142.118 0C149.422 4.71941 158.886 10.9296 158.886 11.4854C158.886 12.3851 208.751 11.4854 208.751 11.4854L254.578 18.4366L295.346 56.3505L292.817 76.1252L281.062 95.6025L286.567 112.384L298.322 144.965L309.63 136.787L315.433 120.432L325.997 108.835L350.764 112.384L363.789 130.84V163.996L374.526 173.754L384.024 227.781L363.789 248.002L357.357 279.045L363.964 321.387L334.914 368.237L296.983 389.993L287.378 411.48V432.201L264.935 461.25L217.381 476.823L191.491 466.118L159.799 476.823L147.432 493.915L108.318 501.572H72.1773L52.8201 486.355L28.8651 474.89L10.1176 479.053L0 486.355L0.646403 1225L16.8131 1216.07L28.1211 1191.69L53.2664 1184.25L72.9066 1172.66L106.235 1178.9L117.841 1191.69L112.931 1210.27L131.083 1225H429.987V1072.74V1055.64L416.907 1054.01L407.533 1063.37L392.952 1067.39L375.097 1097.12L325.997 1104.56L300.59 1102.47L288.353 1089.86H266.266L235.235 1104.56L184.406 1110.58L171.256 1089.86L150.082 1071.84L120.37 1058.17L101.227 1035.81L109.062 1024.87L106.514 1014.19L72.1626 994.385L59.3995 970.351L74.8405 955.282L89.4218 951.862L94.7782 942.941L72.1626 937.291L55.9446 927.627L52.0761 903.392L57.6721 882.662L74.8405 856.533V825.334L69.5529 795.269L58.474 780.729L36.4533 768.983L40.5036 747.519L56.3534 721.39L47.91 706.388L36.4533 698.805L33.6263 676.652L44.7855 664.46L56.3534 688.546L73.9481 692.412L87.0415 676.652L89.1246 658.067L98.4983 647.956L106.527 627.69L151.021 620.747L171.219 606.069L182.118 575.994L203.097 567.335L222.886 586.551H249.519L260.827 580.009L268.929 567.335L322.128 558.45L352.035 575.994L368.401 613.313L394.291 618.368L412.145 600.081L430 594.187V0H142.118Z" fill="#633EA4"/>
</mask>
<g mask="url(#mask0_1729_7466)">
<path d="M541.145 -53.9714C329.964 -67.6997 -94.5705 -93.848 -103.26 -88.6143L-70.675 1218.75L541.145 1292.49V-53.9714Z" fill="#643EA4" stroke="black"/>
<path d="M175.273 -8.9209H140.903L137.034 25.1273L254.131 20.5181L222.737 10.5564L202.055 7.88017H177.802L168.875 5.35258L175.273 -8.9209Z" fill="#A468E2"/>
<path d="M299.958 57.54L293.858 55.4585L266.48 112.106L297.875 153.886V128.313L293.858 115.377V97.8329L302.19 84.8975V75.8279V67.2044L307.844 55.4585L299.958 57.54Z" fill="#A468E2"/>
<path d="M360.367 121.771L354.862 119.541L351.439 135.598L380.602 208.898L381.644 200.721L380.602 178.121L381.644 170.241L377.18 164.74L371.228 160.725L368.848 149.872L371.228 132.476L360.367 121.771Z" fill="#A468E2"/>
<path d="M386.256 229.268L383.132 227.781L368.699 234.174L351.291 264.505L359.177 297.215L360.962 275.359L366.319 267.479L368.699 250.529L374.651 243.838L386.256 237.445L391.613 227.781L386.256 229.268Z" fill="#A468E2"/>
<path d="M351.737 346.727L355.606 332.75L299.661 376.612L281.807 406.645L291.776 414.377L302.488 413.039L309.481 406.645L308.142 395.94L320.492 383.005L331.502 378.842L339.09 371.259L351.737 346.727Z" fill="#A468E2"/>
<path d="M162.18 483.811L170.959 482.473L180.63 474.147L191.641 471.619L207.561 475.634L217.083 476.526L193.128 460.319L147.897 472.66L113.526 500.315L152.807 493.029L162.18 483.811Z" fill="#A468E2"/>
<path d="M278.682 447.83L282.252 436.53L223.332 467.01L210.09 475.782L217.529 478.905L226.605 477.12L242.377 471.471L258.149 467.456L270.201 462.252L271.986 457.197L278.682 447.83Z" fill="#A468E2"/>
<path d="M8.18319 487.231L-1.63688 491.096L-4.46387 487.231L16.6642 469.24L133.761 494.962L110.104 505.073H91.9514L72.6088 506.559L62.1936 500.166L50.8856 496.449L35.4116 489.461L29.1624 481.878L17.5569 480.837L8.18319 487.231Z" fill="#A468E2"/>
<path d="M389.231 610.488L394.737 619.855H359.176L318.557 560.531L328.228 556.963L341.173 563.356L354.117 566.925L362.449 581.495L369.591 602.46L377.031 605.731L389.231 610.488Z" fill="#A468E2"/>
<path d="M255.47 568.411L263.356 565.14L281.211 560.977L302.19 559.639H323.467L269.308 577.332L238.359 608.109L221.397 591.606L227.051 582.239L236.872 583.28L248.923 579.414L255.47 568.411Z" fill="#A468E2"/>
<path d="M172 576.737L182.564 576.143L171.703 615.097L165.751 629.371L152.955 627.438L150.426 615.097L161.287 602.459V592.349L172 576.737Z" fill="#A468E2"/>
<path d="M97.754 630.412L106.979 627.735L103.259 669.218L74.9893 695.98L58.0273 689.736L72.6087 687.506L74.9893 678.139L81.536 670.853V657.472L88.8267 648.551L90.6121 640.819L97.754 630.412Z" fill="#A468E2"/>
<path d="M30.502 700.59L37.0487 698.359L61.1525 717.242L41.6611 749.357L44.3393 730.475L50.2909 721.554L44.3393 713.525L34.3705 710.403L30.502 700.59Z" fill="#A468E2"/>
<path d="M37.3457 774.336V768.983L80.7921 780.432L86.8924 849.718L61.5983 887.483L69.6329 855.814L67.9962 846.447L63.6813 828.456L64.5741 810.912L57.4322 789.799L44.3388 784L37.3457 774.336Z" fill="#A468E2"/>
<path d="M50.4393 928.965L56.6885 927.33L105.342 935.804L89.2732 954.092L91.2075 943.833H88.2317L77.6677 945.617L70.2283 942.644L59.6642 941.008L52.9687 934.615L41.8096 928.965H50.4393Z" fill="#A468E2"/>
<path d="M74.8407 1001.22L72.0137 992.898L108.169 1002.71L109.508 1025.46L102.664 1021.89L96.8614 1016.24L84.0656 1014.31L74.8407 1001.22Z" fill="#A468E2"/>
<path d="M125.28 1064.86L120.072 1057.13H162.328L184.795 1110.8L171.404 1097.42L165.75 1088.65L152.806 1082.4L139.712 1070.96L125.28 1064.86Z" fill="#A468E2"/>
<path d="M249.073 1102.48L234.789 1104.41L239.402 1090.43L283.145 1085.82L291.478 1090.43L285.08 1094.15H271.54L262.464 1098.31L249.073 1102.48Z" fill="#A468E2"/>
<path d="M382.09 1095.64L374.948 1096.98L370.633 1070.06L415.418 1048.65L417.65 1057.58L416.311 1063.52L407.235 1070.06L395.034 1073.78L390.422 1086.72L382.09 1095.64Z" fill="#A468E2"/>
<path d="M146.557 1222.02L170.661 1225.29L134.208 1237.48L104.599 1216.07L116.055 1190.05L120.073 1193.62L123.644 1210.57L134.208 1213.54L146.557 1222.02Z" fill="#A468E2"/>
<path d="M65.0208 1171.02L77.3702 1169.38L86.744 1172.8L96.564 1174.89L104.003 1179.94L52.3737 1191.83L46.7197 1183.21L58.0277 1176.97L65.0208 1171.02Z" fill="#A468E2"/>
<path d="M20.2356 1191.09L29.6093 1191.69L23.9554 1217.41L-0.148438 1226.92L8.92769 1213.69L14.1353 1208.04L14.7305 1194.66L20.2356 1191.09Z" fill="#A468E2"/>
</g>
</g>
<defs>
<clipPath id="clip0_1729_7466">
<rect width="430" height="1225" fill="white"/>
</clipPath>
</defs>
</svg>
