<svg width="1577" height="4497" viewBox="0 0 1577 4497" fill="none" xmlns="http://www.w3.org/2000/svg">
<g clip-path="url(#clip0_1563_9136)">
<mask id="mask0_1563_9136" style="mask-type:alpha" maskUnits="userSpaceOnUse" x="0" y="0" width="1578" height="4497">
<path d="M741.333 52.9771L655.272 70.9559L547.633 128.432L534.172 181.756L492.116 221.601L410.077 231.425L369.339 265.812L349.068 418.64L369.339 492.871L326.555 635.983L349.068 727.679L315.024 806.277L273.293 823.743L260.134 861.404L297.24 953.101L273.293 1011.5L330.526 1037.97L422.199 1054.62L526.423 1063.36H598.06L583.173 1092.83L422.199 1134.31L343.622 1193.81L287.963 1283.32L195.352 1328.08H103.073L64.2365 1415.95L3.56881 1465.51V0H777.654L741.333 52.9771Z" fill="#7E53C5"/>
<path d="M866.359 0L909.094 99.8841L918.371 169.748L951.111 265.812L999.131 249.437L1031.87 181.756L1078.8 195.947L1138.77 265.812L1138.77 345.501L1195.57 397.899L1241.96 492.871L1263.24 599.85L1225.92 652.926L1197.21 674.081L1172.66 764.686L1120.7 783.244L1130.64 876.033L1164.19 919.676L1172.66 969.367L1218.49 1034.86L1197.21 1097.09L1146.03 1141.3L1120.7 1206.25L1146.03 1264.11L1204.16 1291.5L1186 1381.46L1129 1438.22L1059.7 1449.14L1002.4 1428.94L942.381 1449.14L921.099 1528.83L868.169 1542.47L789.592 1582.32L762.144 1633.62L633.92 1671.45H545.675L445.816 1694.75H315.4L264.652 1641.8L220.998 1630.89H171.887L125.466 1547.49L81.8512 1481.34L64.2365 1415.95L3.56881 1465.51L1.9441 1574.43L0 2075.6H3.17695V3210.85V3331.65L59.4785 3354.58L87.308 3403.15L121.685 3409.16L155.517 3341.48L164.248 3267.25L196.989 3219.22L242.7 3180.46L326.711 3219.22L454.65 3195.75L596.317 3219.22L648.481 3288.53L833.526 3348.03L964.76 3355.67L1155.7 3606.03L1282.14 3654.23L1322.22 3756.84L1213.83 3847.84L1180.29 4012.83L1112.12 4123.38L1032.3 4189.13L870.01 4234.75L618.178 4144.94L454.65 4030.84L326.711 4067.41L261.924 4166.2L137.274 4273.18L3.17695 4288.64L2.27602 4497H1577V2952.19L1536.92 2978.51L1437.53 2997.07L1373.29 2943.58L1257.41 2916.27L1107.29 2966.57L788.453 2941.42L618.178 2862.38L530.396 2788.57H454.65L388.536 2837.23L326.711 2788.57L314.631 2675.58L405.232 2594.26L439.825 2521.66L382.719 2434.33L405.232 2342.09L489.243 2247.66H574.05L689.663 2165.25L747.01 2075.6L833.526 1998.35H1107.33L1234.86 2165.25L1282.34 2247.66L1373.29 2342.09L1455.86 2316.98L1509.34 2165.25L1577.09 2102.55V0H866.359Z" fill="#7E53C5"/>
</mask>
<g mask="url(#mask0_1563_9136)">
<path d="M1996.62 -268.541H-123.868L-428.354 4855.57L1996.62 5214.71V-268.541Z" fill="#8665D0"/>
<path d="M894.361 -13.0995H856.709L936.377 272.907H960.933L952.748 218.326V176.844L942.38 128.266V68.2268L894.361 -13.0995Z" fill="#C88CEA"/>
<path d="M1157.92 283.278L1136.64 265.812L1108.81 351.505L1242.5 518.524L1238.14 473.767L1221.77 425.735L1215.22 384.799L1192.3 368.425L1163.92 336.222L1167.2 311.114L1157.92 283.278Z" fill="#C88CEA"/>
<path d="M1223.4 671.898H1194.48L1251.78 584.568L1277.97 617.862L1265.97 652.249L1223.4 671.898Z" fill="#C88CEA"/>
<path d="M1196.66 770.69L1168.29 762.503H1119.18L1095.71 857.475L1146.46 938.801L1139.37 857.475L1146.46 806.168L1153.01 788.702H1189.57L1229.41 770.69H1196.66Z" fill="#C88CEA"/>
<path d="M1217.4 1097.63H1197.76L1161.74 1110.73L1090.26 1195.88L1144.28 1270.66L1139.37 1208.43L1161.74 1162.59L1197.76 1137.48L1217.4 1097.63Z" fill="#C88CEA"/>
<path d="M991.491 1444.77L1002.4 1428.94L934.196 1432.22L918.371 1528.28L936.924 1516.27L944.018 1495.53L966.936 1456.78L991.491 1444.77Z" fill="#C88CEA"/>
<path d="M787.409 1617.79L760.671 1633.08L775.404 1577.95L875.263 1515.18L862.712 1556.12L842.522 1577.95L803.779 1591.05L787.409 1617.79Z" fill="#C88CEA"/>
<path d="M596.969 1680.02L631.892 1669.65L556.589 1661.46L439.269 1690.93L500.384 1696.39L547.858 1680.02H596.969Z" fill="#C88CEA"/>
<path d="M236.822 1644.54H208.447L181.164 1636.9L172.979 1630.89L189.894 1615.07L282.659 1630.89L315.4 1694.21L285.933 1675.11L267.38 1668.56L236.822 1644.54Z" fill="#C88CEA"/>
<path d="M59.4785 1450.78L66.0266 1414.75L201.354 1635.81L172.979 1641.81L151.698 1624.89L128.234 1587.23L88.3993 1549.02L78.5771 1499.35L59.4785 1450.78Z" fill="#C88CEA"/>
<path d="M235.186 1284.85L196.988 1333.43H281.022L353.597 1191.51H324.13L295.21 1209.53L281.022 1265.2L235.186 1284.85Z" fill="#C88CEA"/>
<path d="M235.186 1002.66L276.111 1012.49H329.042L612.792 1065.43L527.122 1071.43L468.189 1065.43H393.977L338.318 1051.24L284.842 1045.78L250.464 1012.49L235.186 1002.66Z" fill="#C88CEA"/>
<path d="M315.945 785.427V812.718L374.878 732.483L334.498 632.053L315.945 646.79V689.364L334.498 725.934L325.767 745.037L315.945 785.427Z" fill="#C88CEA"/>
<path d="M342.683 425.736L349.777 418.094L380.335 486.867L342.138 596.03L346.503 552.91L359.054 499.42L346.503 477.588L342.683 450.843V425.736Z" fill="#C88CEA"/>
<path d="M530.942 133.179L553.314 128.266L536.399 183.94L501.475 228.696L410.348 234.7L430.538 223.238L480.74 211.776L493.836 194.856L510.752 180.665V151.737L530.942 133.179Z" fill="#C88CEA"/>
<path d="M700.646 55.1273L655.355 71.5017L738.298 65.4978L789.046 2.86102e-06L772.676 -6.54977L738.298 22.3784L734.478 44.7568L700.646 55.1273Z" fill="#C88CEA"/>
<path d="M1151.92 2035.89L1110.45 1999.32L1120.27 2120.49L1372.37 2390.12V2309.89L1331.45 2247.12L1287.25 2214.37L1246.87 2140.69L1151.92 2035.89Z" fill="#C88CEA"/>
<path d="M774.313 2034.8L833.792 1998.77L709.378 2175.07L572.959 2250.94L614.976 2204.55L638.44 2160.88L678.274 2139.59L715.38 2062.63L774.313 2034.8Z" fill="#C88CEA"/>
<path d="M374.333 2459.99L386.338 2432.7L460.004 2508.56L404.891 2610.09V2572.97L414.167 2528.76L386.338 2504.2L374.333 2459.99Z" fill="#C88CEA"/>
<path d="M472.008 2800.58L451.818 2786.38L536.398 2772.19L775.403 2931.57L727.93 2920.11L674.454 2893.91L605.699 2870.99L564.227 2852.97L548.948 2830.05L518.391 2809.85L472.008 2800.58Z" fill="#C88CEA"/>
<path d="M1174.29 2955.04L1107.72 2965.41L1237.59 2892.27L1396.38 2934.3L1358.18 2951.22L1285.06 2944.12L1242.5 2934.3L1174.29 2955.04Z" fill="#C88CEA"/>
<path d="M183.892 3201.2L241.734 3182.1L201.9 3292.9L126.597 3437L114.592 3366.59L135.873 3309.27V3248.14L183.892 3201.2Z" fill="#C88CEA"/>
<path d="M488.379 3189.74L452.91 3196.29L527.122 3273.25L848.524 3357.85L748.12 3307.09L694.644 3293.99L655.901 3261.24L629.709 3235.59L615.521 3196.29H556.043L488.379 3189.74Z" fill="#C88CEA"/>
<path d="M1120.82 3531.97L1038.42 3464.29L1142.64 3639.49L1282.34 3656.41L1219.58 3590.92L1165.02 3581.64L1120.82 3531.97Z" fill="#C88CEA"/>
<path d="M1333.08 3768.85L1319.44 3754.11L1200.48 3833.26L1174.84 4017.2L1217.95 3945.69L1229.41 3898.21L1249.05 3850.18L1295.43 3826.71L1333.08 3768.85Z" fill="#C88CEA"/>
<path d="M373.241 4072.32L323.585 4065.23L458.367 3991L830.517 4213.69L676.637 4178.21L612.793 4172.75L570.776 4142.73L520.574 4115.44L462.732 4057.59H420.169L373.241 4072.32Z" fill="#C88CEA"/>
</g>
</g>
<defs>
<clipPath id="clip0_1563_9136">
<rect width="1577" height="4497" fill="white"/>
</clipPath>
</defs>
</svg>
