<svg width="430" height="1226" viewBox="0 0 430 1226" fill="none" xmlns="http://www.w3.org/2000/svg">
<g clip-path="url(#clip0_1729_7380)">
<mask id="mask0_1729_7380" style="mask-type:alpha" maskUnits="userSpaceOnUse" x="0" y="0" width="431" height="1226">
<path d="M202.139 14.4429L178.673 19.3444L149.323 35.014L145.653 49.5515L134.185 60.4142L111.816 63.0926L100.707 72.4673L95.1801 114.132L100.707 134.369L89.0416 173.386L95.1801 198.385L85.8974 219.812L74.5186 224.574L70.9306 234.841L81.0482 259.84L74.5186 275.762L90.1243 282.977L115.121 287.518L143.54 289.899H163.073L159.014 297.934L115.121 309.243L93.6953 325.463L78.5188 349.866L53.2664 362.068H28.1049L17.5153 386.026L0.973107 399.537V0H212.043L202.139 14.4429Z" fill="#7E53C5"/>
<path d="M236.23 0L247.882 27.231L250.412 46.2779L259.339 72.4673L272.433 68.0032L281.36 49.5515L294.156 53.4204L310.508 72.4673L310.508 94.1926L325.997 108.478L338.644 134.369L344.446 163.535L334.272 178.005L326.443 183.772L319.747 208.474L305.582 213.533L308.291 238.829L317.438 250.728L319.747 264.275L332.246 282.131L326.443 299.095L312.486 311.148L305.581 328.855L312.486 344.629L328.338 352.097L323.386 376.621L307.844 392.097L288.948 395.073L273.325 389.567L256.959 395.073L251.156 416.798L236.723 420.518L215.298 431.381L207.813 445.369L172.851 455.681H148.789L121.561 462.035H86L72.1626 447.597L60.2595 444.625H46.8685L34.2107 421.885L22.3183 403.852L17.5153 386.026L0.973107 399.537L0.530098 429.231L0 565.864H0.866258V875.361V908.296L16.218 914.546L23.8062 927.789L33.1799 929.426L42.4048 910.974L44.7855 890.737L53.7128 877.642L66.1769 867.077L89.0843 877.642L123.969 871.244L162.598 877.642L176.821 896.54L227.277 912.76L263.061 914.843L315.124 983.098L349.6 996.239L360.529 1024.21L330.975 1049.02L321.83 1094L303.242 1124.14L281.476 1142.07L237.225 1154.5L168.558 1130.02L123.969 1098.91L89.0843 1108.88L71.4187 1135.82L37.4304 1164.98L0.866258 1169.2L0.620603 1226H430V804.844L419.07 812.02L391.971 817.079L374.453 802.497L342.857 795.052L301.923 808.766L214.987 801.909L168.558 780.36L144.623 760.237H123.969L105.942 773.503L89.0843 760.237L85.7904 729.434L110.494 707.263L119.927 687.472L104.356 663.663L110.494 638.515L133.402 612.772H156.526L188.05 590.303L203.687 565.864L227.277 544.804H301.936L336.709 590.303L349.654 612.772L374.453 638.515L396.969 631.67L411.55 590.303L430.026 573.21V0H236.23Z" fill="#7E53C5"/>
</mask>
<g mask="url(#mask0_1729_7380)">
<path d="M544.419 -73.2114H-33.7746L-116.799 1323.75L544.419 1421.67V-73.2114Z" fill="#8665D0"/>
<path d="M243.865 -3.57129H233.599L255.322 74.4017H262.017L259.785 59.5214V48.2123L256.958 34.9688V18.6004L243.865 -3.57129Z" fill="#C88CEA"/>
<path d="M315.73 77.229L309.927 72.4673L302.339 95.8294L338.792 141.363L337.602 129.161L333.138 116.067L331.353 104.906L325.104 100.442L317.367 91.6629L318.259 84.818L315.73 77.229Z" fill="#C88CEA"/>
<path d="M333.585 183.177H325.699L341.322 159.369L348.464 168.446L345.191 177.82L333.585 183.177Z" fill="#C88CEA"/>
<path d="M326.295 210.11L318.557 207.878H305.166L298.769 233.77L312.606 255.942L310.672 233.77L312.606 219.783L314.391 215.021H324.36L335.222 210.11H326.295Z" fill="#C88CEA"/>
<path d="M331.948 299.244H326.592L316.772 302.815L297.28 326.028L312.01 346.414L310.671 329.451L316.772 316.951L326.592 310.106L331.948 299.244Z" fill="#C88CEA"/>
<path d="M270.35 393.883L273.326 389.567L254.727 390.46L250.412 416.65L255.471 413.376L257.405 407.721L263.654 397.156L270.35 393.883Z" fill="#C88CEA"/>
<path d="M214.703 441.053L207.412 445.22L211.429 430.191L238.658 413.078L235.236 424.238L229.73 430.191L219.166 433.762L214.703 441.053Z" fill="#C88CEA"/>
<path d="M162.775 458.017L172.298 455.19L151.765 452.958L119.775 460.993L136.44 462.481L149.384 458.017H162.775Z" fill="#C88CEA"/>
<path d="M64.5743 448.344H56.8373L49.3978 446.261L47.166 444.624L51.7785 440.309L77.0726 444.624L85.9999 461.886L77.9653 456.677L72.9065 454.892L64.5743 448.344Z" fill="#C88CEA"/>
<path d="M16.2178 395.519L18.0032 385.698L54.9029 445.964L47.1659 447.6L41.3631 442.988L34.9652 432.72L24.1036 422.304L21.4254 408.763L16.2178 395.519Z" fill="#C88CEA"/>
<path d="M64.1281 350.283L53.7129 363.527H76.6264L96.4153 324.838H88.3807L80.4949 329.748L76.6264 344.926L64.1281 350.283Z" fill="#C88CEA"/>
<path d="M64.1279 273.352L75.2871 276.031H89.7196L167.09 290.464L143.73 292.101L127.661 290.464H107.426L92.249 286.596L77.6677 285.108L68.294 276.031L64.1279 273.352Z" fill="#C88CEA"/>
<path d="M86.1484 214.128V221.568L102.218 199.694L91.2073 172.314L86.1484 176.332V187.939L91.2073 197.909L88.8266 203.117L86.1484 214.128Z" fill="#C88CEA"/>
<path d="M93.4398 116.067L95.3741 113.983L103.706 132.733L93.291 162.493L94.4813 150.738L97.9035 136.155L94.4813 130.203L93.4398 122.912V116.067Z" fill="#C88CEA"/>
<path d="M144.772 36.308L150.872 34.9688L146.26 50.1467L136.737 62.3486L111.89 63.9854L117.395 60.8605L131.083 57.7357L134.654 53.1228L139.267 49.2539V41.3673L144.772 36.308Z" fill="#C88CEA"/>
<path d="M191.045 15.0291L178.695 19.4932L201.311 17.8564L215.149 -3.8147e-06L210.685 -1.78564L201.311 6.10094L200.27 12.2019L191.045 15.0291Z" fill="#C88CEA"/>
<path d="M314.093 555.037L302.785 545.067L305.463 578.101L374.204 651.61V629.736L363.045 612.624L350.993 603.695L339.982 583.607L314.093 555.037Z" fill="#C88CEA"/>
<path d="M211.132 554.739L227.35 544.918L193.426 592.981L156.229 613.665L167.685 601.017L174.083 589.113L184.945 583.309L195.062 562.328L211.132 554.739Z" fill="#C88CEA"/>
<path d="M102.069 670.657L105.343 663.217L125.429 683.9L110.402 711.578V701.459L112.931 689.406L105.343 682.71L102.069 670.657Z" fill="#C88CEA"/>
<path d="M128.702 763.51L123.197 759.641L146.26 755.772L211.429 799.223L198.484 796.098L183.903 788.956L165.156 782.706L153.848 777.795L149.682 771.546L141.35 766.04L128.702 763.51Z" fill="#C88CEA"/>
<path d="M320.194 805.622L302.042 808.449L337.454 788.509L380.751 799.967L370.336 804.58L350.398 802.646L338.793 799.967L320.194 805.622Z" fill="#C88CEA"/>
<path d="M50.1423 872.732L65.9139 867.524L55.0523 897.731L34.5195 937.015L31.2461 917.819L37.0489 902.195V885.529L50.1423 872.732Z" fill="#C88CEA"/>
<path d="M133.166 869.607L123.495 871.393L143.73 892.374L231.367 915.438L203.99 901.6L189.409 898.028L178.845 889.1L171.703 882.106L167.834 871.393H151.616L133.166 869.607Z" fill="#C88CEA"/>
<path d="M305.613 962.907L283.146 944.455L311.564 992.221L349.654 996.834L332.543 978.977L317.665 976.448L305.613 962.907Z" fill="#C88CEA"/>
<path d="M363.492 1027.49L359.772 1023.47L327.336 1045.05L320.343 1095.19L332.097 1075.7L335.222 1062.75L340.578 1049.66L353.225 1043.26L363.492 1027.49Z" fill="#C88CEA"/>
<path d="M101.771 1110.22L88.2314 1108.29L124.982 1088.05L226.456 1148.76L184.498 1139.09L167.09 1137.6L155.633 1129.42L141.944 1121.98L126.173 1106.2H114.567L101.771 1110.22Z" fill="#C88CEA"/>
</g>
</g>
<defs>
<clipPath id="clip0_1729_7380">
<rect width="430" height="1226" fill="white"/>
</clipPath>
</defs>
</svg>
