<svg width="1440" height="554" viewBox="0 0 1440 554" fill="none" xmlns="http://www.w3.org/2000/svg">
<mask id="mask0_1825_9133" style="mask-type:alpha" maskUnits="userSpaceOnUse" x="-3" y="0" width="1446" height="554">
<path d="M-3 554V131.5L52 143.499L78.5 168L166 186.999L226 168L288.5 212.999L279.5 245.5L429 285.499L491 245.5L549 168L644 149.499L745.5 225.5L838 240.999L959 168L997.5 131.5L1055.5 115.999L1105.5 179.499L1163.5 188.5L1231.5 115.999L1218.5 26.999L1252 0L1318.5 26.999L1397.5 74.999L1443 56.999V554H-3Z" fill="url(#paint0_radial_1825_9133)"/>
</mask>
<g mask="url(#mask0_1825_9133)">
<path d="M-14 36H1432V641.5H-14V36Z" fill="#0C004C"/>
<path d="M346.5 269.999L290.5 245.999L429.5 284.999L407 287.499L395.5 282.999L367 278.999L346.5 269.999Z" fill="#7645C6"/>
<path d="M254 210.499L232.5 181.499L219.5 176.499L186 183.499L166 186.499L223.5 162.999L296.5 202.999L280 245.999L275.5 237.999L274 218.999L254 210.499Z" fill="#7645C6"/>
<path d="M52.5 140.999L78.5 164.999L123.5 177.499L103 175.999L56.5 167.999L51 154.499L34.5 145.999H6.5L-12 127.999L52.5 140.999Z" fill="#7645C6"/>
<path d="M542 204.499L500 244.999L448 270.999L473 244.999L507 162.999L638.5 135.499L744.5 223.999L704 204.499L656 171.999L626.5 162.999L554 182.499L542 204.499Z" fill="#7645C6"/>
<path d="M935.5 194.499L840 240.999L925 150.499L1052 103.999L1080.5 126.499L1104.5 177.999L1071 160.999L1056.5 135.999L1035 131.499L1000 140.999L979 174.499L935.5 194.499Z" fill="#7645C6"/>
<path d="M1199 167.499L1163.5 187.999L1204 21.999L1239.5 -15.001L1277.5 -10.501L1372.5 49.999L1294 20.999H1259L1243.5 17.499L1230 37.999L1249.5 87.999V118.999L1199 167.499Z" fill="#7645C6"/>
</g>
<defs>
<radialGradient id="paint0_radial_1825_9133" cx="0" cy="0" r="1" gradientUnits="userSpaceOnUse" gradientTransform="translate(720 221) rotate(-90) scale(667 1740.94)">
<stop offset="0.136559"/>
<stop offset="0.42781" stop-opacity="0"/>
</radialGradient>
</defs>
</svg>
