<svg width="200" height="77" viewBox="0 0 200 77" fill="none" xmlns="http://www.w3.org/2000/svg">
<g clip-path="url(#clip0_1438_8379)">
<path d="M30.5659 69.0259L21.8613 59.7793L25.3043 12.6336L36.8428 10.6798H177.935L186.437 22.6621V64.2076L179.557 69.0259H30.5659Z" fill="#FFF1BC"/>
<path opacity="0.06" d="M50.4419 17.7681C53.4788 19.5989 56.4569 21.4713 59.5144 23.2869C62.6219 25.131 65.7589 26.9579 68.987 28.713C71.5443 30.1026 74.1368 31.4658 76.7735 32.7929C80.6962 34.7676 84.7748 36.57 88.9182 38.3458L86.9819 37.5828C90.2365 38.8286 93.5706 40.0195 96.6223 41.4697C97.7493 41.9771 98.8117 42.5394 99.8092 43.1528C101.257 44.0275 102.561 44.9836 103.717 46.0229C104.612 46.8049 104.7 47.6246 103.985 48.4804C102.602 49.5236 100.795 50.0328 98.5615 50.0063C95.0126 50.3509 91.4431 50.5118 87.8529 50.4872C85.6459 50.7125 83.7478 50.3717 82.1528 49.4611C79.3778 47.9635 76.5175 46.5493 73.6189 45.1539C72.177 44.4591 70.7409 43.7624 69.3255 43.0468C66.6299 41.6855 63.9197 40.3375 61.2535 38.9536C50.233 33.2227 39.8451 26.9882 29.8722 20.5152C29.0836 19.7049 29.0571 18.8851 29.7898 18.0521C31.1317 17.0657 32.8738 16.6151 35.0073 16.7003C38.3767 16.4693 41.755 16.422 45.1362 16.5602C47.2638 16.4163 49.0324 16.8177 50.439 17.7662L50.4419 17.7681Z" fill="white"/>
<path opacity="0.06" d="M30.2233 24.6009L35.6998 26.8577C37.3889 28.0485 39.1781 29.1731 41.0614 30.2314C43.5834 31.7025 46.12 33.1622 48.6861 34.5992C54.9923 38.1282 61.5252 41.4792 68.4524 44.4933C69.4677 44.9704 70.5212 45.4096 71.607 45.8129C72.3456 46.095 73.0784 46.3808 73.8082 46.6724C75.6945 47.4145 77.5513 48.1965 79.2787 49.0844C80.4499 49.6864 81.5417 50.3396 82.5923 51.025C83.069 51.3374 83.5428 51.6516 84.0107 51.9678C84.9258 52.5547 85.7469 53.1946 86.4737 53.8838C87.0328 54.677 87.1388 55.4949 86.7915 56.3374C86.509 57.0133 85.8646 57.4052 84.8582 57.515C83.5987 57.8956 82.2597 58.083 80.8384 58.0792C79.0669 58.2382 77.3365 58.1455 75.6474 57.8009L72.6134 55.6767L73.7876 56.4624C72.5046 55.6218 71.145 54.8399 69.7001 54.1166C68.2759 53.4029 66.8163 52.7232 65.3125 52.0776C63.8176 51.4415 62.3256 50.8054 60.8307 50.1692C58.0322 48.931 55.2896 47.6474 52.597 46.3165C47.1941 43.6527 42.009 40.8166 36.9357 37.8991C34.3873 36.4318 31.8624 34.9456 29.3611 33.4424C27.1835 31.6741 24.638 30.1595 21.7218 28.8986C20.8625 28.323 20.4594 27.6301 20.5153 26.8198C20.4123 26.0114 20.7713 25.309 21.5952 24.7126C22.9342 24.2658 24.3673 24.0613 25.8916 24.103C27.4101 24.0235 28.855 24.1901 30.2204 24.6028L30.2233 24.6009Z" fill="white"/>
<path opacity="0.06" d="M32.7595 39.9248L38.13 42.1853L41.5818 44.444L45.3779 46.6685L49.1623 48.8552C54.7564 52.051 60.5006 55.1351 66.5303 57.9883C68.8374 59.0807 71.168 60.1636 73.5929 61.1462C75.026 61.7274 76.4591 62.3068 77.8598 62.9202C79.3518 63.5733 80.7878 64.2663 82.1709 65.0141C82.9272 65.3965 83.6364 65.8093 84.3044 66.2542C85.4285 66.9206 86.4673 67.6381 87.4237 68.4087L88.486 69.219L88.9569 70.4307L88.7921 71.6745C88.5537 72.3372 87.9505 72.7253 86.9794 72.8427C86.2437 73.0983 85.455 73.2308 84.6134 73.2422C83.6835 73.3823 82.7418 73.4315 81.7884 73.3879C80.9526 73.4618 80.1404 73.4107 79.3518 73.2346C78.366 73.2194 77.6715 72.8957 77.2742 72.2671L75.5733 70.921L76.6474 71.7162C75.4409 70.8529 74.1255 70.0634 72.7071 69.3458C71.274 68.6226 69.7908 67.9467 68.2547 67.3182C66.698 66.6877 65.1384 66.0611 63.5758 65.4382C60.7066 64.2133 57.8963 62.9353 55.139 61.6063C49.6419 58.9633 44.3774 56.131 39.2394 53.2059C36.6704 51.7405 34.1308 50.2562 31.6177 48.7511C29.4283 46.998 26.8917 45.4834 24.0049 44.2073C23.1279 43.6355 22.7189 42.9407 22.7748 42.1266C22.6777 41.3125 23.0514 40.612 23.896 40.0213C25.282 39.5764 26.7534 39.3757 28.316 39.4193C29.8756 39.3417 31.3558 39.5121 32.7624 39.9267L32.7595 39.9248Z" fill="white"/>
<path opacity="0.06" d="M49.229 28.7717L53.0457 30.9565L56.5476 33.1735C59.611 35.0516 62.7832 36.8615 65.9731 38.6488C68.5009 40.063 71.067 41.447 73.686 42.7931C76.9289 44.461 80.2542 46.0343 83.6266 47.5906L81.8198 46.8011L87.7199 49.3589L85.8925 48.5883C89.0913 49.8511 92.3548 51.0628 95.3799 52.4941C96.5099 53.0034 97.581 53.5619 98.5904 54.1715C100.062 55.0424 101.392 55.9947 102.584 57.0265C103.431 57.8122 103.517 58.632 102.84 59.4839C101.563 60.5101 99.8528 61.0118 97.7076 60.9891C94.347 61.3204 90.9658 61.4662 87.5669 61.4283C85.4482 61.6366 83.6472 61.2863 82.167 60.3813C80.9163 59.5975 79.6627 58.8251 78.315 58.1075C76.9672 57.39 75.5047 56.6914 74.0598 56.0193C69.7192 53.9935 65.3405 52.0132 61.1059 49.8946C55.6795 47.1797 50.4473 44.3152 45.3328 41.3599C42.7815 39.885 40.2595 38.3913 37.7582 36.8805C34.8508 35.1235 32.064 33.2871 29.2272 31.4828C28.4621 30.6706 28.4386 29.8508 29.1537 29.0197C30.4455 28.0409 32.1376 27.5941 34.2299 27.6793C37.5051 27.454 40.7863 27.4142 44.0733 27.5581C46.1568 27.4237 47.8753 27.8288 49.2231 28.7736L49.229 28.7717Z" fill="white"/>
<path opacity="0.06" d="M19.8788 26.5698L27.7006 29.2147L29.8311 31.4923L33.8332 33.7187L37.6352 35.9092C43.2764 39.1334 49.0736 42.2308 55.1769 45.0896C57.534 46.1933 59.9117 47.2914 62.3954 48.2778C63.8726 48.8647 65.3499 49.4478 66.7889 50.0707C68.2279 50.6936 69.7316 51.4092 71.1118 52.1646C71.8533 52.5414 72.5449 52.9522 73.1893 53.3971C74.2693 54.0503 75.2551 54.7584 76.1468 55.5233C76.853 56.1234 77.215 56.805 77.2327 57.5661C77.4092 58.3196 77.2238 59.0296 76.6824 59.696C75.8172 60.1636 74.8137 60.4022 73.669 60.4135C72.5361 60.5233 71.4855 60.3927 70.5115 60.0254C69.2902 59.111 68.0807 58.2136 66.6888 57.4033C65.2969 56.5929 63.8962 55.9019 62.4248 55.2241C60.9534 54.5463 59.4585 53.9367 57.9577 53.3138C55.0709 52.1173 52.2606 50.8564 49.4974 49.5444C44.0357 46.9506 38.777 44.1827 33.689 41.2917C31.1141 39.8282 28.5687 38.3401 25.9879 36.8823C24.6254 36.2973 23.5601 35.5457 22.7862 34.6237C21.4002 33.0466 19.3196 31.9126 16.5476 31.2196C16.0768 30.5608 15.8619 29.8641 15.9061 29.1333C15.806 28.5539 15.909 27.9992 16.218 27.4672C16.2739 27.0412 16.6359 26.7535 17.3098 26.6058C18.1602 26.4108 19.0165 26.3994 19.8758 26.5736L19.8788 26.5698Z" fill="white"/>
<path opacity="0.06" d="M49.8897 41.7972C52.5852 43.1301 55.0924 44.5973 57.4113 46.1971C59.8891 47.6852 62.3934 49.1563 64.9271 50.6046C67.4372 52.0378 69.9856 53.4388 72.5782 54.8095C75.1442 56.1651 77.7603 57.479 80.4264 58.7513L78.7344 57.941C81.7418 59.3438 84.7258 60.7714 87.898 62.0171C89.7402 62.7422 91.5676 63.4787 93.3656 64.2493C94.684 64.8153 95.9935 65.3909 97.253 66.0119C98.3889 66.5647 99.4424 67.1743 100.419 67.8407C101.523 68.511 102.523 69.2417 103.418 70.0331C104.213 70.8226 104.295 71.6424 103.665 72.4906C102.509 73.4959 100.911 73.9881 98.8685 73.9711C95.7257 74.2873 92.5652 74.4179 89.3871 74.363C87.3654 74.5485 85.6822 74.1926 84.3344 73.2914C83.325 72.4357 82.1921 71.6537 80.9355 70.9438C79.6025 70.1903 78.2017 69.4917 76.7362 68.848L78.4489 69.5882C74.6028 67.9392 70.6801 66.3754 66.9252 64.6393C64.2208 63.3878 61.5547 62.1023 58.9298 60.7827C54.1331 58.3726 49.4895 55.8451 44.9547 53.2343C42.3886 51.7538 39.852 50.2525 37.3419 48.7322C35.1495 47.2649 32.8895 45.8412 30.5618 44.4629C29.8261 43.6488 29.8055 42.8291 30.5 41.9998C31.733 41.0324 33.3662 40.5874 35.4055 40.6689C38.5719 40.4511 41.7412 40.4171 44.9165 40.5704C46.9499 40.4473 48.6066 40.8563 49.8867 41.7972H49.8897Z" fill="white"/>
<path opacity="0.06" d="M50.9365 36.9126C56.9573 40.6442 62.9781 44.3758 69.355 47.8594C71.9005 49.249 74.4783 50.6141 77.1003 51.9431C80.9936 53.9159 85.0398 55.7239 89.1479 57.5055L87.3116 56.733C90.5074 57.9958 93.765 59.2132 96.7931 60.6407C97.9261 61.15 99.0002 61.7085 100.015 62.3162C101.499 63.1871 102.843 64.1394 104.053 65.1713C104.906 65.9569 104.992 66.7767 104.303 67.6287C102.999 68.6567 101.266 69.1565 99.1031 69.13C95.7013 69.4595 92.2819 69.6033 88.8418 69.5636C86.7025 69.7718 84.8839 69.4216 83.3831 68.5128C82.2413 67.7139 81.0995 66.9339 79.8224 66.2239C78.4805 65.478 77.0444 64.7945 75.5995 64.1338C74.0634 63.4314 72.4891 62.7593 70.9353 62.0739C67.9778 60.7676 65.0645 59.4234 62.2042 58.0299C56.6689 55.3283 51.3426 52.46 46.1486 49.4914C43.5738 48.0184 41.0312 46.5228 38.5181 45.0082C35.6078 43.2569 32.8033 41.4508 30.0254 39.6124C29.2309 38.8002 29.2073 37.9785 29.9607 37.1493C31.3408 36.1629 33.1094 35.7161 35.2694 35.8108C38.6947 35.5874 42.123 35.5495 45.5601 35.6972C47.7142 35.5552 49.5063 35.9622 50.9394 36.9164L50.9365 36.9126Z" fill="white"/>
<path opacity="0.06" d="M41.4812 32.2818L47.1018 34.4628C48.2171 35.0592 49.253 35.7066 50.2094 36.4071C53.0962 38.3477 56.242 40.116 59.3465 41.9127L57.8428 41.0645L63.1544 44.0464L61.6448 43.2039C65.4733 45.2789 69.3342 47.3179 73.3304 49.2566C75.9701 50.527 78.6627 51.7462 81.4141 52.9163C82.5029 53.3422 83.5888 53.772 84.6688 54.2094C86.7199 55.0348 88.6974 55.9152 90.6484 56.8353C91.7784 57.3427 92.8496 57.8993 93.8619 58.5051C95.3362 59.3722 96.6722 60.3208 97.8699 61.3488C98.6056 62.1402 98.688 62.9599 98.123 63.8062C97.1254 64.7869 95.6687 65.2754 93.753 65.2735C90.8838 65.5802 87.9941 65.7033 85.0867 65.6408C83.1886 65.8055 81.6437 65.4439 80.4548 64.556C79.3101 63.7097 78.0712 62.9259 76.7352 62.2045C75.3727 61.4662 73.9572 60.7676 72.4947 60.1106L74.1073 60.8565C70.3818 59.2208 66.6004 57.6418 62.9691 55.919C58.811 53.9462 54.7382 51.8958 50.792 49.7489C48.9734 48.7587 47.1636 47.7572 45.3686 46.7481C42.7878 45.2922 40.2394 43.8135 37.7233 42.3122C35.3015 40.9509 33.0444 39.4837 30.958 37.9104L32.4382 38.7623L27.7975 36.6306C26.5498 36.1762 25.92 35.4851 25.9083 34.5574C25.8671 33.6316 26.4586 32.9274 27.6798 32.4427C29.9133 31.9788 32.2087 31.7668 34.5658 31.8066C36.92 31.7119 39.2241 31.869 41.4842 32.2818H41.4812Z" fill="white"/>
<path opacity="0.06" d="M35.6759 15.6817L41.12 17.9347L44.8632 20.1895C48.0001 22.0525 51.2253 23.8662 54.4594 25.661C60.1683 28.8303 66.0656 31.8955 72.31 34.6161L76.4711 36.3882L78.7134 37.2174C80.2201 37.7835 81.7327 38.3552 83.1628 38.999C84.7872 39.7279 86.3322 40.5363 87.8212 41.375C88.5686 41.7555 89.2484 42.1796 89.8605 42.651C90.9111 43.3269 91.8321 44.0729 92.6237 44.887C93.277 45.6745 93.3859 46.4924 92.9474 47.3406C92.2441 48.2778 91.0435 48.77 89.3485 48.8211C86.956 49.1373 84.5371 49.2698 82.0946 49.2187C80.4114 49.3531 79.0989 48.9972 78.1602 48.1509C76.8683 47.2687 75.497 46.4375 74.0492 45.6613L75.4882 46.4129L71.8745 44.5291L73.3253 45.2751C71.9245 44.5708 70.4914 43.893 69.0259 43.2436C67.5663 42.6037 66.1068 41.96 64.653 41.3125C60.5185 39.4363 56.4928 37.4635 52.5702 35.4094C48.6269 33.3438 44.7837 31.195 41.0023 29.0083C38.4656 27.5372 35.9526 26.051 33.4601 24.5497C31.1353 22.8136 28.4986 21.299 25.547 20.0097C24.5553 19.472 24.0757 18.781 24.1169 17.9347C24.0198 17.0903 24.4523 16.386 25.4058 15.8218C27.0302 15.3655 28.734 15.1573 30.5173 15.1951C32.2977 15.1062 34.0133 15.2671 35.6671 15.6779L35.6759 15.6817Z" fill="white"/>
<path opacity="0.06" d="M60.2705 30.36C65.0171 33.3949 69.908 36.3351 74.9253 39.1844C80.543 42.3764 86.3549 45.4284 92.4581 48.2304C94.7976 49.3038 97.1547 50.3849 99.6384 51.3183C101.119 51.8749 102.584 52.4428 104.017 53.0468C105.533 53.6848 106.975 54.3683 108.349 55.1256C109.102 55.508 109.8 55.9283 110.441 56.3865C111.542 57.0662 112.533 57.8064 113.413 58.611C114.514 59.3854 114.599 60.2052 113.675 61.0685C111.768 62.1704 109.479 62.6986 106.813 62.6531C102.34 63.0356 97.8492 63.2325 93.338 63.2457C90.7072 63.5259 88.3295 63.2022 86.2048 62.2783C84.9777 61.5399 83.7476 60.811 82.4469 60.1275C81.0668 59.4043 79.6366 58.7209 78.2035 58.0412C73.8012 55.9548 69.3871 53.8798 65.0966 51.6988C59.6525 48.9328 54.3909 46.0228 49.247 43.0277C46.6957 41.5434 44.1708 40.0383 41.6665 38.5199C40.4453 37.7796 39.2241 37.0394 37.9999 36.301C36.2931 35.3127 34.6864 34.262 33.1768 33.1469C32.1527 32.3384 32.1291 31.5168 33.1061 30.6837C35.063 29.6462 37.3584 29.1919 39.9892 29.3225C44.4268 29.084 48.8674 29.0309 53.3139 29.1635C55.9359 28.9704 58.2547 29.3679 60.2705 30.36Z" fill="white"/>
<path opacity="0.06" d="M54.7064 25.2787C64.8765 31.6533 75.3762 37.8518 86.9529 43.1623C89.3041 44.2415 91.673 45.3244 94.1685 46.2616C95.6575 46.8201 97.1318 47.3918 98.5737 47.9977C100.086 48.6338 101.528 49.3154 102.9 50.0727C103.647 50.4513 104.342 50.8697 104.974 51.3279C106.063 52.0019 107.04 52.7365 107.908 53.5354C108.891 54.3154 108.976 55.1333 108.17 55.9929C106.56 57.0644 104.545 57.5813 102.126 57.5415C98.1794 57.9013 94.2126 58.0773 90.2252 58.0679C87.8357 58.3197 85.7317 57.9846 83.9072 57.0663C81.2734 55.5461 78.5278 54.1432 75.6822 52.7895C71.377 50.7391 67.0835 48.6755 62.8902 46.5285C57.5138 43.7776 52.3198 40.8866 47.2319 37.918C44.6923 36.4375 42.1821 34.9381 39.6896 33.4235C38.4713 32.6889 37.2619 31.9467 36.0612 31.2008C34.375 30.186 32.7507 29.1315 31.191 28.0391C30.2964 27.2288 30.2699 26.409 31.1145 25.5759C32.7359 24.5631 34.7252 24.1106 37.0853 24.2204C40.9373 23.9856 44.7923 23.9383 48.6561 24.0727C51.0044 23.9023 53.0202 24.3037 54.7035 25.2749L54.7064 25.2787Z" fill="white"/>
<path opacity="0.06" d="M34.5248 20.8352L40.5604 23.0825L44.5331 25.3354C47.7377 27.1605 50.9129 29.0065 54.1499 30.8088C59.8412 33.9743 65.709 37.0395 71.9211 39.7733C73.9604 40.6707 76.0233 41.5303 78.1244 42.3614C79.5781 42.9351 81.0318 43.5144 82.4296 44.1449C84.0657 44.8832 85.6313 45.686 87.1497 46.5228C87.9148 46.909 88.6211 47.335 89.2714 47.8007C90.3838 48.4804 91.3755 49.2301 92.2465 50.0499C92.9175 50.8375 93.0264 51.6554 92.5673 52.5035C91.811 53.4502 90.5662 53.9462 88.83 53.9897C86.3493 54.3097 83.845 54.446 81.3143 54.3968C79.5928 54.5407 78.2362 54.1866 77.2445 53.3347C75.9379 52.424 74.5431 51.574 73.0599 50.7845L74.5166 51.5399L70.8794 49.6599L72.3507 50.4096C69.5375 49.0597 66.6418 47.7913 63.7785 46.4868C59.6293 44.5973 55.5683 42.6359 51.6162 40.5761C47.6523 38.5087 43.7915 36.356 39.9954 34.1637C37.4528 32.6945 34.9368 31.2064 32.4502 29.7013C29.9842 27.9178 27.165 26.4051 23.9839 25.1669C22.0241 24.2563 21.9299 21.939 23.8515 20.9791C25.5465 20.5228 27.321 20.3127 29.169 20.3543C31.0141 20.2653 32.8004 20.4263 34.5219 20.839L34.5248 20.8352Z" fill="white"/>
<path opacity="0.06" d="M24.9081 35.1841L31.3615 37.4314L34.1189 39.6995L37.8326 41.9279L41.6052 44.1184C47.2111 47.3331 52.9818 50.4248 59.035 53.2855C61.3627 54.3854 63.7139 55.4779 66.1593 56.468C67.6101 57.0549 69.0579 57.6399 70.4763 58.259C71.9712 58.9122 73.4102 59.6032 74.7904 60.353C75.5378 60.7316 76.2411 61.1424 76.9003 61.5855C78.0068 62.2424 79.025 62.9524 79.9578 63.7154C80.7641 64.289 81.1761 64.9668 81.1938 65.7525C81.3733 66.5287 81.1349 67.2406 80.4816 67.89C79.4075 68.3728 78.2069 68.6208 76.8797 68.634C75.5673 68.759 74.3195 68.6378 73.1395 68.2724L71.3945 66.8998L69.4699 65.656C68.1457 64.8665 66.6949 64.1489 65.2265 63.4768C63.7492 62.8028 62.2102 62.1856 60.677 61.5646C57.7343 60.3719 54.8769 59.1072 52.0666 57.7876C46.546 55.1939 41.252 52.4146 36.1081 49.5198C33.5303 48.0677 30.979 46.5985 28.46 45.1047C27.1769 44.4648 26.0822 43.7113 25.1788 42.8461C23.6221 41.358 21.5357 40.224 18.9255 39.4401C18.2899 38.8097 18.0015 38.1149 18.0603 37.3557C17.9603 36.5984 18.2134 35.8979 18.8107 35.2523C19.7053 34.8225 20.7147 34.6275 21.8447 34.6635C22.9718 34.6029 23.9929 34.7752 24.9081 35.1841Z" fill="white"/>
<path opacity="0.06" d="M34.4019 34.1352L39.946 36.3919L43.6862 38.6487C46.8114 40.5098 50.0131 42.3235 53.2207 44.1259C58.8501 47.2857 64.6444 50.3546 70.7712 53.1093C72.8046 54.0238 74.8616 54.9022 76.9656 55.7428C78.4282 56.326 79.8936 56.911 81.2973 57.5509C83.0365 58.3442 84.6756 59.2132 86.244 60.1408C86.8297 60.4759 87.3917 60.8262 87.9273 61.1935C89.0338 61.8675 90.0402 62.6002 90.9495 63.3916C91.5645 64.1829 91.6675 65.0008 91.2585 65.8471C90.6346 66.7615 89.5105 67.2481 87.889 67.3068C85.6467 67.6097 83.3808 67.7271 81.0913 67.6608C79.4758 67.7706 78.2457 67.4071 77.4011 66.5703C76.277 65.6597 75.0381 64.8191 73.6874 64.0466L74.9851 64.8134C73.6374 64.0353 72.2249 63.312 70.7417 62.6418C69.2527 61.9678 67.7342 61.3203 66.1923 60.6975C61.8105 58.8818 57.5995 56.9223 53.4855 54.8625C48.7536 52.494 44.1777 50.0082 39.6988 47.4447C37.1386 45.9775 34.6079 44.4913 32.1036 42.9842C29.77 41.2349 27.1098 39.7203 24.1229 38.4423C23.1224 37.9065 22.6457 37.2136 22.6869 36.3635C22.5986 35.5173 23.0371 34.813 24.0082 34.2545C25.6561 33.802 27.3864 33.5975 29.1903 33.6411C30.9913 33.5559 32.7304 33.7225 34.4019 34.1371V34.1352Z" fill="white"/>
<path opacity="0.06" d="M40.0668 24.4078C42.9035 25.0837 45.3549 26.0947 47.4265 27.4427C49.6601 28.9819 52.0025 30.451 54.4508 31.8482L52.9883 30.9963L58.2205 34.0312L56.7521 33.1849C64.8917 37.7665 73.2402 42.2062 82.4362 45.8886C84.4756 46.7046 86.4854 47.5433 88.4365 48.4426C89.949 49.1052 91.3792 49.8322 92.7329 50.6255C94.2042 51.4926 95.5402 52.4392 96.7379 53.4672C97.4736 54.2586 97.559 55.0765 96.9969 55.9247C96.0081 56.9054 94.5574 57.3957 92.6475 57.3957C89.7901 57.7062 86.9121 57.8312 84.0135 57.7725C82.1214 57.9372 80.5823 57.5775 79.3964 56.6914C78.134 55.8641 76.8038 55.0879 75.4061 54.359C74.0141 53.6338 72.5899 52.9371 71.1332 52.2688L72.7664 53.011C70.5358 52.0057 68.2994 51.006 66.0805 49.9912C61.2191 47.7648 56.5255 45.4001 51.9495 42.937C48.8273 41.2558 45.7639 39.5329 42.7358 37.7836C40.823 36.6874 38.9309 35.5761 37.0622 34.4496C34.6757 33.0826 32.4421 31.6211 30.3557 30.0648L31.7947 30.9149L26.9422 28.7679C25.7298 28.3003 25.1236 27.6112 25.1206 26.6967C25.0676 25.7842 25.6297 25.078 26.8127 24.5801C28.952 24.1162 31.1532 23.9023 33.4221 23.9402C35.685 23.8436 37.9009 24.0007 40.0668 24.4116V24.4078Z" fill="white"/>
<path opacity="0.06" d="M65.1638 35.0421L68.5597 37.2591L72.2705 39.4779C74.7512 40.9566 77.2349 42.4333 79.7686 43.8741C85.3627 47.0547 91.1481 50.0991 97.2219 52.8954C99.5438 53.9632 101.88 55.0367 104.343 55.9662C105.809 56.5191 107.257 57.0833 108.678 57.6834C110.194 58.3233 111.635 59.0068 113.016 59.7641C113.775 60.1484 114.481 60.5706 115.131 61.0326C116.25 61.7179 117.262 62.4658 118.168 63.2761C119.328 64.0485 119.413 64.8683 118.427 65.7335C116.367 66.8505 113.94 67.3825 111.144 67.3333C106.403 67.7252 101.642 67.9335 96.86 67.9562C94.0997 68.2477 91.5837 67.9316 89.3089 67.0039C88.1524 66.2598 86.9901 65.529 85.7364 64.8531C84.3769 64.1186 82.9438 63.4351 81.5107 62.763C77.0289 60.6577 72.4941 58.6054 68.1124 56.4112C62.5977 53.647 57.2773 50.7314 52.0804 47.7249C49.5143 46.2406 46.9777 44.7355 44.4617 43.2133C43.2375 42.4693 42.0074 41.729 40.7685 40.9944C39.05 40.027 37.4609 38.9762 36.0013 37.8403C34.9007 37.0319 34.8772 36.2102 35.9336 35.3772C38.0847 34.3283 40.5537 33.8739 43.3464 34.014C48.1224 33.7755 52.9014 33.7206 57.6863 33.8512C60.4701 33.6467 62.9626 34.0462 65.1697 35.0459L65.1638 35.0421Z" fill="white"/>
<path opacity="0.06" d="M57.3103 20.801C67.5157 27.1718 78.0478 33.3797 89.6716 38.6751C92.0346 39.7524 94.4153 40.8372 96.9313 41.763C98.4321 42.3159 99.9152 42.8838 101.369 43.4897C102.887 44.1239 104.326 44.8055 105.692 45.5685C106.436 45.949 107.122 46.3693 107.746 46.8313C108.82 47.509 109.779 48.2493 110.624 49.0558C111.683 49.8302 111.771 50.6499 110.892 51.5133C109.094 52.6076 106.907 53.1339 104.329 53.0922C100.048 53.4709 95.7454 53.6659 91.4254 53.6753C88.8829 53.948 86.6023 53.6242 84.5836 52.7022C81.8468 51.2387 79.0277 49.8529 76.188 48.4746C74.7225 47.7627 73.2658 47.0452 71.8268 46.3106C69.096 44.9191 66.3445 43.5465 63.6401 42.1322C58.3314 39.3567 53.1875 36.4544 48.1408 33.482C45.6159 31.9958 43.1175 30.4944 40.6338 28.9798C39.4214 28.2415 38.209 27.5012 37.0025 26.7572C35.3075 25.7481 33.6831 24.6954 32.1264 23.5992C31.17 22.7908 31.1435 21.971 32.0469 21.1361C33.8244 20.1081 35.9549 19.6537 38.4415 19.7711C42.5672 19.5306 46.6988 19.4757 50.8363 19.6064C53.3141 19.4227 55.4711 19.8203 57.3133 20.7991L57.3103 20.801Z" fill="white"/>
<path opacity="0.06" d="M22.445 20.1952L30.2639 22.8362L32.7593 25.11L36.3524 27.3403L40.2074 29.5289C45.8957 32.7417 51.7046 35.8428 57.852 38.6903C60.2268 39.7903 62.6222 40.8902 65.1353 41.8596C66.6331 42.437 68.128 43.0164 69.5817 43.6373C71.0943 44.281 72.5363 44.9702 73.9105 45.7313C74.6491 46.108 75.3348 46.5208 75.9675 46.9714C77.0327 47.6283 77.995 48.344 78.8543 49.1183C79.6371 49.6976 80.0373 50.3773 80.0579 51.1535C80.2403 51.9222 80.0196 52.636 79.3987 53.291C78.3835 53.7719 77.2387 54.0199 75.9616 54.0351C74.6992 54.1581 73.5044 54.0351 72.3803 53.6716C71.1179 52.7647 69.8613 51.873 68.4458 51.0608C67.0304 50.2486 65.6414 49.5651 64.1701 48.8835C62.6987 48.202 61.242 47.5923 59.7618 46.9638C56.9192 45.7578 54.1383 44.495 51.4074 43.1849C45.9869 40.5816 40.7724 37.808 35.705 34.9265C33.1448 33.4706 30.5846 32.0204 28.0951 30.5152C26.8268 29.8829 25.7733 29.1313 24.9287 28.2566C23.4456 26.7174 21.3474 25.5833 18.6342 24.8544C18.1016 24.205 17.8573 23.5102 17.9044 22.77C17.7955 22.185 17.9132 21.6283 18.2634 21.102C18.3546 20.6514 18.7696 20.3618 19.5111 20.2368C20.4822 20.038 21.4622 20.0266 22.445 20.197V20.1952Z" fill="white"/>
<path opacity="0.06" d="M57.9584 39.4023C68.1844 45.722 78.5928 51.9432 90.1224 57.2765C92.4472 58.3518 94.7896 59.4291 97.2497 60.3719C98.7152 60.9342 100.172 61.5041 101.599 62.1062C103.112 62.7442 104.559 63.4257 105.94 64.1793C106.699 64.5598 107.405 64.9782 108.055 65.4345C109.174 66.1104 110.186 66.8487 111.098 67.6477C112.063 68.4296 112.149 69.2494 111.348 70.1051C109.762 71.1691 107.773 71.6803 105.378 71.6387C101.481 71.9889 97.5646 72.1536 93.6272 72.1347C91.2613 72.377 89.1837 72.0381 87.3945 71.1161C86.291 70.3304 85.1904 69.5637 83.9486 68.865C82.6155 68.1153 81.1795 67.4338 79.7375 66.773C78.1779 66.0593 76.5829 65.3777 75.0027 64.6829C72.004 63.3633 69.0525 62.0058 66.1568 60.5934C60.5833 57.8766 55.2187 54.9913 49.9924 52.0038C47.4116 50.5271 44.8632 49.0295 42.3413 47.5111C41.1112 46.7765 39.89 46.0363 38.6805 45.2884C36.9796 44.2718 35.3376 43.2172 33.7514 42.1248C32.8362 41.3145 32.8156 40.4928 33.6867 39.6617C35.3758 38.6469 37.4269 38.1982 39.8341 38.3156C43.7979 38.0884 47.7647 38.0449 51.7374 38.1869C54.1387 38.0165 56.2104 38.4216 57.9525 39.3985L57.9584 39.4023Z" fill="white"/>
<g opacity="0.5">
<path opacity="0.06" d="M127.981 6.01875C132.76 9.71247 137.642 13.3494 142.5 16.9996C147.359 20.6498 152.306 24.3643 157.211 28.0486C167.016 35.4133 176.824 42.7799 186.63 50.1447C186.88 50.4892 186.833 50.8149 186.494 51.1254C185.918 51.4794 185.217 51.61 184.393 51.5192C183.078 51.5192 181.774 51.4434 180.479 51.2958C179.644 51.292 178.99 51.0837 178.517 50.671C168.711 43.3063 158.903 35.9396 149.098 28.5749C144.195 24.8925 139.293 21.2102 134.387 17.5259C131.936 15.6838 129.482 13.8435 127.033 12.0014C124.638 10.2502 122.316 8.45914 120.071 6.62648C119.821 6.28569 119.859 5.95816 120.186 5.64388C120.736 5.28606 121.419 5.14785 122.231 5.22926C123.514 5.21601 124.788 5.27848 126.053 5.41291C126.875 5.41101 127.519 5.6117 127.981 6.01875Z" fill="white"/>
<path opacity="0.06" d="M120.645 8.67497C122.943 10.5606 125.33 12.399 127.805 14.19C130.265 16.0302 132.722 17.8705 135.176 19.7145C140.082 23.3969 144.984 27.0792 149.887 30.7635C159.692 38.1282 169.5 45.4949 179.306 52.8596C179.891 53.3007 179.926 54.1735 179.105 54.5294C178.473 54.6714 177.822 54.715 177.151 54.6563C176.475 54.6487 175.842 54.5427 175.25 54.3401C165.445 46.9754 155.637 39.6087 145.832 32.244C140.929 28.5616 136.027 24.8774 131.121 21.195C128.67 19.3529 126.216 17.5108 123.758 15.6705C121.29 13.9212 118.982 12.0866 116.837 10.1669C116.31 9.72194 116.24 8.85862 117.037 8.49701C117.626 8.35312 118.235 8.30957 118.865 8.36448C119.5 8.37205 120.092 8.47429 120.639 8.67497H120.645Z" fill="white"/>
<path opacity="0.06" d="M121.239 14.7975C131.474 22.0032 141.208 29.5024 151.075 36.9164C160.883 44.2811 170.688 51.6477 180.494 59.0125C180.879 59.2472 181.041 59.535 180.973 59.8777C180.953 60.2222 180.726 60.4911 180.285 60.6823C179.555 60.8186 178.813 60.8565 178.054 60.7902C177.289 60.777 176.565 60.6653 175.879 60.4551C166.074 53.0904 156.266 45.7237 146.461 38.359C141.558 34.6766 136.656 30.9924 131.75 27.31C126.85 23.6314 121.918 19.9699 117.069 16.2629C116.48 15.8142 116.43 14.9528 117.275 14.5931C117.925 14.453 118.596 14.4132 119.282 14.4738C119.973 14.4833 120.624 14.5912 121.233 14.7975H121.239Z" fill="white"/>
<path opacity="0.06" d="M127.627 10.4184C132.368 14.1254 137.247 17.7529 142.102 21.3974C147.005 25.0797 151.907 28.7621 156.813 32.4464C166.618 39.8111 176.426 47.1777 186.231 54.5425C186.487 54.887 186.44 55.2146 186.093 55.5232C185.493 55.8772 184.772 56.0059 183.93 55.9094C182.579 55.9037 181.238 55.8261 179.907 55.6746C179.054 55.6708 178.38 55.4607 177.889 55.0423C168.084 47.6776 158.275 40.3109 148.47 32.9462C143.568 29.2638 138.665 25.5815 133.759 21.8972C131.308 20.0551 128.854 18.2129 126.403 16.3708C124.007 14.6252 121.694 12.8342 119.464 10.9997C119.208 10.657 119.246 10.3294 119.581 10.0171C120.158 9.65924 120.861 9.52292 121.691 9.60812C123.016 9.59865 124.331 9.66492 125.638 9.80312C126.479 9.80123 127.141 10.0038 127.627 10.4146V10.4184Z" fill="white"/>
<path opacity="0.06" d="M117.422 9.60244C119.415 11.5695 121.675 13.4022 124.199 15.0985C126.648 16.9407 129.099 18.7828 131.55 20.623C136.453 24.3054 141.356 27.9878 146.261 31.672C156.066 39.0368 165.874 46.4034 175.68 53.7681C175.886 54.0351 175.956 54.3191 175.889 54.6182C175.883 54.9211 175.747 55.1937 175.48 55.438C174.953 55.7466 173.593 55.6633 173.14 55.3225C163.335 47.9578 153.527 40.5911 143.722 33.2264C138.819 29.544 133.916 25.8617 129.011 22.1774C126.56 20.3372 124.108 18.495 121.66 16.6529C119.135 14.966 116.899 13.1352 114.947 11.1606C114.747 10.8918 114.68 10.6097 114.744 10.3105C114.75 10.0095 114.883 9.73497 115.148 9.49075C115.636 9.20108 117.025 9.24463 117.425 9.60434L117.422 9.60244Z" fill="white"/>
<path opacity="0.06" d="M128.009 15.6382C132.75 19.3452 137.635 22.9727 142.491 26.6191C147.346 30.2655 152.296 33.9838 157.201 37.6681C167.006 45.0328 176.815 52.3994 186.62 59.7642C186.885 60.1106 186.838 60.4363 186.476 60.7449C185.849 61.0989 185.104 61.2238 184.245 61.1235C182.85 61.114 181.467 61.0307 180.093 60.8736C179.219 60.8698 178.524 60.6559 178.012 60.2337C168.207 52.8689 158.399 45.5023 148.594 38.1376C143.691 34.4552 138.789 30.7729 133.883 27.0886C131.432 25.2465 128.977 23.4043 126.526 21.5622C124.128 19.8147 121.812 18.0256 119.578 16.1911C119.314 15.8484 119.355 15.5209 119.699 15.2085C120.302 14.8506 121.029 14.7162 121.88 14.8071C123.248 14.8033 124.605 14.8734 125.955 15.0172C126.818 15.0154 127.5 15.2217 128.009 15.6363V15.6382Z" fill="white"/>
<path opacity="0.06" d="M128.24 13.6786C132.992 17.3818 137.877 21.0131 142.733 24.6614C147.635 28.3437 152.538 32.0261 157.443 35.7104C167.248 43.0751 177.057 50.4417 186.862 57.8064C187.138 58.1529 187.091 58.4804 186.721 58.7871C186.061 59.1412 185.287 59.2661 184.399 59.162C182.945 59.1488 181.503 59.0636 180.073 58.9045C179.172 58.9026 178.446 58.6887 177.898 58.2608C168.093 50.8961 158.285 43.5295 148.48 36.1647C143.577 32.4824 138.675 28.8 133.769 25.1157C128.863 21.4315 124.105 17.91 119.432 14.2201C119.152 13.8774 119.191 13.5499 119.553 13.2375C120.191 12.8778 120.95 12.7453 121.827 12.8399C123.258 12.8399 124.676 12.91 126.088 13.0558C126.98 13.0501 127.695 13.2583 128.24 13.6786Z" fill="white"/>
<path opacity="0.06" d="M125.375 12.132C127.961 13.904 130.457 15.7272 132.864 17.6015C135.315 19.4437 137.766 21.2858 140.218 23.126C145.12 26.8084 150.023 30.4908 154.928 34.175C164.734 41.5398 174.542 48.9064 184.347 56.2711C184.568 56.6138 184.521 56.9413 184.206 57.2518C183.697 57.6002 183.058 57.7327 182.287 57.6532C181.092 57.657 179.909 57.5869 178.735 57.443C177.955 57.4336 177.364 57.2272 176.964 56.824C157.418 42.1437 137.852 27.4767 118.362 12.7681C118.147 12.4273 118.188 12.0998 118.483 11.7855C118.948 11.4352 119.554 11.2951 120.301 11.3633C121.437 11.3463 122.564 11.4031 123.682 11.5337C124.436 11.5394 125.001 11.7401 125.377 12.132H125.375Z" fill="white"/>
<path opacity="0.06" d="M122.823 5.12871C125.118 7.01439 127.502 8.85273 129.976 10.6437C132.437 12.484 134.894 14.3242 137.345 16.1682C142.251 19.8506 147.153 23.533 152.056 27.2172C161.861 34.582 171.669 41.9486 181.474 49.3133C181.848 49.55 182.004 49.8359 181.939 50.1748C181.924 50.5155 181.707 50.7863 181.283 50.9832C180.586 51.1233 179.873 51.163 179.144 51.1024C178.408 51.093 177.713 50.9851 177.054 50.7787C167.249 43.414 157.441 36.0473 147.636 28.6826C142.733 25.0002 137.831 21.316 132.925 17.6336C130.474 15.7915 128.019 13.9494 125.562 12.1091C123.09 10.3598 120.783 8.5252 118.641 6.60545C118.288 6.36501 118.144 6.07723 118.208 5.74401C118.22 5.40891 118.429 5.13818 118.832 4.9337C119.488 4.79171 120.159 4.75006 120.851 4.80875C121.548 4.81632 122.205 4.92235 122.82 5.12493L122.823 5.12871Z" fill="white"/>
<path opacity="0.06" d="M131.794 11.0736C151.399 25.7822 170.985 40.5004 190.575 55.2166C190.934 55.5668 190.89 55.8944 190.437 56.1973C189.569 56.5551 188.607 56.6706 187.553 56.5418C185.737 56.5097 183.933 56.4036 182.141 56.2238C181.07 56.2276 180.155 56.0023 179.402 55.5498C159.859 40.8714 140.284 26.2101 120.771 11.5147C120.409 11.1683 120.447 10.8407 120.888 10.5321C121.736 10.1667 122.68 10.0437 123.728 10.1611C125.52 10.1762 127.304 10.2652 129.075 10.428C130.137 10.4148 131.041 10.6325 131.791 11.0755L131.794 11.0736Z" fill="white"/>
<path opacity="0.06" d="M129.619 9.02517C139.292 16.4183 149.129 23.7225 158.899 31.0607C168.704 38.4254 178.513 45.792 188.318 53.1568C188.618 53.5032 188.571 53.8308 188.179 54.1375C187.467 54.4953 186.646 54.6184 185.716 54.5086C184.171 54.4934 182.635 54.4044 181.111 54.2416C180.166 54.2416 179.392 54.0258 178.792 53.5922C168.987 46.2275 159.179 38.8609 149.374 31.4961C144.471 27.8138 139.568 24.1314 134.663 20.4471C129.757 16.7629 124.996 13.2187 120.261 9.5515C119.958 9.20692 119.999 8.87939 120.379 8.5689C121.067 8.2054 121.874 8.07476 122.792 8.1751C124.31 8.1751 125.823 8.24894 127.324 8.39851C128.257 8.38904 129.022 8.5973 129.616 9.02328L129.619 9.02517Z" fill="white"/>
<path opacity="0.06" d="M122.176 7.15648C127.334 10.7821 132.328 14.4947 137.301 18.2244C142.275 21.9541 147.112 25.5891 152.015 29.2734C161.823 36.6381 171.628 44.0048 181.433 51.3695C181.842 51.5967 182.016 51.8845 181.957 52.2347C181.937 52.5869 181.695 52.8538 181.239 53.0393C180.462 53.1757 179.674 53.2116 178.87 53.1473C178.061 53.134 177.29 53.0223 176.554 52.8121C166.749 45.4474 156.941 38.0808 147.136 30.7161C142.233 27.0337 137.331 23.3494 132.425 19.6671C127.526 15.9885 122.593 12.325 117.741 8.61996C117.367 8.3833 117.211 8.09742 117.276 7.75664C117.291 7.41586 117.511 7.14512 117.935 6.94822C118.636 6.80812 119.351 6.76837 120.08 6.83084C120.819 6.84031 121.516 6.95012 122.176 7.15459V7.15648Z" fill="white"/>
<path opacity="0.06" d="M119.093 12.9083C121.209 14.8223 123.484 16.655 125.92 18.4063C128.369 20.2484 130.817 22.0886 133.268 23.9307C138.171 27.615 143.074 31.2955 147.976 34.9797C157.781 42.3445 167.59 49.7111 177.395 57.0758C177.93 57.4791 177.88 58.4125 177.189 58.7457C176.662 58.8915 176.115 58.9369 175.541 58.8858C174.961 58.8801 174.431 58.7779 173.949 58.5829C164.144 51.2181 154.335 43.8515 144.53 36.4868C139.628 32.8044 134.722 29.122 129.82 25.4378C127.368 23.5956 124.917 21.7535 122.463 19.9133C120 18.1961 117.763 16.3653 115.753 14.421C115.279 13.9969 115.25 13.0995 115.959 12.7511C116.465 12.6053 116.998 12.558 117.554 12.6091C118.116 12.6148 118.628 12.7152 119.093 12.9102V12.9083Z" fill="white"/>
<path opacity="0.06" d="M122.021 12.486C132.253 19.6917 141.982 27.1927 151.852 34.6029C161.66 41.9677 171.465 49.3343 181.27 56.699C181.694 56.9224 181.876 57.2121 181.814 57.5661C181.788 57.922 181.538 58.189 181.064 58.3689C180.252 58.5033 179.431 58.5355 178.595 58.4673C177.753 58.4522 176.947 58.3367 176.179 58.1227C166.374 50.758 156.566 43.3914 146.761 36.0266C141.858 32.3443 136.955 28.66 132.05 24.9776C127.15 21.2991 122.218 17.6356 117.366 13.9305C116.974 13.6977 116.812 13.4099 116.877 13.0653C116.898 12.7189 117.127 12.45 117.569 12.2607C118.304 12.1225 119.055 12.0865 119.82 12.1509C120.591 12.1641 121.324 12.2758 122.018 12.4841L122.021 12.486Z" fill="white"/>
<path opacity="0.06" d="M124.15 8.59547C125.71 9.6254 127.337 10.6269 128.809 11.7099C131.275 13.5198 133.658 15.3828 136.092 17.2116C141.607 21.3541 147.124 25.4984 152.642 29.6408C163.062 37.4675 173.482 45.2923 183.9 53.119C184.106 53.4598 184.059 53.7873 183.761 54.0997C183.296 54.4461 182.696 54.5825 181.957 54.5086C180.836 54.5181 179.724 54.4537 178.623 54.3155C177.876 54.3023 177.323 54.0997 176.964 53.7059C167.77 46.8012 158.577 39.8946 149.381 32.99C140.218 26.108 130.989 19.2563 121.931 12.3176L122.444 12.6925L118.683 10.0078C118.23 9.792 118.029 9.50234 118.085 9.13884C118.118 8.77533 118.383 8.50838 118.883 8.33799C119.757 8.20546 120.646 8.17517 121.54 8.24522C122.444 8.26226 123.312 8.37964 124.147 8.59547H124.15Z" fill="white"/>
<path opacity="0.06" d="M133.787 12.9727C153.427 27.668 172.993 42.4032 192.592 57.1232C192.992 57.4772 192.945 57.8029 192.451 58.1039C191.483 58.4598 190.429 58.5696 189.293 58.4295C187.304 58.386 185.323 58.2686 183.355 58.0774C182.198 58.0793 181.195 57.8483 180.344 57.3845C160.796 42.7023 141.303 27.9861 121.675 13.3494C121.272 12.9992 121.313 12.6716 121.796 12.3668C122.746 12.0014 123.785 11.884 124.912 12.0109C126.881 12.0355 128.843 12.1339 130.795 12.3081C131.939 12.2949 132.937 12.5164 133.787 12.9727Z" fill="white"/>
<path opacity="0.06" d="M130.582 7.23781C150.119 21.9748 169.75 36.6646 189.337 51.3751C189.655 51.7235 189.611 52.051 189.202 52.3558C188.445 52.7136 187.586 52.8367 186.621 52.7212C184.999 52.7023 183.387 52.6095 181.786 52.4429C180.806 52.4467 179.991 52.2271 179.346 51.7897C169.541 44.425 159.733 37.0584 149.928 29.6936C140.199 22.3857 130.406 15.1099 120.771 7.75088C120.454 7.40631 120.492 7.07877 120.886 6.76828C121.619 6.40289 122.463 6.27415 123.417 6.37827C125.012 6.38206 126.598 6.45779 128.175 6.60925C129.143 6.59789 129.947 6.80804 130.585 7.2397L130.582 7.23781Z" fill="white"/>
<path opacity="0.06" d="M118.362 7.05996C120.351 9.02894 122.608 10.8616 125.136 12.5561C127.584 14.3982 130.036 16.2403 132.487 18.0806C137.39 21.7629 142.292 25.4453 147.198 29.1295C157.003 36.4943 166.811 43.8609 176.616 51.2256C176.825 51.4926 176.896 51.7766 176.828 52.0757C176.822 52.3786 176.687 52.6513 176.419 52.8955C175.892 53.2041 174.524 53.1227 174.068 52.7819C164.263 45.4172 154.454 38.0505 144.649 30.6858C139.747 27.0034 134.844 23.3211 129.939 19.6368C127.487 17.7966 125.036 15.9544 122.588 14.1123C120.06 12.4254 117.823 10.5947 115.872 8.62C115.669 8.35115 115.602 8.06906 115.666 7.76993C115.672 7.4689 115.805 7.19438 116.069 6.95015C116.558 6.66049 117.962 6.70214 118.362 7.06186V7.05996Z" fill="white"/>
<path opacity="0.06" d="M130.991 14.6916C150.566 29.4135 170.171 44.1183 189.761 58.8327C190.093 59.1829 190.046 59.5086 189.619 59.8134C188.819 60.1693 187.921 60.2867 186.927 60.1655C185.235 60.139 183.551 60.0368 181.883 59.8626C180.868 59.8626 180.02 59.6411 179.337 59.1962C169.532 51.8314 159.724 44.4648 149.919 37.1001C140.184 29.7884 130.412 22.4975 120.733 15.1554C120.4 14.809 120.439 14.4814 120.854 14.1728C121.63 13.8093 122.513 13.6825 123.499 13.7942C125.168 13.8056 126.824 13.8889 128.475 14.0479C129.479 14.0384 130.317 14.2524 130.997 14.6897L130.991 14.6916Z" fill="white"/>
</g>
<path d="M9.91992 63.8347L20.243 8.35309L25.3045 12.6508L21.8615 59.7964L9.91992 63.8347Z" fill="#FFE792"/>
<path d="M25.3037 12.6506L20.2422 8.35296L30.5653 0.868951L36.8421 10.6798L25.3037 12.6506Z" fill="url(#paint0_linear_1438_8379)"/>
<path d="M30.5664 0.868876L156.412 5.77428L180.702 3.29981L177.936 10.6797H36.8433L30.5664 0.868876Z" fill="url(#paint1_linear_1438_8379)"/>
<path d="M177.936 10.6627L186.437 22.645L195.819 14.222L180.702 3.28277" fill="url(#paint2_linear_1438_8379)"/>
<path d="M195.819 14.2391L200.001 33.4707L193.22 41.6325L190.69 69.0259L186.438 64.2076V22.6621L195.819 14.2391Z" fill="url(#paint3_linear_1438_8379)"/>
<path d="M33.0645 76.4058L30.5661 69.0259L21.8615 59.7963L9.91992 63.8346L33.0645 76.4058Z" fill="#FFCE6D"/>
<path d="M33.0648 76.4058L30.5664 69.0259L71.3733 64.4234L179.557 69.0259L184.212 71.7181L33.0648 76.4058Z" fill="url(#paint4_linear_1438_8379)"/>
<path d="M184.212 71.718L190.689 69.0258L186.437 64.2075L179.557 69.0258L184.212 71.718Z" fill="url(#paint5_linear_1438_8379)"/>
<path d="M179.557 69.0259L186.437 64.2076V22.6621L185.121 63.2079L179.557 69.0259Z" fill="white"/>
<path d="M184.212 18.2148L177.935 10.6797L72.7383 10.0928L176.717 11.9785L184.212 18.2148Z" fill="url(#paint6_linear_1438_8379)"/>
</g>
<defs>
<linearGradient id="paint0_linear_1438_8379" x1="20.2422" y1="6.76074" x2="36.8421" y2="6.76074" gradientUnits="userSpaceOnUse">
<stop stop-color="#FFCE6D"/>
<stop offset="1" stop-color="#FFE792"/>
</linearGradient>
<linearGradient id="paint1_linear_1438_8379" x1="30.5664" y1="5.77428" x2="180.702" y2="5.77428" gradientUnits="userSpaceOnUse">
<stop stop-color="#FFE792"/>
<stop offset="1" stop-color="#FFE792"/>
</linearGradient>
<linearGradient id="paint2_linear_1438_8379" x1="177.936" y1="12.9629" x2="195.819" y2="12.9629" gradientUnits="userSpaceOnUse">
<stop stop-color="#F7BE2B"/>
<stop offset="1" stop-color="#FFE792"/>
</linearGradient>
<linearGradient id="paint3_linear_1438_8379" x1="186.438" y1="41.6325" x2="200.001" y2="41.6325" gradientUnits="userSpaceOnUse">
<stop stop-color="#FFE792"/>
<stop offset="1" stop-color="#FFCE6D"/>
</linearGradient>
<linearGradient id="paint4_linear_1438_8379" x1="30.5664" y1="70.4155" x2="184.212" y2="70.4155" gradientUnits="userSpaceOnUse">
<stop stop-color="#FFE792"/>
<stop offset="1" stop-color="#FFF2C2"/>
</linearGradient>
<linearGradient id="paint5_linear_1438_8379" x1="179.557" y1="67.9618" x2="190.689" y2="67.9618" gradientUnits="userSpaceOnUse">
<stop stop-color="#F9B233"/>
<stop offset="1" stop-color="#FFE792"/>
</linearGradient>
<linearGradient id="paint6_linear_1438_8379" x1="72.7383" y1="14.1538" x2="122.2" y2="14.1538" gradientUnits="userSpaceOnUse">
<stop stop-color="white"/>
</linearGradient>
<clipPath id="clip0_1438_8379">
<rect width="200" height="76.4058" fill="white" transform="matrix(1 0 0 -1 0 76.4058)"/>
</clipPath>
</defs>
</svg>
