<svg width="200" height="109" viewBox="0 0 200 109" fill="none" xmlns="http://www.w3.org/2000/svg">
<path d="M21.7233 11.7524L12.5645 25.0659L16.1871 92.9473L28.3278 95.7605H176.783L185.729 78.508V18.69L178.49 11.7524H21.7233Z" fill="#F39200"/>
<path opacity="0.06" d="M42.6363 85.5578C45.8316 82.9218 48.9651 80.2259 52.1822 77.6117C55.4519 74.9566 58.7525 72.3261 62.1492 69.7991C64.8399 67.7983 67.5678 65.8356 70.342 63.9247C74.4694 61.0816 78.7609 58.4865 83.1205 55.9296L81.0831 57.0281C84.5077 55.2344 88.0158 53.5198 91.2267 51.4318C92.4125 50.7012 93.5303 49.8916 94.58 49.0084C96.1033 47.749 97.475 46.3724 98.6919 44.8759C99.6331 43.7501 99.726 42.5697 98.9736 41.3376C97.5184 39.8356 95.6172 39.1023 93.2671 39.1405C89.533 38.6444 85.7772 38.4127 81.9997 38.4481C79.6774 38.1237 77.6803 38.6144 76.0021 39.9256C73.0823 42.0818 70.0727 44.1181 67.0228 46.1271C65.5056 47.1275 63.9946 48.1306 62.5053 49.161C59.6691 51.121 56.8174 53.0619 54.0121 55.0545C42.4164 63.306 31.4864 72.2825 20.993 81.6025C20.1632 82.7692 20.1354 83.9495 20.9064 85.1489C22.3183 86.5691 24.1513 87.2179 26.3961 87.0952C29.9414 87.4278 33.4959 87.4959 37.0536 87.2969C39.2922 87.5041 41.1531 86.9262 42.6332 85.5605L42.6363 85.5578Z" fill="#F7BB1E"/>
<path opacity="0.06" d="M21.3608 75.717L27.123 72.4677C28.9003 70.7531 30.7828 69.1339 32.7645 67.6101C35.418 65.492 38.087 63.3903 40.787 61.3213C47.4224 56.2402 54.2962 51.4153 61.5849 47.0756C62.6532 46.3886 63.7617 45.7562 64.9042 45.1756C65.6814 44.7694 66.4523 44.3578 67.2202 43.938C69.205 42.8694 71.1587 41.7436 72.9763 40.4652C74.2086 39.5983 75.3573 38.6579 76.4627 37.6711C76.9643 37.2213 77.4628 36.7688 77.9551 36.3136C78.9181 35.4685 79.782 34.5472 80.5468 33.5549C81.135 32.4127 81.2465 31.2351 80.8811 30.0221C80.5839 29.0489 79.9058 28.4847 78.8469 28.3266C77.5217 27.7786 76.1128 27.5088 74.6173 27.5142C72.7533 27.2852 70.9327 27.4188 69.1554 27.9149L65.9631 30.9734L67.1986 29.8422C65.8486 31.0525 64.4181 32.1783 62.8978 33.2196C61.3992 34.2473 59.8634 35.2259 58.2812 36.1555C56.7083 37.0714 55.1384 37.9873 53.5655 38.9032C50.6209 40.686 47.7351 42.5342 44.902 44.4505C39.2172 48.2859 33.7615 52.3693 28.4235 56.57C25.7421 58.6826 23.0854 60.8225 20.4536 62.9869C18.1623 65.5329 15.484 67.7137 12.4155 69.5291C11.5114 70.3578 11.0872 71.3555 11.146 72.5222C11.0377 73.6862 11.4154 74.6975 12.2824 75.5562C13.6912 76.1995 15.1991 76.4939 16.803 76.434C18.4007 76.5484 19.921 76.3086 21.3577 75.7143L21.3608 75.717Z" fill="#F7BB1E"/>
<path opacity="0.06" d="M24.0294 53.6541L29.6802 50.3994L33.3121 47.1473L37.3064 43.9443L41.2882 40.7959C47.1743 36.1945 53.2183 31.7539 59.5627 27.6459C61.9902 26.0731 64.4424 24.5138 66.9938 23.0991C68.5017 22.2622 70.0096 21.4281 71.4834 20.5449C73.0533 19.6044 74.5643 18.6067 76.0195 17.53C76.8153 16.9793 77.5615 16.3851 78.2644 15.7445C79.4472 14.785 80.5402 13.7518 81.5464 12.6424L82.6642 11.4757L83.1596 9.73106L82.9862 7.94012C82.7354 6.98604 82.1007 6.42722 81.0789 6.25821C80.3048 5.89021 79.475 5.69939 78.5895 5.68304C77.611 5.48132 76.6202 5.41044 75.617 5.47314C74.7377 5.36683 73.8831 5.44043 73.0533 5.69394C72.016 5.71575 71.2853 6.18189 70.8673 7.0869L69.0776 9.02504L70.2078 7.88015C68.9383 9.12318 67.5542 10.2599 66.0618 11.293C64.5539 12.3343 62.9934 13.3075 61.3771 14.2125C59.7391 15.1202 58.0981 16.0225 56.454 16.9194C53.4351 18.683 50.4781 20.5231 47.5768 22.4367C41.7929 26.2421 36.2536 30.3201 30.8475 34.5317C28.1444 36.6415 25.4723 38.7787 22.828 40.9458C20.5244 43.47 17.8554 45.6508 14.8179 47.4881C13.8952 48.3113 13.4648 49.3117 13.5236 50.4839C13.4214 51.656 13.8147 52.6646 14.7033 53.5151C16.1617 54.1557 17.7098 54.4447 19.354 54.382C20.995 54.4937 22.5525 54.2484 24.0325 53.6514L24.0294 53.6541Z" fill="#F7BB1E"/>
<path opacity="0.06" d="M41.3604 69.7133L45.3763 66.5675L49.0609 63.3754C52.2842 60.6713 55.622 58.0653 58.9784 55.492C61.6381 53.4557 64.3381 51.4631 67.0938 49.5249C70.506 47.1234 74.0048 44.8581 77.5532 42.6174L75.652 43.7541L81.8601 40.0714L79.9373 41.1808C83.303 39.3626 86.7368 37.618 89.9198 35.5572C91.1088 34.8239 92.2359 34.0198 93.2979 33.142C94.8461 31.8881 96.2456 30.517 97.4996 29.0313C98.3913 27.9001 98.4811 26.7197 97.769 25.4931C96.4252 24.0156 94.6262 23.2932 92.369 23.3259C88.833 22.8489 85.2754 22.639 81.6991 22.6935C79.4698 22.3937 77.5749 22.898 76.0174 24.201C74.7015 25.3295 73.3825 26.4417 71.9643 27.4748C70.5462 28.5079 69.0074 29.5138 67.4871 30.4815C62.92 33.3983 58.3127 36.2496 53.8571 39.2999C48.1475 43.2089 42.6423 47.3333 37.2609 51.5885C34.5764 53.712 31.9228 55.8628 29.291 58.0381C26.2318 60.5677 23.2996 63.2119 20.3148 65.8097C19.5097 66.9791 19.485 68.1595 20.2374 69.3562C21.5967 70.7655 23.377 71.4088 25.5785 71.2861C29.0247 71.6105 32.4771 71.6678 35.9357 71.4606C38.1279 71.6541 39.9361 71.0708 41.3542 69.7105L41.3604 69.7133Z" fill="#F7BB1E"/>
<path opacity="0.06" d="M10.4777 72.8827L18.7077 69.0746L20.9494 65.7953L25.1604 62.5896L29.1608 59.4357C35.0964 54.7934 41.1962 50.3338 47.6179 46.2176C50.0981 44.6284 52.5999 43.0473 55.2132 41.6271C56.7675 40.7821 58.3219 39.9425 59.836 39.0456C61.3501 38.1488 62.9323 37.1184 64.3844 36.0307C65.1647 35.4883 65.8923 34.8968 66.5704 34.2562C67.7068 33.3157 68.744 32.2962 69.6822 31.1949C70.4253 30.3308 70.8062 29.3495 70.8248 28.2536C71.0105 27.1687 70.8155 26.1465 70.2457 25.187C69.3354 24.5137 68.2796 24.1702 67.0751 24.1538C65.883 23.9957 64.7777 24.1838 63.7528 24.7126C62.4678 26.0293 61.1952 27.3214 59.7307 28.4881C58.2661 29.6548 56.7923 30.6497 55.2441 31.6256C53.696 32.6015 52.123 33.4793 50.5439 34.3761C47.5064 36.0989 44.5495 37.9144 41.642 39.8035C35.8953 43.538 30.3622 47.5233 25.0087 51.6858C22.2994 53.793 19.6211 55.9356 16.9056 58.0345C15.472 58.8769 14.3512 59.959 13.5368 61.2866C12.0785 63.5573 9.88937 65.1901 6.97264 66.1878C6.47723 67.1364 6.2512 68.1396 6.29765 69.1918C6.19237 70.0259 6.30075 70.8246 6.62586 71.5906C6.68469 72.204 7.06553 72.6183 7.77459 72.8309C8.66942 73.1117 9.57045 73.1281 10.4746 72.8773L10.4777 72.8827Z" fill="#F7BB1E"/>
<path opacity="0.06" d="M42.054 50.958C44.8902 49.0389 47.5282 46.9263 49.9681 44.6229C52.5752 42.4803 55.2102 40.3623 57.8761 38.2769C60.5173 36.2134 63.1987 34.1962 65.9265 32.2226C68.6265 30.2709 71.3791 28.379 74.1844 26.5472L72.404 27.7139C75.5684 25.694 78.7081 23.6386 82.0459 21.845C83.9842 20.8009 85.907 19.7405 87.7989 18.6311C89.186 17.816 90.5639 16.9873 91.8891 16.0932C93.0843 15.2973 94.1927 14.4195 95.2207 13.46C96.3818 12.495 97.4346 11.4428 98.3759 10.3033C99.2119 9.16662 99.2986 7.98629 98.6359 6.76507C97.4191 5.3176 95.7378 4.60885 93.589 4.63338C90.2821 4.17815 86.9567 3.99006 83.6126 4.06911C81.4855 3.80197 79.7144 4.31445 78.2963 5.612C77.2342 6.84412 76.0422 7.96993 74.72 8.99216C73.3174 10.0771 71.8436 11.083 70.3016 12.0098L72.1037 10.9439C68.0568 13.3182 63.9294 15.5699 59.9785 18.0695C57.133 19.8714 54.3277 21.7223 51.5658 23.6223C46.5188 27.0924 41.6329 30.7315 36.8615 34.4906C34.1615 36.6223 31.4925 38.784 28.8513 40.9729C26.5445 43.0855 24.1666 45.1354 21.7174 47.1199C20.9433 48.292 20.9216 49.4724 21.6524 50.6663C22.9497 52.0593 24.6682 52.6999 26.8139 52.5827C30.1456 52.8961 33.4803 52.9452 36.8212 52.7244C38.9608 52.9016 40.704 52.3128 42.0509 50.958H42.054Z" fill="#F7BB1E"/>
<path opacity="0.06" d="M43.1565 57.9941C49.4915 52.6213 55.8266 47.2484 62.5363 42.2327C65.2146 40.2319 67.927 38.2665 70.6858 36.3529C74.7822 33.5124 79.0396 30.9092 83.3621 28.3441L81.43 29.4562C84.7926 27.638 88.2202 25.8853 91.4063 23.8299C92.5984 23.0966 93.7285 22.2925 94.7967 21.4174C96.3573 20.1635 97.7723 18.7924 99.0449 17.3067C99.9428 16.1755 100.033 14.9951 99.3081 13.7685C97.9364 12.2883 96.1127 11.5686 93.8369 11.6068C90.2575 11.1325 86.6596 10.9253 83.0401 10.9825C80.789 10.6827 78.8755 11.187 77.2964 12.4954C76.095 13.6458 74.8937 14.7689 73.5499 15.7911C72.1379 16.8651 70.6269 17.8492 69.1067 18.8005C67.4904 19.8119 65.8339 20.7796 64.199 21.7664C61.0872 23.6473 58.0219 25.5827 55.0122 27.589C49.1881 31.4789 43.5838 35.6087 38.1188 39.883C35.4095 42.0037 32.7343 44.1572 30.09 46.338C27.0278 48.8595 24.077 51.46 21.1541 54.1069C20.3181 55.2763 20.2933 56.4594 21.086 57.6534C22.5381 59.0736 24.399 59.7169 26.6717 59.5806C30.2758 59.9023 33.883 59.9568 37.4995 59.7442C39.766 59.9486 41.6517 59.3625 43.1596 57.9887L43.1565 57.9941Z" fill="#F7BB1E"/>
<path opacity="0.06" d="M33.2081 64.6597L39.1221 61.5194C40.2956 60.6608 41.3855 59.7285 42.3918 58.7199C45.4292 55.9258 48.7392 53.3798 52.0058 50.7929L50.4236 52.0141L56.0124 47.7207L54.424 48.9338C58.4523 45.9461 62.5147 43.0103 66.7195 40.2189C69.4969 38.3898 72.33 36.6343 75.225 34.9497C76.3707 34.3364 77.5132 33.7176 78.6496 33.0879C80.8077 31.8994 82.8884 30.6318 84.9413 29.307C86.1302 28.5765 87.2573 27.775 88.3224 26.9027C89.8737 25.6543 91.2794 24.2886 92.5396 22.8084C93.3137 21.6689 93.4004 20.4886 92.8059 19.2701C91.7562 17.8581 90.2236 17.1548 88.2079 17.1575C85.189 16.7159 82.1484 16.5387 79.0892 16.6287C77.0921 16.3915 75.4665 16.9122 74.2156 18.1906C73.0112 19.4091 71.7076 20.5377 70.3019 21.5762C68.8683 22.6394 67.379 23.6452 65.8401 24.5911L67.5369 23.5171C63.617 25.8723 59.6382 28.1458 55.8174 30.6264C51.4423 33.4668 47.157 36.419 43.0048 39.5102C41.0913 40.9359 39.1871 42.3779 37.2983 43.8308C34.5829 45.9271 31.9015 48.056 29.2541 50.2177C26.7059 52.1777 24.331 54.2903 22.1357 56.5555L23.6931 55.3288L18.8103 58.3982C17.4974 59.0525 16.8348 60.0474 16.8224 61.3831C16.7791 62.7161 17.4014 63.7302 18.6864 64.428C21.0365 65.0959 23.4516 65.4012 25.9318 65.3439C28.4088 65.4802 30.8332 65.254 33.2112 64.6597H33.2081Z" fill="#F7BB1E"/>
<path opacity="0.06" d="M27.0982 88.559L32.8264 85.3152L36.7649 82.0686C40.0656 79.3862 43.4591 76.7748 46.862 74.1906C52.8688 69.6274 59.0738 65.2141 65.6442 61.2969L70.0224 58.7454L72.3818 57.5515C73.9671 56.7364 75.5586 55.9132 77.0634 54.9863C78.7726 53.9369 80.3981 52.7729 81.9649 51.5653C82.7513 51.0174 83.4666 50.4068 84.1106 49.728C85.216 48.7548 86.1851 47.6808 87.018 46.5087C87.7054 45.3747 87.82 44.1971 87.3586 42.9759C86.6186 41.6265 85.3553 40.9178 83.5718 40.8442C81.0545 40.3889 78.5094 40.1981 75.9394 40.2717C74.1683 40.0782 72.7874 40.5907 71.7997 41.8092C70.4404 43.0794 68.9975 44.2761 67.4741 45.3938L68.9882 44.3116L65.186 47.0239L66.7124 45.9499C65.2386 46.9639 63.7307 47.9398 62.1887 48.8748C60.653 49.7962 59.1172 50.723 57.5876 51.6552C53.2373 54.3567 49.0015 57.1971 44.8742 60.1547C40.7251 63.1287 36.6813 66.2227 32.7026 69.3711C30.0335 71.4892 27.3893 73.6291 24.7667 75.7907C22.3206 78.2904 19.5463 80.4712 16.4407 82.3275C15.3973 83.1017 14.8926 84.0967 14.9359 85.3152C14.8338 86.5309 15.2889 87.545 16.2921 88.3573C18.0013 89.0143 19.794 89.3141 21.6704 89.2596C23.5437 89.3877 25.3488 89.156 27.0889 88.5645L27.0982 88.559Z" fill="#F7BB1E"/>
<path opacity="0.06" d="M52.9775 67.4256C57.9718 63.0559 63.1179 58.8225 68.3971 54.72C74.3079 50.124 80.4232 45.7298 86.8449 41.6954C89.3065 40.1498 91.7866 38.5933 94.3999 37.2494C95.9573 36.448 97.4993 35.6302 99.0072 34.7606C100.602 33.842 102.119 32.8579 103.565 31.7676C104.358 31.2169 105.091 30.6118 105.766 29.9521C106.924 28.9735 107.968 27.9076 108.894 26.7491C110.052 25.6342 110.142 24.4539 109.169 23.2108C107.163 21.6243 104.754 20.8638 101.949 20.9292C97.2423 20.3786 92.5173 20.0951 87.7707 20.076C85.0026 19.6726 82.5008 20.1387 80.2652 21.469C78.9741 22.5321 77.6798 23.5816 76.3113 24.5656C74.8591 25.6069 73.3543 26.591 71.8464 27.5696C67.2143 30.5736 62.5698 33.5612 58.0554 36.7015C52.3272 40.6841 46.791 44.8739 41.3787 49.1863C38.6942 51.3235 36.0375 53.4906 33.4026 55.6768C32.1176 56.7426 30.8327 57.8085 29.5446 58.8716C27.7487 60.2945 26.0581 61.8074 24.4697 63.413C23.3922 64.577 23.3674 65.76 24.3954 66.9594C26.4545 68.4533 28.8696 69.1075 31.6377 68.9194C36.3069 69.2629 40.9793 69.3392 45.6578 69.1484C48.4166 69.4264 50.8565 68.854 52.9775 67.4256Z" fill="#F7BB1E"/>
<path opacity="0.06" d="M47.122 74.745C57.8229 65.5668 68.8705 56.642 81.0514 48.9958C83.5254 47.442 86.0179 45.8827 88.6436 44.5334C90.2103 43.7292 91.7615 42.906 93.2787 42.0337C94.8702 41.1178 96.3874 40.1365 97.8303 39.0461C98.6168 38.5009 99.3475 37.8985 100.013 37.2388C101.159 36.2684 102.187 35.2107 103.1 34.0603C104.134 32.9373 104.224 31.7596 103.376 30.5221C101.682 28.9792 99.5611 28.235 97.016 28.2922C92.8638 27.7743 88.69 27.5208 84.4945 27.5344C81.9803 27.1719 79.7664 27.6544 77.8467 28.9765C75.0755 31.1654 72.1867 33.1853 69.1925 35.1344C64.6626 38.0866 60.1451 41.0578 55.7329 44.149C50.0759 48.1098 44.6109 52.2723 39.2574 56.5466C36.5853 58.6783 33.9441 60.8372 31.3216 63.018C30.0397 64.0757 28.7671 65.1442 27.5038 66.2183C25.7296 67.6794 24.0205 69.1977 22.3794 70.7706C21.4381 71.9373 21.4103 73.1176 22.2989 74.317C24.005 75.7754 26.0981 76.4269 28.5813 76.2688C32.6344 76.6068 36.6906 76.675 40.756 76.4814C43.2269 76.7268 45.3478 76.1489 47.1189 74.7505L47.122 74.745Z" fill="#F7BB1E"/>
<path opacity="0.06" d="M25.8878 81.1374L32.2383 77.9017L36.4184 74.6579C39.7902 72.0301 43.1312 69.3723 46.5371 66.7772C52.5254 62.2194 58.6994 57.8061 65.2357 53.8698C67.3815 52.5777 69.552 51.3402 71.7627 50.1435C73.2923 49.3175 74.8219 48.4834 76.2926 47.5756C78.0142 46.5125 79.6614 45.3567 81.2591 44.1519C82.0642 43.5958 82.8073 42.9824 83.4916 42.3119C84.662 41.3332 85.7054 40.2538 86.6219 39.0734C87.3279 37.9394 87.4425 36.7618 86.9594 35.5406C86.1637 34.1776 84.8539 33.4634 83.0271 33.4008C80.4169 32.9401 77.782 32.7438 75.1191 32.8147C73.3078 32.6075 71.8804 33.1173 70.8369 34.3439C69.4622 35.6551 67.9945 36.8791 66.434 38.0158L67.9667 36.9281L64.1396 39.635L65.6878 38.5555C62.7277 40.4991 59.6809 42.3255 56.6682 44.2037C52.3024 46.9241 48.0295 49.7482 43.8712 52.714C39.7004 55.6908 35.6381 58.7902 31.6438 61.9468C28.9686 64.0621 26.3213 66.2047 23.7049 68.3718C21.1102 70.9397 18.1439 73.1177 14.7968 74.9005C12.7347 76.2117 12.6356 79.5482 14.6575 80.9303C16.441 81.5872 18.308 81.8898 20.2525 81.8298C22.1939 81.9579 24.0734 81.7262 25.8847 81.132L25.8878 81.1374Z" fill="#F7BB1E"/>
<path opacity="0.06" d="M15.7685 60.4783L22.5587 57.2426L25.46 53.9769L29.3675 50.7685L33.337 47.6146C39.2355 42.9859 45.3073 38.5344 51.6764 34.4155C54.1256 32.8318 56.5996 31.2589 59.1726 29.8332C60.6991 28.9882 62.2225 28.1459 63.7149 27.2545C65.2878 26.3141 66.8019 25.3191 68.2541 24.2396C69.0405 23.6944 69.7806 23.1029 70.4741 22.465C71.6384 21.5191 72.7097 20.4969 73.6912 19.3983C74.5396 18.5724 74.9731 17.5965 74.9917 16.4652C75.1805 15.3476 74.9297 14.3226 74.2423 13.3876C73.1122 12.6925 71.8489 12.3354 70.4525 12.3164C69.0715 12.1364 67.7587 12.3109 66.5171 12.837L64.6809 14.8133L62.656 16.6043C61.2626 17.741 59.7361 18.7741 58.1911 19.7418C56.6367 20.7122 55.0174 21.6009 53.4042 22.495C50.3079 24.2124 47.3014 26.0333 44.3444 27.9333C38.5357 31.6678 32.9654 35.6695 27.5531 39.8374C24.8407 41.9282 22.1562 44.0436 19.5058 46.1943C18.1558 47.1157 17.004 48.2006 16.0534 49.4464C14.4154 51.589 12.2202 53.2218 9.47373 54.3503C8.80492 55.2581 8.50149 56.2585 8.56341 57.3516C8.45814 58.442 8.72442 59.4506 9.35297 60.3801C10.2943 60.9989 11.3563 61.2797 12.5453 61.2279C13.7312 61.3151 14.8056 61.0671 15.7685 60.4783Z" fill="#F7BB1E"/>
<path opacity="0.06" d="M25.758 61.9921L31.5915 58.7428L35.5269 55.4934C38.8151 52.8138 42.1839 50.2024 45.5589 47.6073C51.4822 43.0577 57.5788 38.6389 64.0253 34.6727C66.1649 33.3561 68.3292 32.0912 70.543 30.8809C72.0819 30.0413 73.6239 29.199 75.1008 28.2776C76.9307 27.1355 78.6554 25.8843 80.3057 24.5486C80.9219 24.0661 81.5133 23.5618 82.0768 23.0329C83.241 22.0625 84.2999 21.0076 85.2567 19.8681C85.9038 18.7287 86.0122 17.5511 85.5818 16.3326C84.9254 15.0159 83.7426 14.3154 82.0366 14.2309C79.6772 13.7947 77.293 13.6257 74.8841 13.7211C73.1842 13.563 71.8899 14.0864 71.0013 15.2913C69.8185 16.6024 68.515 17.8128 67.0938 18.9249L68.4592 17.8209C67.0411 18.9413 65.5549 19.9826 63.9943 20.9476C62.4276 21.918 60.8299 22.8503 59.2075 23.7471C54.597 26.3613 50.1662 29.1826 45.8376 32.1485C40.8587 35.5586 36.0439 39.1378 31.3314 42.8287C28.6376 44.9413 25.9747 47.0812 23.3398 49.251C20.8844 51.7698 18.0854 53.9505 14.9426 55.7906C13.8898 56.562 13.3882 57.5597 13.4316 58.7836C13.3387 60.0021 13.8001 61.0162 14.8218 61.8203C16.5558 62.4718 18.3764 62.7662 20.2744 62.7035C22.1694 62.8262 23.9993 62.5863 25.758 61.9893V61.9921Z" fill="#F7BB1E"/>
<path opacity="0.06" d="M31.718 75.9962C34.7029 75.0231 37.2821 73.5674 39.4619 71.6265C41.812 69.4104 44.2767 67.295 46.8528 65.2833L45.3139 66.51L50.8192 62.1403L49.2741 63.3588C57.8385 56.762 66.6227 50.3697 76.2987 45.0677C78.4445 43.8928 80.5592 42.6852 82.6121 41.3904C84.2036 40.4363 85.7084 39.3896 87.1327 38.2474C88.6808 36.9989 90.0866 35.636 91.3468 34.1558C92.1209 33.0163 92.2106 31.8387 91.6192 30.6175C90.5789 29.2055 89.0524 28.4994 87.0429 28.4994C84.0364 28.0524 81.0082 27.8725 77.9583 27.957C75.9674 27.7198 74.348 28.2377 73.1002 29.5135C71.7719 30.7047 70.3724 31.8224 68.9016 32.8718C67.4371 33.9159 65.9385 34.919 64.4058 35.8813L66.1242 34.8127C63.7772 36.2602 61.424 37.6995 59.0894 39.1606C53.9743 42.3663 49.0357 45.771 44.2209 49.3174C40.9358 51.7381 37.7125 54.2187 34.5264 56.7375C32.5138 58.3158 30.5229 59.9159 28.5567 61.5378C26.0456 63.506 23.6955 65.6104 21.5002 67.8511L23.0143 66.6272L17.9085 69.7184C16.6328 70.3917 15.995 71.3839 15.9919 72.7006C15.9361 74.0145 16.5275 75.0312 17.7723 75.7482C20.0233 76.416 22.3393 76.724 24.7266 76.6695C27.1076 76.8086 29.4392 76.5823 31.718 75.9908V75.9962Z" fill="#F7BB1E"/>
<path opacity="0.06" d="M58.1262 60.6833L61.6994 57.4912L65.6038 54.2964C68.214 52.1675 70.8273 50.0412 73.4932 47.9668C79.3793 43.3872 85.4666 39.0039 91.8574 34.9777C94.3004 33.4402 96.7589 31.8946 99.3505 30.5562C100.892 29.7602 102.416 28.9479 103.911 28.0838C105.506 27.1624 107.023 26.1783 108.475 25.088C109.274 24.5346 110.017 23.9267 110.702 23.2616C111.878 22.2748 112.943 21.198 113.897 20.0313C115.117 18.9192 115.207 17.7388 114.169 16.4931C112.002 14.8848 109.448 14.1188 106.506 14.1897C101.518 13.6254 96.5081 13.3255 91.4766 13.2928C88.5722 12.873 85.9249 13.3283 83.5314 14.664C82.3146 15.7353 81.0915 16.7875 79.7725 17.7606C78.342 18.8183 76.8341 19.8024 75.3262 20.7701C70.6105 23.8013 65.8391 26.7562 61.2287 29.9156C55.4262 33.8955 49.8281 38.0934 44.36 42.4222C41.66 44.5594 38.991 46.7265 36.3437 48.9181C35.0556 49.9894 33.7613 51.0553 32.4578 52.1129C30.6495 53.5059 28.9775 55.0188 27.4418 56.6543C26.2838 57.8183 26.259 59.0014 27.3706 60.2008C29.634 61.711 32.2318 62.3652 35.1702 62.1635C40.1955 62.5069 45.2239 62.586 50.2585 62.3979C53.1876 62.6923 55.8102 62.1171 58.1324 60.6778L58.1262 60.6833Z" fill="#F7BB1E"/>
<path opacity="0.06" d="M49.8623 81.188C60.6003 72.0152 71.682 63.0768 83.9125 55.4524C86.3988 53.9013 88.9037 52.3394 91.5511 51.0064C93.1302 50.2104 94.6907 49.3926 96.2203 48.5203C97.818 47.6071 99.3321 46.6258 100.769 45.5272C101.552 44.9793 102.274 44.3742 102.93 43.709C104.06 42.7332 105.07 41.6673 105.958 40.5061C107.073 39.3912 107.166 38.2108 106.24 36.9678C104.348 35.3922 102.048 34.6344 99.3352 34.6944C94.8301 34.1492 90.3032 33.8684 85.7579 33.8548C83.0827 33.4622 80.683 33.9284 78.5589 35.2559C75.6794 37.3631 72.7131 39.3584 69.7252 41.3429C68.1832 42.3679 66.6505 43.401 65.1364 44.4587C62.2631 46.4622 59.368 48.4385 56.5225 50.4748C50.9368 54.4711 45.5244 58.6499 40.2142 62.9296C37.5576 65.0695 34.9288 67.2312 32.3155 69.4119C31.0399 70.475 29.7642 71.5409 28.4947 72.6122C26.7112 74.0651 25.0021 75.5807 23.3641 77.1591C22.3578 78.323 22.3299 79.5034 23.2805 80.7055C25.1507 82.1857 27.3924 82.8399 30.0088 82.6709C34.3498 83.0171 38.697 83.0961 43.0505 82.9081C45.6575 83.1725 47.9271 82.6 49.8654 81.1907L49.8623 81.188Z" fill="#F7BB1E"/>
<path opacity="0.06" d="M13.1772 82.0591L21.4041 78.2564L24.0298 74.9825L27.8104 71.7714L31.8665 68.6202C37.8517 63.9943 43.9638 59.5292 50.432 55.4294C52.9307 53.8456 55.4511 52.2618 58.0954 50.8661C59.6714 50.0347 61.2443 49.2006 62.7739 48.3065C64.3654 47.3797 65.8826 46.3874 67.3286 45.2916C68.1058 44.7491 68.8272 44.1549 69.4929 43.5061C70.6138 42.5602 71.6263 41.5298 72.5304 40.4149C73.354 39.5807 73.7751 38.6021 73.7968 37.4845C73.9887 36.3778 73.7565 35.3501 73.1032 34.4069C72.035 33.7145 70.8305 33.3574 69.4867 33.3356C68.1584 33.1584 66.9013 33.3356 65.7185 33.859C64.3902 35.1647 63.0681 36.4486 61.5787 37.6181C60.0894 38.7875 58.6279 39.7716 57.0798 40.7529C55.5316 41.7342 53.999 42.612 52.4415 43.517C49.4505 45.2534 46.5245 47.0716 43.6511 48.958C37.9477 52.7061 32.461 56.6996 27.1292 60.8485C24.4354 62.9448 21.7416 65.0328 19.1221 67.2C17.7876 68.1104 16.6791 69.1926 15.7905 70.452C14.23 72.6682 12.0223 74.301 9.16749 75.3505C8.60705 76.2855 8.35006 77.2859 8.3996 78.3518C8.28504 79.1941 8.40889 79.9955 8.77735 80.7533C8.87334 81.4021 9.30992 81.8192 10.0902 81.9991C11.112 82.2853 12.143 82.3017 13.1772 82.0563V82.0591Z" fill="#F7BB1E"/>
<path opacity="0.06" d="M50.5445 54.4036C61.3041 45.3044 72.2558 36.347 84.3871 28.668C86.8332 27.1197 89.2979 25.5686 91.8864 24.2111C93.4284 23.4015 94.961 22.581 96.4627 21.7142C98.0542 20.7955 99.5776 19.8142 101.03 18.7293C101.829 18.1813 102.572 17.5789 103.256 16.922C104.433 15.9488 105.498 14.8857 106.458 13.7353C107.473 12.6095 107.563 11.4292 106.721 10.1971C105.052 8.66508 102.959 7.92908 100.438 7.98905C96.3389 7.48475 92.2177 7.2476 88.0748 7.27486C85.5854 6.92594 83.3994 7.41388 81.5169 8.74141C80.3557 9.87268 79.1977 10.9767 77.8911 11.9826C76.4884 13.062 74.9774 14.0434 73.4603 14.9947C71.8192 16.0224 70.141 17.0037 68.4783 18.0042C65.3232 19.9041 62.2176 21.8586 59.1708 23.8922C53.3064 27.8039 47.6618 31.9582 42.1628 36.2598C39.4473 38.386 36.7659 40.5422 34.1124 42.7284C32.8181 43.7861 31.5331 44.8519 30.2605 45.9287C28.4709 47.3925 26.7431 48.9109 25.0742 50.4837C24.1113 51.6504 24.0896 52.8335 25.0061 54.0302C26.7834 55.4913 28.9415 56.1373 31.4743 55.9683C35.645 56.2954 39.8188 56.3581 43.9989 56.1537C46.5255 56.399 48.7053 55.8157 50.5383 54.4091L50.5445 54.4036Z" fill="#F7BB1E"/>
<g opacity="0.5">
<path opacity="0.06" d="M124.221 102.471C129.249 97.1529 134.386 91.9164 139.498 86.6608C144.61 81.4052 149.815 76.0569 154.976 70.7522C165.293 60.1483 175.613 49.5416 185.93 38.9377C186.193 38.4416 186.144 37.9727 185.788 37.5257C185.181 37.0159 184.444 36.8278 183.577 36.9587C182.193 36.9587 180.821 37.0677 179.459 37.2804C178.579 37.2858 177.892 37.5857 177.394 38.1799C167.077 48.7838 156.757 59.3905 146.44 69.9944C141.281 75.2963 136.123 80.5983 130.961 85.903C128.382 88.5553 125.8 91.2049 123.224 93.8572C120.703 96.3787 118.26 98.9575 115.898 101.596C115.635 102.087 115.675 102.558 116.019 103.011C116.598 103.526 117.316 103.725 118.17 103.608C119.52 103.627 120.861 103.537 122.193 103.344C123.056 103.346 123.735 103.057 124.221 102.471Z" fill="#F7BB1E"/>
<path opacity="0.06" d="M116.502 98.6457C118.92 95.9307 121.432 93.2838 124.036 90.7051C126.624 88.0554 129.21 85.4058 131.792 82.7508C136.953 77.4488 142.112 72.1469 147.27 66.8422C157.587 56.2383 167.907 45.6316 178.224 35.0277C178.84 34.3926 178.877 33.1359 178.014 32.6234C177.348 32.419 176.664 32.3563 175.958 32.4408C175.245 32.4517 174.58 32.6044 173.957 32.896C163.64 43.5 153.32 54.1066 143.004 64.7105C137.845 70.0124 132.687 75.3171 127.525 80.6191C124.946 83.2714 122.364 85.9238 119.778 88.5734C117.18 91.0921 114.753 93.7336 112.496 96.4977C111.941 97.1383 111.867 98.3813 112.706 98.902C113.325 99.1091 113.966 99.1718 114.629 99.0928C115.298 99.0819 115.92 98.9347 116.496 98.6457H116.502Z" fill="#F7BB1E"/>
<path opacity="0.06" d="M117.127 89.8318C127.896 79.4568 138.139 68.6594 148.521 57.9846C158.841 47.3807 169.158 36.7741 179.475 26.1702C179.88 25.8321 180.051 25.4178 179.979 24.9244C179.958 24.4283 179.719 24.0412 179.255 23.7659C178.487 23.5696 177.707 23.5151 176.908 23.6105C176.103 23.6296 175.341 23.7904 174.62 24.093C164.303 34.6969 153.983 45.3035 143.666 55.9074C138.508 61.2094 133.349 66.5141 128.188 71.816C123.032 77.1125 117.843 82.3845 112.74 87.7219C112.121 88.3679 112.068 89.6082 112.957 90.1262C113.641 90.3279 114.347 90.3851 115.068 90.2979C115.796 90.2843 116.48 90.1289 117.121 89.8318H117.127Z" fill="#F7BB1E"/>
<path opacity="0.06" d="M123.849 96.1356C128.837 90.7982 133.971 85.5753 139.079 80.3279C144.238 75.0259 149.396 69.724 154.558 64.4193C164.875 53.8154 175.195 43.2088 185.512 32.6049C185.781 32.1087 185.732 31.6371 185.366 31.1928C184.735 30.6831 183.976 30.4977 183.09 30.6367C181.669 30.6449 180.257 30.7567 178.858 30.9747C177.96 30.9802 177.251 31.2828 176.734 31.8852C166.417 42.4891 156.097 53.0958 145.78 63.6997C140.621 69.0016 135.463 74.3036 130.301 79.6083C127.722 82.2606 125.14 84.9129 122.561 87.5653C120.04 90.0786 117.607 92.6573 115.26 95.2988C114.99 95.7922 115.03 96.2637 115.383 96.7135C115.99 97.2287 116.73 97.425 117.603 97.3023C118.997 97.316 120.381 97.2206 121.756 97.0216C122.641 97.0243 123.338 96.7326 123.849 96.1411V96.1356Z" fill="#F7BB1E"/>
<path opacity="0.06" d="M113.111 97.3097C115.207 94.4774 117.585 91.8387 120.242 89.3963C122.818 86.7439 125.397 84.0916 127.977 81.442C133.135 76.14 138.293 70.8381 143.455 65.5334C153.772 54.9295 164.092 44.3229 174.409 33.719C174.626 33.3346 174.7 32.9257 174.629 32.495C174.622 32.0589 174.48 31.6663 174.198 31.3147C173.644 30.8703 172.214 30.9903 171.737 31.481C161.42 42.0849 151.1 52.6915 140.783 63.2954C135.624 68.5974 130.466 73.8993 125.304 79.204C122.725 81.8536 120.146 84.5059 117.57 87.1583C114.913 89.5871 112.56 92.2231 110.507 95.0662C110.297 95.4533 110.225 95.8595 110.294 96.2902C110.3 96.7236 110.439 97.1189 110.718 97.4705C111.232 97.8876 112.693 97.8249 113.114 97.307L113.111 97.3097Z" fill="#F7BB1E"/>
<path opacity="0.06" d="M124.251 88.6205C129.239 83.2831 134.379 78.0602 139.488 72.81C144.597 67.5598 149.805 62.2061 154.967 56.9014C165.284 46.2975 175.604 35.6909 185.92 25.087C186.199 24.5881 186.15 24.1193 185.769 23.6749C185.109 23.1652 184.326 22.9853 183.422 23.1297C181.954 23.1434 180.499 23.2633 179.053 23.4896C178.133 23.495 177.403 23.803 176.864 24.4109C166.547 35.0148 156.227 45.6215 145.91 56.2254C140.752 61.5273 135.593 66.8293 130.431 72.134C127.852 74.7863 125.27 77.4386 122.691 80.091C120.167 82.607 117.73 85.183 115.38 87.8245C115.102 88.3179 115.145 88.7895 115.507 89.2392C116.142 89.7544 116.907 89.948 117.802 89.8171C119.241 89.8226 120.669 89.7217 122.09 89.5146C122.997 89.5173 123.716 89.2202 124.251 88.6232V88.6205Z" fill="#F7BB1E"/>
<path opacity="0.06" d="M124.493 91.4395C129.494 86.1075 134.633 80.8792 139.742 75.6263C144.901 70.3244 150.059 65.0224 155.221 59.7177C165.538 49.1138 175.858 38.5072 186.175 27.9033C186.466 27.4044 186.416 26.9328 186.026 26.4912C185.332 25.9815 184.518 25.8016 183.583 25.9515C182.053 25.9706 180.536 26.0933 179.031 26.3222C178.084 26.325 177.319 26.633 176.743 27.249C166.426 37.853 156.106 48.4596 145.789 59.0635C140.631 64.3654 135.473 69.6674 130.311 74.9721C125.149 80.2768 120.143 85.347 115.226 90.6599C114.932 91.1533 114.972 91.6248 115.353 92.0746C116.025 92.5926 116.823 92.7834 117.746 92.6471C119.251 92.6471 120.743 92.5462 122.23 92.3363C123.168 92.3445 123.92 92.0446 124.493 91.4395Z" fill="#F7BB1E"/>
<path opacity="0.06" d="M121.477 93.6699C124.199 91.1184 126.824 88.4933 129.357 85.7946C131.936 83.1423 134.516 80.49 137.095 77.8404C142.253 72.5384 147.412 67.2364 152.573 61.9318C162.89 51.3279 173.21 40.7212 183.527 30.1173C183.759 29.6239 183.71 29.1523 183.378 28.7053C182.843 28.2037 182.171 28.0129 181.36 28.1274C180.103 28.1219 178.858 28.2228 177.622 28.43C176.802 28.4436 176.18 28.7407 175.758 29.3213C155.193 50.4583 134.605 71.5761 114.099 92.754C113.872 93.2446 113.916 93.7162 114.225 94.1687C114.715 94.673 115.353 94.8747 116.139 94.7766C117.334 94.8011 118.52 94.7194 119.697 94.5313C120.489 94.5231 121.084 94.2342 121.48 93.6699H121.477Z" fill="#F7BB1E"/>
<path opacity="0.06" d="M118.793 103.752C121.208 101.037 123.716 98.3901 126.32 95.8114C128.908 93.1618 131.494 90.5122 134.073 87.8571C139.235 82.5552 144.393 77.2532 149.551 71.9485C159.868 61.3446 170.188 50.738 180.505 40.1341C180.899 39.7933 181.063 39.3817 180.995 38.8938C180.979 38.4031 180.75 38.0133 180.304 37.7298C179.57 37.5281 178.821 37.4708 178.053 37.5581C177.279 37.5717 176.548 37.7271 175.855 38.0242C165.538 48.6281 155.218 59.2347 144.901 69.8386C139.742 75.1406 134.584 80.4453 129.422 85.7472C126.843 88.3996 124.261 91.0519 121.675 93.7015C119.074 96.2203 116.647 98.8617 114.393 101.626C114.021 101.972 113.87 102.386 113.938 102.866C113.95 103.349 114.17 103.738 114.594 104.033C115.285 104.237 115.991 104.297 116.718 104.213C117.452 104.202 118.142 104.049 118.79 103.758L118.793 103.752Z" fill="#F7BB1E"/>
<path opacity="0.06" d="M128.234 95.1892C148.861 74.0113 169.47 52.8199 190.083 31.6311C190.46 31.1269 190.414 30.6553 189.937 30.2191C189.024 29.7039 188.011 29.5376 186.903 29.723C184.992 29.7693 183.094 29.922 181.209 30.1809C180.081 30.1755 179.119 30.4999 178.326 31.1514C157.763 52.2856 137.167 73.3953 116.635 94.554C116.254 95.0529 116.294 95.5245 116.759 95.9688C117.651 96.4949 118.645 96.6721 119.747 96.5031C121.632 96.4813 123.509 96.3531 125.373 96.1187C126.491 96.1378 127.441 95.8243 128.231 95.1865L128.234 95.1892Z" fill="#F7BB1E"/>
<path opacity="0.06" d="M125.945 98.1413C136.123 87.4965 146.474 76.9798 156.753 66.4141C167.07 55.8102 177.39 45.2035 187.707 34.5996C188.023 34.1008 187.973 33.6292 187.562 33.1876C186.812 32.6724 185.948 32.4952 184.97 32.6533C183.344 32.6751 181.728 32.8032 180.124 33.0376C179.13 33.0376 178.316 33.3484 177.684 33.9726C167.368 44.5766 157.048 55.1832 146.731 65.7871C141.572 71.0891 136.414 76.391 131.252 81.6957C126.091 87.0004 121.081 92.1033 116.099 97.3835C115.78 97.8796 115.823 98.3512 116.223 98.7982C116.947 99.3216 117.796 99.5097 118.762 99.3652C120.359 99.3652 121.951 99.2589 123.53 99.0436C124.511 99.0572 125.317 98.7573 125.942 98.144L125.945 98.1413Z" fill="#F7BB1E"/>
<path opacity="0.06" d="M118.112 100.83C123.54 95.6096 128.794 90.264 134.027 84.8939C139.26 79.5238 144.35 74.29 149.508 68.9853C159.828 58.3814 170.145 47.7748 180.462 37.1709C180.893 36.8438 181.075 36.4294 181.013 35.9251C180.992 35.4181 180.738 35.0338 180.258 34.7666C179.44 34.5704 178.611 34.5186 177.765 34.6112C176.914 34.6303 176.103 34.7912 175.328 35.0937C165.012 45.6976 154.692 56.3043 144.375 66.9082C139.216 72.2101 134.058 77.5148 128.896 82.8168C123.741 88.1133 118.551 93.388 113.446 98.7226C113.052 99.0634 112.888 99.475 112.956 99.9657C112.972 100.456 113.204 100.846 113.65 101.13C114.387 101.331 115.139 101.389 115.907 101.299C116.684 101.285 117.418 101.127 118.112 100.833V100.83Z" fill="#F7BB1E"/>
<path opacity="0.06" d="M114.869 92.5479C117.096 89.792 119.489 87.1533 122.053 84.6318C124.629 81.9795 127.205 79.3298 129.784 76.6775C134.943 71.3728 140.101 66.0736 145.26 60.7689C155.577 50.165 165.897 39.5584 176.214 28.9545C176.777 28.3738 176.724 27.0299 175.997 26.5502C175.443 26.3403 174.867 26.2749 174.263 26.3485C173.653 26.3566 173.096 26.5038 172.588 26.7846C162.271 37.3885 151.951 47.9952 141.634 58.5991C136.476 63.901 131.314 69.203 126.156 74.5076C123.576 77.16 120.997 79.8123 118.415 82.4619C115.823 84.9344 113.47 87.5704 111.355 90.3699C110.857 90.9805 110.826 92.2726 111.572 92.7742C112.104 92.9841 112.665 93.0522 113.25 92.9786C113.841 92.9704 114.38 92.826 114.869 92.5452V92.5479Z" fill="#F7BB1E"/>
<path opacity="0.06" d="M117.95 93.1581C128.716 82.7832 138.953 71.983 149.338 61.3137C159.658 50.7098 169.975 40.1031 180.291 29.4992C180.737 29.1776 180.929 28.7605 180.864 28.2508C180.836 27.7383 180.573 27.3539 180.075 27.095C179.22 26.9014 178.356 26.8551 177.477 26.9532C176.591 26.975 175.743 27.1413 174.935 27.4493C164.618 38.0532 154.298 48.6599 143.981 59.2638C138.823 64.5657 133.664 69.8704 128.503 75.1724C123.347 80.4689 118.158 85.7436 113.052 91.0782C112.64 91.4135 112.47 91.8279 112.538 92.324C112.56 92.8228 112.801 93.2099 113.266 93.4825C114.04 93.6815 114.829 93.7333 115.634 93.6406C116.446 93.6215 117.217 93.4607 117.947 93.1609L117.95 93.1581Z" fill="#F7BB1E"/>
<path opacity="0.06" d="M120.189 98.7605C121.83 97.2776 123.542 95.8356 125.09 94.2763C127.685 91.6703 130.193 88.988 132.754 86.3548C138.556 80.3904 144.362 74.4233 150.167 68.459C161.132 57.1899 172.096 45.9236 183.056 34.6546C183.273 34.1639 183.224 33.6923 182.911 33.2425C182.422 32.7437 181.79 32.5474 181.013 32.6537C179.833 32.6401 178.663 32.7328 177.505 32.9318C176.718 32.9509 176.136 33.2425 175.758 33.8095C166.086 43.751 156.413 53.6953 146.737 63.6368C137.095 73.5456 127.385 83.4108 117.854 93.4013L118.393 92.8616L114.436 96.727C113.959 97.0377 113.749 97.4548 113.807 97.9782C113.842 98.5015 114.12 98.8859 114.647 99.1312C115.566 99.3221 116.501 99.3657 117.443 99.2648C118.393 99.2403 119.307 99.0713 120.186 98.7605H120.189Z" fill="#F7BB1E"/>
<path opacity="0.06" d="M130.33 92.4581C150.995 71.2993 171.582 50.0834 192.204 28.8892C192.625 28.3794 192.575 27.9106 192.055 27.4771C191.036 26.9647 189.928 26.8066 188.733 27.0083C186.64 27.071 184.556 27.24 182.484 27.5153C181.268 27.5126 180.212 27.8451 179.317 28.513C158.748 49.6527 138.238 70.8414 117.586 91.9156C117.162 92.4199 117.205 92.8915 117.713 93.3304C118.713 93.8565 119.806 94.0255 120.992 93.8429C123.063 93.8074 125.128 93.6657 127.181 93.4149C128.386 93.434 129.435 93.115 130.33 92.4581Z" fill="#F7BB1E"/>
<path opacity="0.06" d="M126.958 100.715C147.514 79.4965 168.17 58.3459 188.779 37.1653C189.113 36.6638 189.067 36.1922 188.637 35.7533C187.841 35.2381 186.937 35.0609 185.921 35.2272C184.215 35.2545 182.518 35.388 180.834 35.6279C179.803 35.6225 178.945 35.9387 178.267 36.5684C167.95 47.1723 157.63 57.7789 147.313 68.3828C137.077 78.9049 126.772 89.3807 116.635 99.9765C116.301 100.473 116.341 100.944 116.756 101.391C117.527 101.917 118.415 102.103 119.419 101.953C121.097 101.947 122.766 101.838 124.425 101.62C125.444 101.637 126.289 101.334 126.961 100.712L126.958 100.715Z" fill="#F7BB1E"/>
<path opacity="0.06" d="M114.099 100.971C116.193 98.1364 118.567 95.4977 121.227 93.058C123.803 90.4057 126.382 87.7533 128.962 85.1037C134.12 79.8017 139.279 74.4998 144.44 69.1951C154.757 58.5912 165.077 47.9846 175.394 37.3807C175.614 36.9963 175.688 36.5874 175.617 36.1567C175.611 35.7206 175.468 35.328 175.187 34.9764C174.632 34.5321 173.193 34.6493 172.713 35.1399C162.396 45.7438 152.076 56.3505 141.759 66.9544C136.6 72.2563 131.442 77.5583 126.28 82.863C123.701 85.5126 121.122 88.1649 118.546 90.8173C115.886 93.2461 113.533 95.8821 111.48 98.7252C111.266 99.1123 111.195 99.5185 111.263 99.9492C111.269 100.383 111.409 100.778 111.687 101.129C112.201 101.547 113.678 101.487 114.099 100.969V100.971Z" fill="#F7BB1E"/>
<path opacity="0.06" d="M127.388 89.9834C147.985 68.7865 168.612 47.6142 189.224 26.4281C189.574 25.9239 189.525 25.455 189.076 25.0161C188.233 24.5036 187.289 24.3346 186.243 24.5091C184.462 24.5473 182.691 24.6945 180.935 24.9452C179.867 24.9452 178.976 25.2642 178.257 25.9048C167.94 36.5087 157.62 47.1153 147.303 57.7192C137.061 68.2468 126.778 78.7444 116.594 89.3156C116.244 89.8144 116.285 90.286 116.721 90.7303C117.539 91.2537 118.467 91.4364 119.505 91.2755C121.26 91.2592 123.004 91.1392 124.741 90.9103C125.796 90.9239 126.679 90.6159 127.394 89.9862L127.388 89.9834Z" fill="#F7BB1E"/>
</g>
<path d="M0 18.0977L10.8619 97.9813L16.1875 91.7934L12.5648 23.9121L0 18.0977Z" fill="#CA4616"/>
<path d="M16.188 91.7969L10.8623 97.9848L21.7242 108.76L28.3286 94.6346L16.188 91.7969Z" fill="url(#paint0_linear_0_1)"/>
<path d="M21.7236 108.758L154.137 101.695L179.694 105.258L176.784 94.6318H28.3281L21.7236 108.758Z" fill="url(#paint1_linear_0_1)"/>
<path d="M176.784 94.6565L185.729 77.4041L195.6 89.5318L179.695 105.282" fill="url(#paint2_linear_0_1)"/>
<path d="M195.601 89.5107L200 61.8206L192.866 50.0691L190.204 10.6274L185.729 17.565V77.383L195.601 89.5107Z" fill="url(#paint3_linear_0_1)"/>
<path d="M24.3525 0L21.7237 10.6257L12.5648 23.9147L0 18.1002L24.3525 0Z" fill="#EE7442"/>
<path d="M24.3524 0L21.7236 10.6257L64.6602 17.2525L178.49 10.6257L183.388 6.74943L24.3524 0Z" fill="url(#paint4_linear_0_1)"/>
<path d="M183.389 6.74927L190.204 10.6256L185.729 17.5631L178.49 10.6256L183.389 6.74927Z" fill="url(#paint5_linear_0_1)"/>
<path d="M178.489 11.9985L185.728 18.9361V78.7541L184.344 20.3753L178.489 11.9985Z" fill="white"/>
<path d="M183.388 85.1582L176.784 96.0075L66.0967 96.8525L175.502 94.1375L183.388 85.1582Z" fill="url(#paint6_linear_0_1)"/>
<defs>
<linearGradient id="paint0_linear_0_1" x1="10.8623" y1="100.277" x2="28.3286" y2="100.277" gradientUnits="userSpaceOnUse">
<stop stop-color="#F9B233"/>
<stop offset="1" stop-color="#E94E1B"/>
</linearGradient>
<linearGradient id="paint1_linear_0_1" x1="21.7236" y1="101.695" x2="179.694" y2="101.695" gradientUnits="userSpaceOnUse">
<stop stop-color="#F9B233"/>
<stop offset="1" stop-color="#E94E1B"/>
</linearGradient>
<linearGradient id="paint2_linear_0_1" x1="176.784" y1="91.3445" x2="195.6" y2="91.3445" gradientUnits="userSpaceOnUse">
<stop stop-color="#F9B233"/>
<stop offset="1" stop-color="#E94E1B"/>
</linearGradient>
<linearGradient id="paint3_linear_0_1" x1="185.729" y1="50.0691" x2="200" y2="50.0691" gradientUnits="userSpaceOnUse">
<stop stop-color="#F9B233"/>
<stop offset="1" stop-color="#E94E1B"/>
</linearGradient>
<linearGradient id="paint4_linear_0_1" x1="21.7236" y1="8.62487" x2="183.388" y2="8.62487" gradientUnits="userSpaceOnUse">
<stop stop-color="#F9B233"/>
<stop offset="1" stop-color="#E94E1B"/>
</linearGradient>
<linearGradient id="paint5_linear_0_1" x1="178.49" y1="12.1575" x2="190.204" y2="12.1575" gradientUnits="userSpaceOnUse">
<stop stop-color="#F9B233"/>
<stop offset="1" stop-color="#E94E1B"/>
</linearGradient>
<linearGradient id="paint6_linear_0_1" x1="66.0967" y1="91.0053" x2="118.139" y2="91.0053" gradientUnits="userSpaceOnUse">
<stop stop-color="white"/>
</linearGradient>
</defs>
</svg>
