<svg width="73" height="52" viewBox="0 0 73 52" fill="none" xmlns="http://www.w3.org/2000/svg">
<g clip-path="url(#clip0_690_1399)">
<rect x="24" y="11" width="28" height="30" fill="white"/>
<path d="M29.12 37.1429L48.0116 26L29.12 14.8571V37.1429ZM71.1984 8.06C71.6716 9.80571 71.9992 12.1457 72.2176 15.1171C72.4724 18.0886 72.5816 20.6514 72.5816 22.88L72.8 26C72.8 34.1343 72.2176 40.1143 71.1984 43.94C70.2884 47.2829 68.1772 49.4371 64.9012 50.3657C63.1904 50.8486 60.06 51.1829 55.2552 51.4057C50.5232 51.6657 46.1916 51.7771 42.1876 51.7771L36.4 52C21.1484 52 11.648 51.4057 7.8988 50.3657C4.6228 49.4371 2.5116 47.2829 1.6016 43.94C1.1284 42.1943 0.8008 39.8543 0.5824 36.8829C0.3276 33.9114 0.2184 31.3486 0.2184 29.12L0 26C0 17.8657 0.5824 11.8857 1.6016 8.06C2.5116 4.71714 4.6228 2.56286 7.8988 1.63429C9.6096 1.15143 12.74 0.817142 17.5448 0.594285C22.2768 0.334285 26.6084 0.222857 30.6124 0.222857L36.4 0C51.6516 0 61.152 0.594286 64.9012 1.63429C68.1772 2.56286 70.2884 4.71714 71.1984 8.06Z" fill="#DA271E"/>
</g>
<defs>
<clipPath id="clip0_690_1399">
<rect width="72.8" height="52" fill="white"/>
</clipPath>
</defs>
</svg>
