<svg width="253" height="253" viewBox="0 0 253 253" fill="none" xmlns="http://www.w3.org/2000/svg">
<path d="M52.7083 221.375C46.9104 221.375 41.9488 219.312 37.8235 215.187C33.6982 211.062 31.632 206.097 31.625 200.292V52.7083C31.625 46.9104 33.6912 41.9488 37.8235 37.8235C41.9558 33.6982 46.9174 31.632 52.7083 31.625H200.292C206.09 31.625 211.055 33.6912 215.187 37.8235C219.319 41.9558 221.382 46.9174 221.375 52.7083V200.292C221.375 206.09 219.312 211.055 215.187 215.187C211.062 219.319 206.097 221.382 200.292 221.375H52.7083ZM52.7083 200.292H200.292V52.7083H52.7083V200.292ZM63.25 179.208H189.75L150.219 126.5L118.594 168.667L94.875 137.042L63.25 179.208Z" fill="white"/>
</svg>
