<svg width="24" height="24" viewBox="0 0 24 24" fill="none" xmlns="http://www.w3.org/2000/svg">
<path d="M9.99652 11.0209C9.81001 11.1541 9.57022 11.2341 9.27714 11.2341H7.62525V9.50224H9.17057C9.33043 9.50224 9.46365 9.50224 9.59686 9.52888C9.73008 9.55553 9.83665 9.60881 9.94322 9.6621C10.0498 9.74203 10.1297 9.82196 10.183 9.92854C10.2363 10.0351 10.2629 10.195 10.2629 10.3548C10.2629 10.6479 10.183 10.8877 9.99652 11.0209Z" fill="white"/>
<path d="M9.81001 14.3247C9.6768 14.3513 9.51693 14.378 9.35707 14.378H7.62525V12.3264H9.38372C9.73008 12.3264 10.0232 12.4064 10.2363 12.5662C10.4495 12.7527 10.556 13.0192 10.556 13.3922C10.556 13.5787 10.5027 13.7385 10.4495 13.8718C10.3695 14.005 10.2896 14.0849 10.183 14.1648C10.0764 14.2448 9.94323 14.2981 9.81001 14.3247Z" fill="white"/>
<path d="M15.3518 11.2607C15.6982 11.2607 15.9913 11.3673 16.1778 11.5538C16.3643 11.7403 16.4975 12.0067 16.5508 12.4064H14.1529C14.1529 12.3181 14.1712 12.2298 14.1926 12.1264C14.197 12.1049 14.2016 12.0829 14.2062 12.06C14.2328 11.9268 14.2861 11.7936 14.3927 11.687C14.4993 11.5804 14.6058 11.4739 14.7657 11.3939C14.9256 11.314 15.1121 11.2607 15.3518 11.2607Z" fill="white"/>
<path fill-rule="evenodd" clip-rule="evenodd" d="M3.75 0C1.67893 0 0 1.67893 0 3.75V20.25C0 22.3211 1.67893 24 3.75 24H20.25C22.3211 24 24 22.3211 24 20.25V3.75C24 1.67893 22.3211 0 20.25 0H3.75ZM10.4495 8.35657C10.1564 8.27664 9.83666 8.25 9.49029 8.25H6V15.6036H9.57022C9.88994 15.6036 10.2097 15.5503 10.5294 15.4704C10.8491 15.3904 11.1422 15.2572 11.382 15.0974C11.6218 14.9375 11.8349 14.6977 11.9681 14.4313C12.1013 14.1648 12.1813 13.8451 12.1813 13.4721C12.1813 13.0192 12.0481 12.6195 11.8349 12.2998C11.6218 11.9801 11.2754 11.7403 10.8225 11.6071C11.1422 11.4472 11.4086 11.2341 11.5685 10.9943C11.755 10.7545 11.8349 10.4348 11.8349 10.0618C11.8349 9.74203 11.7816 9.44895 11.6751 9.20916C11.5685 8.96937 11.4086 8.78287 11.1955 8.64965C10.9823 8.51643 10.7425 8.40986 10.4495 8.35657ZM15.4584 14.6711C15.0321 14.6711 14.7124 14.5645 14.4993 14.3513C14.2861 14.1382 14.1262 13.7385 14.1262 13.3123H17.9895C18.0162 12.886 17.9895 12.5129 17.9363 12.1399C17.8297 11.7669 17.6698 11.4206 17.4567 11.1275C17.2435 10.8078 16.9771 10.5946 16.6307 10.4081C16.2844 10.2216 15.8847 10.1417 15.4318 10.1417C15.0055 10.1417 14.6591 10.2216 14.3128 10.3548C13.993 10.488 13.7 10.7012 13.4602 10.941C13.2204 11.2074 13.0339 11.5005 12.9007 11.8469C12.7674 12.1932 12.7141 12.5662 12.7141 12.9659C12.7141 13.3922 12.7674 13.7652 12.9007 14.1116C13.0072 14.4579 13.1937 14.751 13.4335 14.9908C13.6733 15.2572 13.9397 15.4437 14.2861 15.5769C14.6325 15.7102 15.0055 15.7901 15.4318 15.7901C16.0446 15.7901 16.5508 15.6302 16.9771 15.3638C17.4034 15.0707 17.7231 14.6178 17.9363 13.9783H16.6307C16.5774 14.1382 16.4442 14.2981 16.2311 14.4579C16.0179 14.5911 15.7515 14.6711 15.4584 14.6711ZM16.8172 8.75623H13.8332V9.4756H16.8172V8.75623Z" fill="white"/>
</svg>
