<svg width="1446" height="554" viewBox="0 0 1446 554" fill="none" xmlns="http://www.w3.org/2000/svg">
<mask id="mask0_1563_11998" style="mask-type:alpha" maskUnits="userSpaceOnUse" x="0" y="0" width="1446" height="554">
<path d="M0 554V131.5L55 143.499L81.5 168L169 186.999L229 168L291.5 212.999L282.5 245.5L432 285.499L494 245.5L552 168L647 149.499L748.5 225.5L841 240.999L962 168L1000.5 131.5L1058.5 115.999L1108.5 179.499L1166.5 188.5L1234.5 115.999L1221.5 26.999L1255 0L1321.5 26.999L1400.5 74.999L1446 56.999V554H0Z" fill="url(#paint0_radial_1563_11998)"/>
</mask>
<g mask="url(#mask0_1563_11998)">
<path d="M-11 36H1435V641.5H-11V36Z" fill="#0C004C"/>
<path d="M349.5 269.999L293.5 245.999L432.5 284.999L410 287.499L398.5 282.999L370 278.999L349.5 269.999Z" fill="#7645C6"/>
<path d="M257 210.499L235.5 181.499L222.5 176.499L189 183.499L169 186.499L226.5 162.999L299.5 202.999L283 245.999L278.5 237.999L277 218.999L257 210.499Z" fill="#7645C6"/>
<path d="M55.5 140.999L81.5 164.999L126.5 177.499L106 175.999L59.5 167.999L54 154.499L37.5 145.999H9.5L-9 127.999L55.5 140.999Z" fill="#7645C6"/>
<path d="M545 204.499L503 244.999L451 270.999L476 244.999L510 162.999L641.5 135.499L747.5 223.999L707 204.499L659 171.999L629.5 162.999L557 182.499L545 204.499Z" fill="#7645C6"/>
<path d="M938.5 194.499L843 240.999L928 150.499L1055 103.999L1083.5 126.499L1107.5 177.999L1074 160.999L1059.5 135.999L1038 131.499L1003 140.999L982 174.499L938.5 194.499Z" fill="#7645C6"/>
<path d="M1202 167.499L1166.5 187.999L1207 21.999L1242.5 -15.001L1280.5 -10.501L1375.5 49.999L1297 20.999H1262L1246.5 17.499L1233 37.999L1252.5 87.999V118.999L1202 167.499Z" fill="#7645C6"/>
</g>
<defs>
<radialGradient id="paint0_radial_1563_11998" cx="0" cy="0" r="1" gradientUnits="userSpaceOnUse" gradientTransform="translate(723 221) rotate(-90) scale(667 1740.94)">
<stop offset="0.136559"/>
<stop offset="0.42781" stop-opacity="0"/>
</radialGradient>
</defs>
</svg>
