<svg width="32" height="32" viewBox="0 0 32 32" fill="none" xmlns="http://www.w3.org/2000/svg">
<g clip-path="url(#clip0_1130_4032)">
<path d="M16.0003 0.11377C11.686 0.11377 11.1446 0.132635 9.45009 0.209749C7.75893 0.287194 6.60457 0.554942 5.5945 0.947793C4.54969 1.35355 3.6634 1.89633 2.78042 2.77967C1.89678 3.66267 1.35402 4.54899 0.946948 5.5935C0.553116 6.60393 0.285045 7.75865 0.208926 9.44921C0.133138 11.1437 0.113281 11.6855 0.113281 15.9999C0.113281 20.3144 0.132477 20.8541 0.209258 22.5487C0.287031 24.2399 0.554771 25.3943 0.94728 26.4044C1.35336 27.4492 1.89612 28.3355 2.77943 29.2185C3.66208 30.1022 4.54837 30.6463 5.59252 31.0521C6.60325 31.4449 7.75794 31.7127 9.44877 31.7901C11.1432 31.8672 11.6843 31.8861 15.9983 31.8861C20.3129 31.8861 20.8527 31.8672 22.5472 31.7901C24.2383 31.7127 25.394 31.4449 26.4048 31.0521C27.4492 30.6463 28.3342 30.1022 29.2169 29.2185C30.1005 28.3355 30.6433 27.4492 31.0503 26.4047C31.4408 25.3943 31.7089 24.2396 31.7883 22.549C31.8645 20.8545 31.8843 20.3144 31.8843 15.9999C31.8843 11.6855 31.8645 11.1441 31.7883 9.44954C31.7089 7.75832 31.4408 6.60393 31.0503 5.59383C30.6433 4.54899 30.1005 3.66267 29.2169 2.77967C28.3332 1.896 27.4496 1.35322 26.4038 0.947793C25.391 0.554942 24.236 0.287194 22.5449 0.209749C20.8504 0.132635 20.3109 0.11377 15.9953 0.11377H16.0003ZM14.5752 2.97659C14.9982 2.97593 15.4701 2.97659 16.0003 2.97659C20.2418 2.97659 20.7445 2.99181 22.4194 3.06793C23.9683 3.13876 24.8089 3.39757 25.3689 3.61501C26.1102 3.90295 26.6387 4.24715 27.1944 4.80317C27.7504 5.35918 28.0946 5.88872 28.3832 6.63007C28.6006 7.1894 28.8598 8.03004 28.9302 9.57894C29.0064 11.2536 29.0229 11.7567 29.0229 15.9963C29.0229 20.2359 29.0064 20.739 28.9302 22.4136C28.8594 23.9625 28.6006 24.8032 28.3832 25.3625C28.0953 26.1039 27.7504 26.6317 27.1944 27.1874C26.6384 27.7434 26.1105 28.0876 25.3689 28.3756C24.8096 28.594 23.9683 28.8522 22.4194 28.923C20.7448 28.9991 20.2418 29.0157 16.0003 29.0157C11.7585 29.0157 11.2558 28.9991 9.58115 28.923C8.0323 28.8515 7.19168 28.5927 6.63138 28.3753C5.89004 28.0873 5.36052 27.7431 4.80452 27.1871C4.24852 26.6311 3.90433 26.1029 3.61574 25.3612C3.39831 24.8019 3.13917 23.9612 3.06868 22.4123C2.99256 20.7377 2.97734 20.2346 2.97734 15.9923C2.97734 11.7501 2.99256 11.2496 3.06868 9.57497C3.1395 8.02607 3.39831 7.18543 3.61574 6.62544C3.90367 5.88409 4.24852 5.35455 4.80452 4.79853C5.36052 4.24252 5.89004 3.89832 6.63138 3.60972C7.19135 3.39128 8.0323 3.13313 9.58115 3.06198C11.0466 2.99578 11.6145 2.97593 14.5752 2.97262V2.97659ZM24.4799 5.61435C23.4275 5.61435 22.5737 6.46724 22.5737 7.52003C22.5737 8.57249 23.4275 9.42637 24.4799 9.42637C25.5324 9.42637 26.3862 8.57249 26.3862 7.52003C26.3862 6.46757 25.5324 5.61369 24.4799 5.61369V5.61435ZM16.0003 7.84173C11.495 7.84173 7.84233 11.4946 7.84233 15.9999C7.84233 20.5053 11.495 24.1565 16.0003 24.1565C20.5055 24.1565 24.1569 20.5053 24.1569 15.9999C24.1569 11.4946 20.5052 7.84173 16 7.84173H16.0003ZM16.0003 10.7045C18.9246 10.7045 21.2955 13.0752 21.2955 15.9999C21.2955 18.9243 18.9246 21.2953 16.0003 21.2953C13.0757 21.2953 10.7051 18.9243 10.7051 15.9999C10.7051 13.0752 13.0757 10.7045 16.0003 10.7045V10.7045Z" fill="#FFFFFD"/>
</g>
<defs>
<clipPath id="clip0_1130_4032">
<rect width="32" height="32" fill="white"/>
</clipPath>
</defs>
</svg>
