<svg width="24" height="24" viewBox="0 0 24 24" fill="none" xmlns="http://www.w3.org/2000/svg">
<path fill-rule="evenodd" clip-rule="evenodd" d="M0 3.75C0 1.67893 1.67893 0 3.75 0H20.25C22.3211 0 24 1.67893 24 3.75V20.25C24 22.3211 22.3211 24 20.25 24H3.75C1.67893 24 0 22.3211 0 20.25V3.75ZM6.15 9.975V18H8.7V9.975H6.15ZM6 7.425C6 8.25 6.6 8.85 7.425 8.85C8.25 8.85 8.85 8.25 8.85 7.425C8.85 6.6 8.25 6 7.425 6C6.675 6 6 6.6 6 7.425ZM15.45 18H17.85V13.05C17.85 10.575 16.35 9.75 14.925 9.75C13.65 9.75 12.75 10.575 12.525 11.1V9.975H10.125V18H12.675V13.725C12.675 12.6 13.425 12 14.175 12C14.925 12 15.45 12.375 15.45 13.65V18Z" fill="white"/>
</svg>
