<?xml version="1.0" encoding="UTF-8" standalone="no"?>
<!-- Created with Inkscape (http://www.inkscape.org/) -->

<svg
   xmlns:dc="http://purl.org/dc/elements/1.1/"
   xmlns:cc="http://creativecommons.org/ns#"
   xmlns:rdf="http://www.w3.org/1999/02/22-rdf-syntax-ns#"
   xmlns:svg="http://www.w3.org/2000/svg"
   xmlns="http://www.w3.org/2000/svg"
   xmlns:xlink="http://www.w3.org/1999/xlink"
   xmlns:sodipodi="http://sodipodi.sourceforge.net/DTD/sodipodi-0.dtd"
   xmlns:inkscape="http://www.inkscape.org/namespaces/inkscape"
   id="svg5925"
   height="181.659021246" viewBox="0 0 2000.0 660.0"
   width="550.481882563"
   version="1.1"
   inkscape:version="0.48.1 "
   sodipodi:docname="LogoMetroTVsince2010.svg">
  <sodipodi:namedview
     pagecolor="#ffffff"
     bordercolor="#666666"
     borderopacity="1"
     objecttolerance="10"
     gridtolerance="10"
     guidetolerance="10"
     inkscape:pageopacity="0"
     inkscape:pageshadow="2"
     inkscape:window-width="1280"
     inkscape:window-height="972"
     id="namedview3045"
     showgrid="false"
     inkscape:zoom="0.50000001"
     inkscape:cx="878.73533"
     inkscape:cy="437.0013"
     inkscape:window-x="-8"
     inkscape:window-y="-8"
     inkscape:window-maximized="1"
     inkscape:current-layer="svg5925" />
  <metadata
     id="metadata5931">
    <rdf:RDF>
      <cc:Work
         rdf:about="">
        <dc:format>image/svg+xml</dc:format>
        <dc:type
           rdf:resource="http://purl.org/dc/dcmitype/StillImage" />
        <dc:title />
      </cc:Work>
    </rdf:RDF>
  </metadata>
  <defs
     id="defs5929">
    <linearGradient
       inkscape:collect="always"
       id="linearGradient4950">
      <stop
         style="stop-color:#fe8b0c;stop-opacity:1;"
         offset="0"
         id="stop4952" />
      <stop
         style="stop-color:#febb0c;stop-opacity:1"
         offset="1"
         id="stop4954" />
    </linearGradient>
    <linearGradient
       inkscape:collect="always"
       id="linearGradient4940">
      <stop
         style="stop-color:#1c326c;stop-opacity:1;"
         offset="0"
         id="stop4942" />
      <stop
         style="stop-color:#132147;stop-opacity:1"
         offset="1"
         id="stop4944" />
    </linearGradient>
    <linearGradient
       inkscape:collect="always"
       id="linearGradient3829">
      <stop
         style="stop-color:#febb0c;stop-opacity:1"
         offset="0"
         id="stop3831" />
      <stop
         style="stop-color:#fe8b0c;stop-opacity:1"
         offset="1"
         id="stop3833" />
    </linearGradient>
    <linearGradient
       inkscape:collect="always"
       id="linearGradient3819">
      <stop
         style="stop-color:#fec925;stop-opacity:1;"
         offset="0"
         id="stop3821" />
      <stop
         style="stop-color:#ffb800;stop-opacity:1"
         offset="1"
         id="stop3823" />
    </linearGradient>
    <linearGradient
       id="linearGradient3859"
       y2="365.72107"
       gradientUnits="userSpaceOnUse"
       x2="1495.9397"
       y1="89.215652"
       x1="1304.228">
      <stop
         id="stop3855"
         stop-color="#fdb732"
         offset="0"
         style="stop-color:#fe8b0c;stop-opacity:1" />
      <stop
         id="stop3857"
         stop-color="#fdb732"
         stop-opacity="0"
         offset="1"
         style="stop-color:#febb0c;stop-opacity:1" />
    </linearGradient>
    <linearGradient
       inkscape:collect="always"
       xlink:href="#linearGradient3819"
       id="linearGradient3825"
       x1="1240.9885"
       y1="183.17046"
       x2="1273.2411"
       y2="225.19661"
       gradientUnits="userSpaceOnUse" />
    <filter
       id="filter7970"
       x="-0.25"
       width="1.5"
       y="-0.25"
       height="1.5"
       inkscape:menu="Non realistic 3D shaders"
       inkscape:menu-tooltip="Brushed aluminium shader"
       inkscape:label="Aluminium"
       color-interpolation-filters="sRGB">
      <feGaussianBlur
         id="feGaussianBlur7972"
         result="result8"
         stdDeviation="7" />
      <feComposite
         id="feComposite7974"
         in2="SourceGraphic"
         in="result8"
         operator="xor"
         result="result6" />
      <feDisplacementMap
         id="feDisplacementMap7976"
         in2="result6"
         result="result4"
         scale="75"
         yChannelSelector="A"
         xChannelSelector="A"
         in="result6" />
      <feComposite
         id="feComposite7978"
         in2="SourceGraphic"
         k1="1"
         in="result4"
         operator="arithmetic"
         result="result2" />
    </filter>
    <filter
       id="filter7980"
       x="-0.25"
       width="1.5"
       y="-0.25"
       height="1.5"
       inkscape:menu="Non realistic 3D shaders"
       inkscape:menu-tooltip="Brushed aluminium shader"
       inkscape:label="Aluminium"
       color-interpolation-filters="sRGB">
      <feGaussianBlur
         id="feGaussianBlur7982"
         result="result8"
         stdDeviation="7" />
      <feComposite
         id="feComposite7984"
         in2="SourceGraphic"
         in="result8"
         operator="xor"
         result="result6" />
      <feDisplacementMap
         id="feDisplacementMap7986"
         in2="result6"
         result="result4"
         scale="75"
         yChannelSelector="A"
         xChannelSelector="A"
         in="result6" />
      <feComposite
         id="feComposite7988"
         in2="SourceGraphic"
         k1="1"
         in="result4"
         operator="arithmetic"
         result="result2" />
    </filter>
    <filter
       id="filter7990"
       x="-0.25"
       width="1.5"
       y="-0.25"
       height="1.5"
       inkscape:menu="Non realistic 3D shaders"
       inkscape:menu-tooltip="Brushed aluminium shader"
       inkscape:label="Aluminium"
       color-interpolation-filters="sRGB">
      <feGaussianBlur
         id="feGaussianBlur7992"
         result="result8"
         stdDeviation="7" />
      <feComposite
         id="feComposite7994"
         in2="SourceGraphic"
         in="result8"
         operator="xor"
         result="result6" />
      <feDisplacementMap
         id="feDisplacementMap7996"
         in2="result6"
         result="result4"
         scale="75"
         yChannelSelector="A"
         xChannelSelector="A"
         in="result6" />
      <feComposite
         id="feComposite7998"
         in2="SourceGraphic"
         k1="1"
         in="result4"
         operator="arithmetic"
         result="result2" />
    </filter>
    <filter
       id="filter8000"
       x="-0.25"
       width="1.5"
       y="-0.25"
       height="1.5"
       inkscape:menu="Non realistic 3D shaders"
       inkscape:menu-tooltip="Brushed aluminium shader"
       inkscape:label="Aluminium"
       color-interpolation-filters="sRGB">
      <feGaussianBlur
         id="feGaussianBlur8002"
         result="result8"
         stdDeviation="7" />
      <feComposite
         id="feComposite8004"
         in2="SourceGraphic"
         in="result8"
         operator="xor"
         result="result6" />
      <feDisplacementMap
         id="feDisplacementMap8006"
         in2="result6"
         result="result4"
         scale="75"
         yChannelSelector="A"
         xChannelSelector="A"
         in="result6" />
      <feComposite
         id="feComposite8008"
         in2="SourceGraphic"
         k1="1"
         in="result4"
         operator="arithmetic"
         result="result2" />
    </filter>
    <filter
       id="filter8010"
       x="-0.25"
       width="1.5"
       y="-0.25"
       height="1.5"
       inkscape:menu="Non realistic 3D shaders"
       inkscape:menu-tooltip="Brushed aluminium shader"
       inkscape:label="Aluminium"
       color-interpolation-filters="sRGB">
      <feGaussianBlur
         id="feGaussianBlur8012"
         result="result8"
         stdDeviation="7" />
      <feComposite
         id="feComposite8014"
         in2="SourceGraphic"
         in="result8"
         operator="xor"
         result="result6" />
      <feDisplacementMap
         id="feDisplacementMap8016"
         in2="result6"
         result="result4"
         scale="75"
         yChannelSelector="A"
         xChannelSelector="A"
         in="result6" />
      <feComposite
         id="feComposite8018"
         in2="SourceGraphic"
         k1="1"
         in="result4"
         operator="arithmetic"
         result="result2" />
    </filter>
    <filter
       id="filter8160"
       inkscape:label="Velvet Bumps"
       inkscape:menu="Bumps"
       inkscape:menu-tooltip="Gives Smooth Bumps velvet like"
       color-interpolation-filters="sRGB">
      <feGaussianBlur
         id="feGaussianBlur8162"
         stdDeviation="1"
         result="result3" />
      <feBlend
         id="feBlend8164"
         in2="result3"
         result="result5"
         mode="screen"
         in="SourceGraphic" />
      <feGaussianBlur
         id="feGaussianBlur8166"
         stdDeviation="1"
         result="result7" />
      <feConvolveMatrix
         id="feConvolveMatrix8168"
         order="3 3"
         kernelMatrix="2 0 0 1 1 -1 0 0 -2 "
         targetX="1"
         targetY="1"
         result="result8" />
      <feBlend
         id="feBlend8170"
         in2="result8"
         mode="darken"
         in="result7"
         result="result6" />
    </filter>
    <filter
       id="filter8184"
       inkscape:label="Velvet Bumps"
       inkscape:menu="Bumps"
       inkscape:menu-tooltip="Gives Smooth Bumps velvet like"
       color-interpolation-filters="sRGB">
      <feGaussianBlur
         id="feGaussianBlur8186"
         stdDeviation="1"
         result="result3" />
      <feBlend
         id="feBlend8188"
         in2="result3"
         result="result5"
         mode="screen"
         in="SourceGraphic" />
      <feGaussianBlur
         id="feGaussianBlur8190"
         stdDeviation="1"
         result="result7" />
      <feConvolveMatrix
         id="feConvolveMatrix8192"
         order="3 3"
         kernelMatrix="2 0 0 1 1 -1 0 0 -2 "
         targetX="1"
         targetY="1"
         result="result8" />
      <feBlend
         id="feBlend8194"
         in2="result8"
         mode="darken"
         in="result7"
         result="result6" />
    </filter>
    <filter
       id="filter8196"
       inkscape:label="Velvet Bumps"
       inkscape:menu="Bumps"
       inkscape:menu-tooltip="Gives Smooth Bumps velvet like"
       color-interpolation-filters="sRGB">
      <feGaussianBlur
         id="feGaussianBlur8198"
         stdDeviation="1"
         result="result3" />
      <feBlend
         id="feBlend8200"
         in2="result3"
         result="result5"
         mode="screen"
         in="SourceGraphic" />
      <feGaussianBlur
         id="feGaussianBlur8202"
         stdDeviation="1"
         result="result7" />
      <feConvolveMatrix
         id="feConvolveMatrix8204"
         order="3 3"
         kernelMatrix="2 0 0 1 1 -1 0 0 -2 "
         targetX="1"
         targetY="1"
         result="result8" />
      <feBlend
         id="feBlend8206"
         in2="result8"
         mode="darken"
         in="result7"
         result="result6" />
    </filter>
    <filter
       id="filter8208"
       inkscape:label="Velvet Bumps"
       inkscape:menu="Bumps"
       inkscape:menu-tooltip="Gives Smooth Bumps velvet like"
       color-interpolation-filters="sRGB">
      <feGaussianBlur
         id="feGaussianBlur8210"
         stdDeviation="1"
         result="result3" />
      <feBlend
         id="feBlend8212"
         in2="result3"
         result="result5"
         mode="screen"
         in="SourceGraphic" />
      <feGaussianBlur
         id="feGaussianBlur8214"
         stdDeviation="1"
         result="result7" />
      <feConvolveMatrix
         id="feConvolveMatrix8216"
         order="3 3"
         kernelMatrix="2 0 0 1 1 -1 0 0 -2 "
         targetX="1"
         targetY="1"
         result="result8" />
      <feBlend
         id="feBlend8218"
         in2="result8"
         mode="darken"
         in="result7"
         result="result6" />
    </filter>
    <filter
       id="filter8220"
       inkscape:label="Velvet Bumps"
       inkscape:menu="Bumps"
       inkscape:menu-tooltip="Gives Smooth Bumps velvet like"
       color-interpolation-filters="sRGB">
      <feGaussianBlur
         id="feGaussianBlur8222"
         stdDeviation="1"
         result="result3" />
      <feBlend
         id="feBlend8224"
         in2="result3"
         result="result5"
         mode="screen"
         in="SourceGraphic" />
      <feGaussianBlur
         id="feGaussianBlur8226"
         stdDeviation="1"
         result="result7" />
      <feConvolveMatrix
         id="feConvolveMatrix8228"
         order="3 3"
         kernelMatrix="2 0 0 1 1 -1 0 0 -2 "
         targetX="1"
         targetY="1"
         result="result8" />
      <feBlend
         id="feBlend8230"
         in2="result8"
         mode="darken"
         in="result7"
         result="result6" />
    </filter>
    <filter
       id="filter8232"
       inkscape:label="Velvet Bumps"
       inkscape:menu="Bumps"
       inkscape:menu-tooltip="Gives Smooth Bumps velvet like"
       color-interpolation-filters="sRGB">
      <feGaussianBlur
         id="feGaussianBlur8234"
         stdDeviation="1"
         result="result3" />
      <feBlend
         id="feBlend8236"
         in2="result3"
         result="result5"
         mode="screen"
         in="SourceGraphic" />
      <feGaussianBlur
         id="feGaussianBlur8238"
         stdDeviation="1"
         result="result7" />
      <feConvolveMatrix
         id="feConvolveMatrix8240"
         order="3 3"
         kernelMatrix="2 0 0 1 1 -1 0 0 -2 "
         targetX="1"
         targetY="1"
         result="result8" />
      <feBlend
         id="feBlend8242"
         in2="result8"
         mode="darken"
         in="result7"
         result="result6" />
    </filter>
    <filter
       id="filter8244"
       inkscape:label="Velvet Bumps"
       inkscape:menu="Bumps"
       inkscape:menu-tooltip="Gives Smooth Bumps velvet like"
       color-interpolation-filters="sRGB">
      <feGaussianBlur
         id="feGaussianBlur8246"
         stdDeviation="1"
         result="result3" />
      <feBlend
         id="feBlend8248"
         in2="result3"
         result="result5"
         mode="screen"
         in="SourceGraphic" />
      <feGaussianBlur
         id="feGaussianBlur8250"
         stdDeviation="1"
         result="result7" />
      <feConvolveMatrix
         id="feConvolveMatrix8252"
         order="3 3"
         kernelMatrix="2 0 0 1 1 -1 0 0 -2 "
         targetX="1"
         targetY="1"
         result="result8" />
      <feBlend
         id="feBlend8254"
         in2="result8"
         mode="darken"
         in="result7"
         result="result6" />
    </filter>
    <linearGradient
       inkscape:collect="always"
       xlink:href="#linearGradient3859"
       id="linearGradient3102"
       gradientUnits="userSpaceOnUse"
       x1="1405.6987"
       y1="317.1936"
       x2="1396.3246"
       y2="282.20883"
       gradientTransform="matrix(1.0250997,0,0,1.0250997,-18.957002,-8.1114332)" />
    <linearGradient
       inkscape:collect="always"
       xlink:href="#linearGradient3285"
       id="linearGradient3283"
       gradientUnits="userSpaceOnUse"
       gradientTransform="matrix(1.3852519,0,0,3.0042993,48.76601,-298.70006)"
       x1="156.8441"
       y1="176.32591"
       x2="156.8441"
       y2="201.6279" />
    <linearGradient
       id="linearGradient3285"
       inkscape:collect="always">
      <stop
         id="stop3287"
         offset="0"
         style="stop-color:#fe8b0c;stop-opacity:1" />
      <stop
         id="stop3289"
         offset="1"
         style="stop-color:#fe9f05;stop-opacity:1" />
    </linearGradient>
    <linearGradient
       y2="201.6279"
       x2="156.8441"
       y1="176.32591"
       x1="156.8441"
       gradientTransform="matrix(3.4595334,0,0,7.5029486,-402.22931,-1378.2854)"
       gradientUnits="userSpaceOnUse"
       id="linearGradient4140"
       xlink:href="#linearGradient3285"
       inkscape:collect="always" />
    <linearGradient
       inkscape:collect="always"
       xlink:href="#linearGradient4940"
       id="linearGradient4946"
       x1="1151.0961"
       y1="191.43208"
       x2="1151.0961"
       y2="637.80811"
       gradientUnits="userSpaceOnUse" />
    <radialGradient
       inkscape:collect="always"
       xlink:href="#linearGradient3829"
       id="radialGradient4948"
       cx="1235.9622"
       cy="225.66978"
       fx="1235.9622"
       fy="225.66978"
       r="164.57925"
       gradientTransform="matrix(0.70259432,-0.18825958,0.10088686,0.37651487,347.04522,374.31271)"
       gradientUnits="userSpaceOnUse" />
    <linearGradient
       inkscape:collect="always"
       xlink:href="#linearGradient4950"
       id="linearGradient4956"
       x1="1337.9281"
       y1="427.13049"
       x2="1316.9941"
       y2="406.19653"
       gradientUnits="userSpaceOnUse" />
  </defs>
  <path
     id="path3465"
     d="m 1323.8211,332.08841 c 0,0 -57.4999,23.17238 -89.281,55.19137 -18.4549,18.59326 -37.5843,37.07683 -54.0976,57.41481 -14.6313,18.02023 -42.4966,-165.88657 -48.4462,-162.03732 0,0 5.0033,195.01762 7.0631,187.97211 2.2812,-7.80337 4.6403,-23.45799 4.6403,-23.45799 0,0 -15.1627,-178.93651 -21.7521,-176.20781 -6.0196,2.49274 -16.8003,124.85479 -16.8003,124.85479 l 5.9657,-86.53723 c 0,0 -8.9272,135.73502 -13.1715,136.54526 -4.968,0.94845 57.6669,1.63186 57.6669,1.63186 0,0 -13.6594,-12.71329 -9.6984,-19.88489 5.3359,-9.66207 -6.0859,-29.46751 -6.0859,-29.46751 0,0 -56.3834,-88.80536 -62.1865,-87.86543 -6.0897,0.98635 -51.0274,17.03153 -51.0274,17.03153 0,0 51.7619,68.48375 54.5894,64.84855 2.4488,-3.14839 -36.4325,6.30472 -36.4325,6.30472 0,0 27.1561,-0.0147 18.9604,1.00418 -7.2984,0.90737 90.7901,-10.80902 90.7901,-10.80902 0,0 13.9625,-15.08844 18.7786,-22.27849 3.8044,-5.67926 41.353,-15.9731 41.353,-15.9731 0,0 -48.0863,-4.34417 -53.5481,-7.63535 -7.6029,-4.58128 -134.6227,-15.63483 -134.6227,-15.63483 0,0 -4.3097,34.82777 -4.4686,54.42562 -0.092,11.38989 5.0327,47.23045 8.5168,59.546 9.279,32.80114 22.5522,52.34261 41.456,71.60629 20.3944,20.78287 31.9278,28.44036 51.5062,36.43102 19.1601,7.82048 42.1285,10.02373 63.5664,9.79872 15.7404,-0.16518 28.998,-2.26588 46.2607,-6.66499 8.7,-2.21709 36.3541,-12.67434 53.9889,-22.48044 12.5913,-7.00133 25.5557,-16.37494 37.328,-25.44195 7.0172,-5.40443 13.9936,-12.51749 20.5491,-19.2278 9.7078,-9.93834 19.4667,-19.94331 27.7556,-31.0923 14.09,-18.95204 25.9986,-39.52066 37.0195,-60.40707 15.0299,-28.48154 19.2951,-57.28049 19.2951,-57.28049 l -13.813,-3.51731 -25.244,24.01004 -142.9532,-100.28774 c -9.4876,23.05347 -53.3192,83.76462 -60.4354,93.95513 -11.9076,15.00541 -22.9025,-4.03005 -37.6978,8.00975 -7.6193,6.19959 134.9308,134.34847 134.9308,134.34847 0,0 8.6871,-22.56859 17.1765,-37.99839 7.1898,-13.06798 13.2064,-24.99091 22.0192,-36.37157 11.2084,-14.47543 23.8253,-25.89914 38.2946,-39.23056 7.8925,-7.27175 30.0457,-18.05509 30.0457,-18.05509 l 37.7288,-24.87404 41.1629,-16.33086 c 0,0 2.8994,8.35333 4.5828,13.80194 1.4991,4.85241 4.9646,17.10174 4.9646,17.10174 0,0 14.8209,-12.84553 20.7665,-20.56248 5.6976,-7.3963 11.1316,-15.38059 13.9772,-24.27231 4.4943,-14.04694 7.9367,-29.75147 4.2777,-44.03931 -3.4825,-13.59897 -12.5257,-27.34556 -24.7223,-34.29573 -11.6083,-6.61549 -20.4836,-8.45011 -26.0437,-9.59412 -12.0285,-2.47479 -34.5633,-2.39248 -34.5633,-2.39248 0,0 -6.091,-19.3508 -10.1647,-28.5726 -6.7778,-15.34164 -16.1791,-30.32655 -26.2969,-43.70308 -5.7367,-7.58389 -19.9833,-22.80642 -19.3805,-19.97919 4.1873,19.62553 15.3468,86.50304 15.3468,86.50304 0,0 -17.4011,-7.60624 -25.8377,-10.35658 -14.6118,-4.76354 -29.6612,-5.25631 -45.0029,-6.15839 -10.8476,-0.63779 -21.7834,-0.66102 -32.5684,0.66729 -9.9765,1.22868 -20.6773,4.13197 -30.302,7.03115 -7.9882,2.40622 -14.8578,5.68039 -22.4507,9.13815 -10.7789,4.9091 -22.748,9.99616 -33.1784,15.60817 -9.4051,5.06041 -17.5302,10.94602 -26.3502,16.32984 -10.4498,6.37889 -20.8464,12.85475 -31.4777,18.92539 -8.1402,4.64801 -16.6763,9.54419 -24.9796,13.89318 -8.9215,4.67261 -18.4621,9.96622 -27.4583,14.14842 -9.5396,4.4351 -28.1534,11.66154 -28.1534,11.66154 0,0 30.4939,68.42721 33.9344,60.00909 4.3233,-10.57801 9.548,3.87361 15.5159,-5.89764 10.0163,-16.39955 20.0119,90.94438 32.4997,76.33876 6.763,-7.90957 19.053,16.49032 27.1882,9.99939 15.9188,-12.69894 75.5749,-106.82355 94.0892,-115.3042 15.562,-7.12803 -35.8838,-24.88435 -19.0188,-27.81511 11.9814,-2.08208 -2.158,11.78151 9.9423,13.00261 14.0069,1.41361 76.2259,-68.98017 89.1739,-63.45467 9.8879,4.21961 19.1653,10.04546 27.6223,16.68247 7.1987,5.64881 12.7564,12.39038 18.3678,19.61836 9.0614,11.67281 -0.338,-70.53662 -0.338,-70.53662 0,0 -10.8036,-83.46362 -11.395,-86.02227 -0.5905,-2.55435 -27.5363,-20.35028 -40.882,-26.4199 -11.0527,-5.026369 -22.7409,-8.902169 -34.6669,-11.180761 -11.6328,-2.222313 -23.6162,-2.739989 -35.452,-2.327386 -11.8871,0.414438 -23.808,1.971472 -35.3578,4.811613 -15.4185,3.791229 -30.3388,9.630094 -44.7948,16.197604 -10.3319,4.69362 -20.2262,10.37196 -29.7791,16.49693 -11.4329,7.32936 -22.5543,15.24938 -32.8186,24.14315 -11.6523,10.09559 -23.0934,20.80542 -33.1189,32.51821 -9.4454,11.03622 -18.0449,23.27591 -25.9772,35.4459 -7.6859,11.79274 -14.1544,23.99348 -20.1738,36.71804 -5.9474,12.57183 -10.7523,25.69105 -14.9767,38.94149 -3.5341,11.08338 -8.591,34.48128 -8.591,34.48128 0,0 153.9349,-1.68865 160.391,-3.19185 12.1495,-2.82876 -118.6265,-3.36875 -107.0634,-8.04976 12.4119,-5.02432 26.1546,-15.13697 38.1134,-21.16148 8.9912,-4.52889 17.7485,-9.50801 26.587,-14.32782 6.8301,-3.72439 13.8029,-7.32742 20.4343,-11.27405 10.0074,-5.95603 19.7301,-12.39243 29.7802,-18.2765 8.9449,-5.23693 17.4574,-10.88964 26.6792,-15.6215 8.8287,-4.52971 17.767,-8.93518 27.0729,-12.37808 10.701,-3.95873 21.3692,-7.30588 32.8995,-9.45336 12.2326,-2.27839 25.85,-3.93598 38.2906,-3.67857 16.7645,0.34682 33.7248,2.9814 49.6035,8.37024 11.8133,4.00907 38.6743,-3.65904 38.6743,-3.65904 0,0 -161.3229,40.38077 -152.4783,39.594 8.3991,-0.74709 16.9018,-0.50612 25.2953,0.30043 7.8436,0.75368 17.1807,1.57548 23.2585,4.22546 13.967,6.09002 -40.5374,11.00463 -36.2422,22.64874 4.3706,11.84708 18.6139,103.26455 15.1753,115.23361 -2.3912,8.32361 166.1407,-100.28021 166.1407,-100.28021 0,0 35.7151,2.28799 31.4624,3.54579 -12.4017,3.66944 -46.0372,13.09565 -66.8324,24.37174 -32.9406,17.86031 -64.3783,38.14089 -89.4451,65.99182 -11.4206,12.68971 -23.2318,27.79661 -31.8478,42.65543 -8.4915,14.64457 -14.5523,30.17483 -21.6491,45.43037 -4.6581,10.01399 -8.0261,-62.73774 -11.2207,-51.60208 -2.668,9.2997 -5.4662,-20.02957 -5.4662,-20.02957 0,0 -7.9272,32.76805 -11.2464,23.93169 -3.1296,-8.33201 -7.3553,-25.9307 -7.3553,-25.9307 -4.6454,9.32595 -9.8321,0.32167 -12.4683,10.98681 0,0 -5.5719,-15.40333 -7.2273,-21.94142 -1.6945,-6.6939 -2.8227,23.25662 -2.8227,23.25662 0,0 -16.4108,-16.09529 -24.3645,-12.40575 -5.9484,2.75916 -17.3427,26.0954 -17.3427,26.0954 0,0 6.1812,49.99754 10.2767,42.28879 5.8707,-11.05057 11.8409,-21.05042 19.1191,-30.6392 14.4078,-18.98177 31.0134,-37.12194 49.379,-52.30674 13.2556,-10.96037 22.2529,-20.8782 34.5387,-30.35423 12.2725,-9.46608 39.2808,-27.5762 39.2808,-27.5762 z"
     inkscape:connector-curvature="0"
     style="fill:#ffffff;fill-opacity:1"
     sodipodi:nodetypes="csscccsccscccscccscccccscscsscccsccccccccccscccccccscscccccsssscssccccsscccsssccccccscccccccccscccssccssscssccsccccscccscccccccscccc" />
  <path
     id="path6455"
     d="m 1290.8108,500.4357 c 0,0 39.1742,-24.00476 67.5859,-61.05392 27.0729,-35.30341 32.5305,-83.79091 32.5305,-83.79091 0,0 -44.4003,23.02628 -70.8397,55.24312 -25.6295,31.22966 -36.3488,82.00031 -36.3488,82.00031 z"
     inkscape:connector-curvature="0"
     style="fill:url(#linearGradient4956);fill-opacity:1"
     sodipodi:nodetypes="cscscc" />
  <path
     id="path6473"
     d="m 1326.2814,332.0269 c -1.4606,-3.01481 8.5399,-8.38685 8.5399,-8.38685 0,0 24.4291,-13.24326 39.0019,-22.73466 5.5432,-3.6104 16.0244,-12.34425 16.0244,-12.34425 0,0 7.5145,-7.5023 4.0843,-19.61938 -1.3475,-4.75965 -2.0997,-9.61001 -1.2612,-14.30015 1.2817,-7.16872 10.0335,-18.95819 10.0335,-18.95819 0,0 18.9838,-3.10359 28.3481,-3.65387 9.8669,-0.57972 20.4507,-1.44539 30.222,0.0428 6.4712,0.98558 12.4088,3.07151 18.2693,5.9872 5.4139,2.69335 10.5462,6.29176 14.5728,10.80353 4.122,4.61971 7.7314,10.08975 9.2962,16.07971 1.6088,6.1589 1.5746,13.06182 0.4383,19.32518 -1.1544,6.36331 -3.6674,14.99003 -6.7,22.79514 -3.6878,9.4914 -9.567,16.16993 -9.567,16.16993 0,0 -1.4136,-9.50821 -2.5869,-13.88498 -1.0043,-3.74653 -3.6943,-9.48074 -3.6943,-9.48074 0,0 -18.6415,4.89691 -32.7058,10.12215 -10.6816,3.96857 -33.6243,13.74658 -33.6243,13.74658 0,0 -14.0705,-4.90438 -21.8592,-5.02504 -16.3934,-0.25396 -47.9891,11.05468 -47.9891,11.05468 l -8.7938,2.51252 c 0,0 -8.5889,2.76449 -10.05,-0.25125 z"
     inkscape:connector-curvature="0"
     style="fill:#fe8b0c;fill-opacity:1" />
  <path
     style="fill:#febb0c;fill-opacity:1"
     inkscape:connector-curvature="0"
     d="m 1326.2814,332.0269 c -1.4606,-3.01481 8.5399,-8.38685 8.5399,-8.38685 0,0 24.4291,-13.24326 39.0019,-22.73466 5.5432,-3.6104 16.0244,-12.34425 16.0244,-12.34425 0,0 7.5145,-7.5023 4.0843,-19.61938 -1.3475,-4.75965 -2.0997,-9.61001 -1.2612,-14.30015 1.2817,-7.16872 10.0335,-18.95819 10.0335,-18.95819 0,0 18.9838,-3.10359 28.3481,-3.65387 9.8669,-0.57972 20.4507,-1.44539 30.222,0.0428 6.4712,0.98558 12.4088,3.07151 18.2693,5.9872 5.4139,2.69335 10.5462,6.29176 14.5728,10.80353 4.122,4.61971 7.7314,10.08975 9.2962,16.07971 1.6088,6.1589 1.5746,13.06182 0.4383,19.32518 -1.1544,6.36331 -3.6674,14.99003 -6.7,22.79514 -3.6878,9.4914 -9.567,16.16993 -9.567,16.16993 0,0 -1.4136,-9.50821 -2.5869,-13.88498 -1.0043,-3.74653 -3.6943,-9.48074 -3.6943,-9.48074 0,0 -18.6415,4.89691 -32.7058,10.12215 -10.6816,3.96857 -33.6243,13.74658 -33.6243,13.74658 0,0 -14.0705,-4.90438 -21.8592,-5.02504 -16.3934,-0.25396 -47.9891,11.05468 -47.9891,11.05468 l -8.7938,2.51252 c 0,0 -8.5889,2.76449 -10.05,-0.25125 z"
     id="path3091" />
  <path
     id="path3835"
     d="m 1326.4864,332.09866 c -0.436,-2.43697 29.8304,-12.16486 44.8624,-17.30676 12.658,-4.33063 25.5004,-8.16902 38.4864,-11.3868 20.9674,-5.1948 70.5381,-13.46161 51.4661,-15.03002 -22.3779,-1.84036 -36.4884,-55.80438 -36.4884,-55.80438 0,0 31.1774,-3.61819 46.7364,2.06138 24.7479,9.03389 30.7499,21.03197 32.5653,36.20857 2.9908,25.01243 -16.3964,52.60504 -16.3964,52.60504 0,0 -0.6516,-7.91079 -1.8884,-11.98034 -1.1164,-3.67344 -4.488,-11.70356 -4.488,-11.70356 0,0 -19.1324,4.41326 -26.0805,6.96145 -14.9901,5.49812 -39.9912,16.85161 -39.9912,16.85161 0,0 -15.1213,-4.56353 -22.9551,-4.62002 -20.869,-0.15046 -59.2231,14.96646 -59.2231,14.96646 0,0 -6.2277,0.2824 -6.6041,-1.82181 z"
     style="fill:url(#linearGradient3102)"
     inkscape:connector-curvature="0" />
  <path
     id="path3065"
     d="m 1404.2914,274.71358 c 0,0 0.6898,-6.9756 2.637,-10.12378 1.6116,-2.6056 3.2332,-2.77679 6.0166,-4.67846 3.0137,-2.05901 3.8713,-13.89112 3.8713,-13.89112 0,0 -3.6147,6.38309 -5.6093,8.4459 -1.912,1.97731 -4.172,2.63276 -5.6849,4.92991 -3.2991,5.29382 -2.5434,9.26967 -1.2307,15.31806 z"
     inkscape:connector-curvature="0"
     style="fill:#054e81" />
  <path
     d="m 1339.4026,195.01208 c -23.6869,-2.60109 -48.5774,-2.38931 -71.5058,4.09906 -27.8684,7.8863 -53.0817,21.38768 -72.8723,33.02051 -20.1678,11.85528 -38.88,24.55729 -59.2087,35.981 -12.3115,6.91851 -24.8607,13.43599 -37.575,19.58453 -10.7626,5.20485 -33.1128,13.66356 -33.1128,13.66356 0,0 11.0803,-36.94972 21.727,-54.19907 11.3406,-18.37492 23.6734,-40.32785 38.2565,-56.25175 12.1782,-13.29759 26.7645,-21.28372 41.6756,-31.42298 11.3438,-7.71347 23.81,-13.76607 36.4362,-19.12939 11.5549,-4.90787 23.4604,-9.28966 35.7534,-11.84195 12.4621,-2.58735 25.3159,-4.00486 38.0302,-3.41594 11.7199,0.54294 23.565,2.43266 34.6145,6.37633 15.2627,5.44738 30.222,12.97776 42.5847,23.45633 10.8435,9.19073 18.5502,19.2852 26.6444,30.97134 4.8478,6.99897 13.436,24.82176 13.436,24.82176 0,0 -35.9533,-13.63485 -54.8818,-15.71273 z"
     id="path3827"
     style="fill:url(#radialGradient4948);fill-opacity:1"
     inkscape:connector-curvature="0"
     sodipodi:nodetypes="cscscccsscsssssccc" />
  <path
     id="path3865"
     d="m 1171.1838,498.11356 c 0,0 7.3005,-21.22571 16.1689,-36.20857 8.4285,-14.24069 20.5594,-29.64896 31.654,-42.58469 8.1774,-9.53405 17.1643,-17.92182 26.4168,-26.4158 8.7638,-8.04631 18.0726,-16.4344 27.3272,-23.91147 8.3844,-6.77448 17.0371,-13.66971 25.733,-20.03968 7.8662,-5.76229 15.64,-10.19779 23.6481,-15.73425 0.6232,-0.43103 1.7227,-1.27554 2.4925,-1.40613 0.6519,-0.11062 0.9876,-0.23986 1.5655,0.0395 0.2393,0.11563 0.133,0.18735 1.0406,0.81227 0.2165,0.14904 0.4707,0.24518 0.9466,0.37207 1.2284,0.32752 0.7489,0.2151 1.1806,0.25513 0.6067,0.0563 0.8037,0.14715 1.3196,0.0905 2.9661,-0.32585 5.7368,-1.352 8.4244,-2.24189 7.1708,-2.37454 13.9255,-4.94537 22.235,-7.00889 7.5086,-1.86445 14.2407,-3.39124 22.0888,-4.7823 6.4185,-1.13755 9.4484,-1.03842 14.1187,-0.45545 3.7459,0.46756 7.3677,1.82939 11.0455,2.83112 2.154,0.58669 6.6615,1.88137 6.6615,1.88137 0,0 -26.0109,14.10844 -38.2024,22.38715 -10.4765,7.11347 -20.052,15.46978 -30.06,23.22773 -8.8922,6.8937 -18.1699,13.3222 -26.6444,20.72342 -7.6009,6.63834 -14.8209,13.73429 -21.6337,21.17856 -5.4993,6.00811 -10.6672,12.33502 -15.4852,18.90079 -4.509,6.14475 -8.2301,11.73432 -11.8419,18.44564 -3.4479,6.40739 -6.7417,13.92598 -9.3368,20.72342 -3.2534,8.52186 -6.8118,17.02691 -8.6537,25.96065 -1.4461,7.01373 -1.9507,14.24581 -1.8218,21.40613 0.1473,8.18071 2.9605,24.36662 2.9605,24.36662 0,0 -8.7029,-17.33956 -12.0696,-26.41579 -3.1329,-8.44662 -7.515,-25.96065 -7.515,-25.96065 0,0 11.2484,-29.8017 19.357,-43.26844 6.7238,-11.16641 16.99,-20.15756 24.5942,-30.74274 5.3501,-7.44735 16.3964,-22.08987 16.3964,-22.08987 0,0 -20.7838,18.09096 -30.06,28.23842 -7.807,8.54041 -15.6768,17.27396 -21.4061,27.32711 -6.7471,11.8399 -13.3427,23.99861 -16.7563,37.15166 -2.8285,10.89886 -4.0933,33.21016 -4.0933,33.21016 0,0 -6.0814,-14.22121 -7.8436,-21.62858 -1.4317,-6.01846 -2.8891,-18.18048 -2.8891,-18.18048 0,0 15.0035,-24.16844 22.9295,-35.56242 8.0978,-11.64104 16.6466,-23.01042 25.9607,-33.70323 8.1792,-9.39053 17.8183,-20.14321 26.8719,-28.69357 7.1179,-6.72188 9.5645,-8.65358 9.5645,-8.65358 0,0 -6.8475,5.0683 -16.624,12.52467 -9.761,7.44488 -19.5743,16.37596 -28.6936,24.59419 -7.9374,7.15273 -15.0095,15.19813 -22.545,22.77259 -6.2491,6.2815 -11.0608,13.08232 -17.0792,19.58453 -4.6724,5.04738 -10.4232,9.27069 -14.8024,14.57487 -5.732,6.94228 -13.3304,12.85885 -18.4457,20.26724 -2.8116,4.07231 -8.1757,11.83068 -8.1757,11.83068 z"
     inkscape:connector-curvature="0"
     style="fill:#b8e2fa"
     sodipodi:nodetypes="cccccscsscccccccsscccscsccscccccscscscscscccccsccccc" />
  <path
     id="path3867"
     d="m 1171.0813,498.11356 c 0,0 14.5443,-9.22143 21.964,-12.53332 6.3566,-2.83768 19.7237,-6.82507 19.7237,-6.82507 0,0 13.3089,-21.93201 20.3872,-32.56229 6.2012,-9.31427 13.0669,-18.4641 20.0417,-27.21435 4.2597,-5.34395 8.5033,-10.07023 13.1616,-15.06964 4.3174,-4.63427 8.3365,-9.57981 12.9057,-13.96631 3.7978,-3.64597 4.5409,-4.12172 8.3983,-7.70465 6.0738,-5.52396 16.8793,-15.06794 16.8793,-15.06794 0,0 -11.0116,5.82718 -20.0376,12.63538 -10.7154,8.0826 -25.3579,20.24879 -35.2993,29.26557 -7.3555,6.67114 -14.21,13.87677 -21.1786,20.95099 -5.5385,5.62216 -11.0465,11.27712 -16.3965,17.07918 -6.5977,7.15581 -13.15,14.36473 -19.3569,21.86128 -3.2439,3.91783 -6.3484,7.95354 -9.3367,12.06952 -3.8841,5.34979 -11.8563,17.08124 -11.8563,17.08124 z"
     inkscape:connector-curvature="0"
     style="fill:#77beec"
     sodipodi:nodetypes="ccccscsccscccsscc" />
  <path
     id="path3869"
     d="m 1222.9513,518.35928 c 0,0 7.8091,-19.66756 12.0255,-29.20817 3.5951,-8.13529 6.8277,-16.26115 11.1079,-24.05806 6.7026,-12.21099 13.886,-24.17698 21.6337,-35.75343 3.2008,-4.78168 6.988,-9.16347 10.4222,-13.78041 4.304,-5.78618 6.2556,-8.49808 9.3844,-12.73687 2.4164,-3.27355 7.6203,-10.20456 7.6203,-10.20456 0,0 -16.0172,11.14694 -22.872,18.04791 -5.3803,5.4158 -10.7369,11.78557 -15.4852,17.76292 -4.1003,5.16138 -7.3939,10.83326 -10.9306,16.39647 -3.9405,6.19735 -7.6783,13.00032 -10.9307,19.58453 -2.7724,5.61222 -5.6083,11.73227 -7.2872,17.76293 -3.2508,11.67589 -4.6872,36.18705 -4.6872,36.18705 z"
     inkscape:connector-curvature="0"
     style="fill:#77beec" />
  <path
     id="path3871"
     d="m 1254.4219,540.88072 c 0,0 -1.6063,-8.26374 -2.4866,-17.90747 -0.7008,-7.67789 -0.836,-16.2427 -0.096,-22.1237 1.4956,-11.8891 5.9037,-23.34254 10.4755,-34.41875 4.3922,-10.64053 10.3822,-20.83822 16.6169,-30.51516 2.9603,-4.59491 6.0795,-8.94133 9.5938,-13.12743 6.7366,-8.0252 13.7015,-16.58099 20.8198,-24.27026 3.5387,-3.8225 7.7086,-6.70231 11.6,-10.16489 4.0946,-3.64321 8.5973,-6.70385 13.0526,-9.89611 3.9024,-2.79637 12.6005,-8.9972 12.6005,-8.9972 0,0 -12.1331,11.2351 -17.4554,16.84342 -5.0781,5.35122 -9.6598,11.15513 -14.3473,16.85161 -4.8053,5.84081 -9.8351,11.5293 -14.1187,17.76293 -4.7413,6.89882 -9.3427,14.20481 -13.2012,21.6337 -4.9169,9.46649 -9.1,19.30468 -13.2084,29.14871 -3.1923,7.65002 -6.2472,15.3683 -8.8814,23.22774 -3.0385,9.06588 -5.7135,18.26318 -7.9704,27.55468 -1.4795,6.09032 -2.995,18.39746 -2.995,18.39746 z"
     inkscape:connector-curvature="0"
     style="fill:#77beec" />
  <path
     id="path3873"
     d="m 1104.7573,460.9947 c 0,0 3.1667,-11.00855 5.4654,-17.30676 4.0692,-11.14898 9.421,-23.80691 15.9639,-33.72988 5.5596,-8.43257 11.9865,-16.97975 18.6404,-24.57882 6.8612,-7.83596 14.3852,-15.52616 21.8633,-22.77464 5.2101,-5.05005 11.1839,-8.92369 16.6436,-13.7025 2.9985,-2.62477 11.069,-7.76493 11.069,-7.76493 0,0 -11.599,13.30477 -16.6199,20.24059 -6.7338,9.30084 -13.6954,19.19192 -18.8752,29.43984 -3.1794,6.29022 -6.542,12.65486 -8.6047,19.39387 -1.294,4.22802 -2.9799,12.36577 -4.1481,18.5092 -1.1846,6.23024 -2.4587,18.47233 -2.4587,18.47233 0,0 -9.6089,-0.29151 -14.1163,0.36595 -3.9001,0.56887 -7.5139,2.23472 -11.0414,3.99266 -5.0413,2.51222 -13.7804,9.44322 -13.7804,9.44322 z"
     inkscape:connector-curvature="0"
     style="fill:#b8dff9"
     sodipodi:nodetypes="cscsscccscccsccc" />
  <path
     id="path3805"
     d="m 1317.363,248.29676 c 1.4719,3.27038 -4.219,6.58414 -5.8805,11.54142 -0.6335,1.89008 -0.9706,3.88821 0.03,5.61242 0.9975,1.7192 2.8065,2.56762 4.7153,3.12154 2.3391,0.67884 3.2845,0.62181 4.9815,1.32972 3.0595,1.27636 4.8372,3.10718 7.1609,3.70133 2.0055,0.5128 3.2688,0.48207 5.3255,0.24769 2.9175,-0.3325 4.9892,-1.66092 7.5712,-3.05947 2.5287,-1.36973 4.6458,-3.23542 6.4357,-5.48643 1.6858,-2.12011 2.0087,-5.19305 3.9072,-7.12516 0.8658,-0.88117 1.8725,-1.02907 2.4926,-2.09753 0.5768,-0.99397 0.2098,-2.3389 1.0367,-3.13694 1.5448,-1.49049 4.4479,-0.48822 6.5915,-0.60093 3.5928,-0.18889 5.637,-2.16614 8.3408,-4.27774 1.5804,-1.23422 5.0717,-4.26319 5.0717,-4.26319 0,0 -15.7363,-2.99944 -23.3036,-3.78128 -10.374,-1.07195 -20.8341,-1.72617 -31.2583,-1.37907 -8.3206,0.27704 -16.6681,1.08127 -24.8228,2.75813 -6.196,1.2741 -12.0408,3.25941 -17.9495,5.51627 -6.6285,2.53138 -19.5148,8.96388 -19.5148,8.96388 0,0 13.1397,-5.25487 19.9966,-6.89533 4.8894,-1.16974 9.8961,-2.14441 14.8875,-2.74358 4.5112,-0.54151 9.0267,-0.73897 13.5611,-0.44443 4.0055,0.26021 9.9554,1.01143 10.6251,2.49847 z"
     inkscape:connector-curvature="0"
     style="fill:#054e81"
     sodipodi:nodetypes="ccccssscccccssccssccssscc" />
  <path
     id="path3807"
     d="m 1321.6684,248.53253 15.5536,3.78139 4.1166,0.51009 7.3031,-0.26577 c 0,0 -1.5596,9.98376 -4.4488,13.44214 -2.5049,2.99872 -6.4355,5.52631 -10.3432,5.51626 -4.3535,-0.0113 -8.5808,-2.96889 -11.4924,-6.20575 -2.1598,-2.40129 -3.179,-5.04492 -3.2179,-8.2744 -0.034,-2.78858 2.5283,-8.50422 2.5283,-8.50422 z"
     inkscape:connector-curvature="0"
     style="fill:#ffffff"
     sodipodi:nodetypes="cccccccccc" />
  <path
     id="path3261"
     d="m 1041.4061,389.04295 c 0,0 21.1725,-17.15402 32.4465,-25.07291 15.8111,-11.10491 32.4167,-21.0084 49.4149,-30.19432 13.7712,-7.44191 25.5312,-15.36316 39.3926,-24.48553 8.9611,-5.8976 15.5887,-11.67588 22.8361,-18.0151 8.3751,-7.32526 23.6614,-23.47068 23.6614,-23.47068 0,0 -23.4646,13.70763 -35.5228,19.91871 -10.6662,5.49341 -21.5825,10.32993 -32.4782,15.35087 -9.4854,4.37102 -18.6784,7.72905 -28.4189,13.19406 -9.7401,5.46532 -20.3964,12.06235 -29.9411,19.15706 -6.0752,4.51587 -17.3447,14.95005 -17.3447,14.95005 0,0 -10.6969,11.64104 -14.6261,17.9085 -4.2203,6.73203 -9.42,20.75929 -9.42,20.75929 z"
     inkscape:connector-curvature="0"
     style="fill:#b8dff9" />
  <path
     id="path4031"
     d="m 1071.9541,403.85564 c 0,0 13.7825,-3.59923 20.502,-4.48481 5.5109,-0.72624 16.5938,-0.6406 16.5938,-0.6406 l 15.4406,-26.40153 21.117,-22.16266 17.2217,-15.12022 20.707,-15.12022 12.3012,-8.2008 c 0,0 -15.5887,5.75768 -23.0647,9.35404 -8.6511,4.16139 -17.1868,9.39248 -25.115,14.09512 -5.9735,3.54305 -11.6359,7.56954 -17.4267,11.40424 -6.4417,4.26585 -12.2253,8.67839 -18.1955,13.58257 -6.2094,5.10079 -11.8553,10.86708 -17.4267,16.65787 -2.0559,2.13692 -5.8943,6.66315 -5.8943,6.66315 0,0 -7.6943,8.29018 -11.148,12.6856 -1.8632,2.37126 -5.5099,7.68825 -5.5099,7.68825 z"
     inkscape:connector-curvature="0"
     style="fill:#b8dff9"
     sodipodi:nodetypes="ccccccccccssscscc" />
  <path
     style="fill:url(#linearGradient4946);fill-opacity:1"
     d="M 1280.9375 87.40625 C 1277.9679 87.381017 1274.9902 87.428099 1272.0312 87.53125 C 1260.1442 87.945688 1248.2373 89.503609 1236.6875 92.34375 C 1221.269 96.134979 1206.331 101.99499 1191.875 108.5625 C 1181.5431 113.25612 1171.6466 118.93753 1162.0938 125.0625 C 1150.6608 132.39186 1139.5456 140.29373 1129.2812 149.1875 C 1117.629 159.28309 1106.1817 170.00596 1096.1562 181.71875 C 1086.7108 192.75497 1078.1198 204.98626 1070.1875 217.15625 C 1062.5016 228.94899 1056.0194 241.15044 1050 253.875 C 1044.0526 266.44683 1039.2556 279.56206 1035.0312 292.8125 C 1031.5466 303.74072 1026.6071 326.45472 1026.4688 327.09375 C 1026.4688 327.09375 1026.4686 327.12486 1026.4688 327.125 C 1026.4572 327.21821 1022.1587 361.95969 1022 381.53125 C 1021.908 392.92114 1027.0472 428.74695 1030.5312 441.0625 C 1039.8102 473.86364 1053.065 493.42382 1071.9688 512.6875 C 1092.3631 533.47037 1103.9216 541.10309 1123.5 549.09375 C 1142.6601 556.91423 1165.6246 559.13126 1187.0625 558.90625 C 1202.8029 558.74107 1216.0498 556.64911 1233.3125 552.25 C 1242.0125 550.03291 1269.6777 539.5561 1287.3125 529.75 C 1299.9038 522.74867 1312.8527 513.37951 1324.625 504.3125 C 1331.6422 498.90807 1338.632 491.80406 1345.1875 485.09375 C 1354.8953 475.15541 1364.6486 465.14899 1372.9375 454 C 1387.0275 435.04796 1398.9478 414.48016 1409.9688 393.59375 C 1420.446 373.7395 1427.8225 342.64538 1429.3438 335.96875 L 1470.4688 319.96875 C 1470.4688 319.96875 1473.3791 328.33264 1475.0625 333.78125 C 1476.5616 338.63366 1480 350.875 1480 350.875 C 1480 350.875 1494.8356 338.02945 1500.7812 330.3125 C 1506.4788 322.9162 1511.9044 314.92297 1514.75 306.03125 C 1519.2443 291.98431 1522.6902 276.28784 1519.0312 262 C 1515.5487 248.40103 1506.5091 234.63767 1494.3125 227.6875 C 1482.7042 221.07201 1473.8413 219.23776 1468.2812 218.09375 C 1456.2528 215.61896 1433.7188 215.71875 1433.7188 215.71875 C 1433.7188 215.71875 1427.605 196.37805 1423.5312 187.15625 C 1416.7534 171.81461 1407.3678 156.81403 1397.25 143.4375 C 1393.7246 138.77698 1387.0005 131.24955 1382.4688 126.78125 C 1382.1745 126.40546 1381.62 125.90589 1380.9375 125.3125 C 1379.9131 124.36041 1379.1037 123.70753 1378.5625 123.375 C 1370.4246 117.139 1352.3911 105.71731 1342.1562 101.0625 C 1331.1036 96.036131 1319.426 92.153592 1307.5 89.875 C 1298.7754 88.208265 1289.8463 87.48195 1280.9375 87.40625 z M 1269.6562 125.375 C 1274.2333 125.28826 1278.8061 125.44834 1283.3438 125.90625 C 1297.3507 127.31986 1311.0832 131.19325 1324.0312 136.71875 C 1333.9191 140.93836 1343.1992 146.76924 1351.6562 153.40625 C 1358.8549 159.05506 1364.4198 165.80327 1370.0312 173.03125 C 1377.189 182.25179 1387.9412 201.60336 1392.2812 209.5625 C 1389.8184 208.49179 1375.1179 202.11793 1367.375 199.59375 C 1352.7632 194.83021 1337.7167 194.33958 1322.375 193.4375 C 1311.5274 192.79971 1300.5975 192.79669 1289.8125 194.125 C 1279.836 195.35368 1269.1247 198.25707 1259.5 201.15625 C 1251.5118 203.56247 1244.6554 206.82349 1237.0625 210.28125 C 1226.2836 215.19035 1214.3054 220.29424 1203.875 225.90625 C 1194.4699 230.96666 1186.3513 236.83493 1177.5312 242.21875 C 1167.0814 248.59764 1156.6626 255.08561 1146.0312 261.15625 C 1137.891 265.80426 1129.3658 270.68226 1121.0625 275.03125 C 1112.141 279.70386 1102.59 285.0053 1093.5938 289.1875 C 1084.0541 293.6226 1065.4375 300.84375 1065.4375 300.84375 C 1065.4375 300.84375 1071.1845 283.01187 1074.625 274.59375 C 1078.9483 264.01574 1084.1883 253.70875 1090.1562 243.9375 C 1100.1726 227.53795 1110.1684 213.26187 1122.6562 198.65625 C 1129.4192 190.74668 1137.9898 181.74093 1146.125 175.25 C 1162.0438 162.55106 1179.6732 151.6994 1198.1875 143.21875 C 1213.7495 136.09072 1230.0412 130.58701 1246.9062 127.65625 C 1254.3946 126.35495 1262.0278 125.51957 1269.6562 125.375 z M 559.9375 192.09375 L 459.9375 193.09375 C 459.9375 193.09375 349.63146 201.98856 334.5625 330.53125 C 328.48437 382.35004 356.45498 426.79206 390.34375 429.78125 C 445.55473 434.6516 507.98297 433.285 508.15625 433.28125 L 517.21875 391.0625 L 425 392.84375 C 425 392.84375 390.62621 391.83937 393.34375 333.03125 C 393.40445 331.71882 529.78125 333.03125 529.78125 333.03125 L 538.8125 291.59375 L 401.15625 291.84375 C 401.15625 291.84375 423.519 233.52895 457.4375 234.03125 C 491.356 234.53375 550.125 234.8125 550.125 234.8125 L 559.9375 192.09375 z M 582.53125 192.09375 L 573 234.78125 L 647.375 234.78125 L 605.40625 431.78125 L 662.4375 431.78125 L 703.875 235.0625 L 777.75 235.3125 L 786.8125 192.09375 L 582.53125 192.09375 z M 1750.375 192.28125 L 1543.2812 192.8125 L 1534.5938 234.3125 L 1608.375 234.3125 L 1566.375 432.6875 L 1624.2812 432.6875 L 1666.3125 235.34375 L 1740.625 235.34375 L 1750.375 192.28125 z M 814.1875 192.59375 L 764.1875 433.53125 L 819.46875 433.28125 L 835.3125 360.65625 L 888.8125 360.90625 L 910.9375 433.03125 L 966.4375 433.03125 L 941.3125 350.625 C 941.3125 350.625 994.22313 328.54061 1002.875 268.46875 C 1009.0765 225.41046 976.0057 193.3449 939.8125 193.09375 C 925.70098 192.99575 898 192.65625 898 192.65625 L 863.53125 192.65625 L 863.53125 192.59375 L 814.1875 192.59375 z M 1917.9688 192.8125 L 1838.5312 366.0625 L 1822.125 193.0625 L 1765.2188 193.3125 L 1796.75 431.15625 L 1856.4688 431.15625 L 1980.5 192.8125 L 1917.9688 192.8125 z M 126.65625 193.28125 C 93.896625 193.28509 71.46875 193.34375 71.46875 193.34375 L 20.125 432.53125 L 76.96875 432.53125 L 118.90625 232.8125 L 169.71875 233.53125 L 128.03125 432.53125 L 181.78125 432.53125 L 224.75 234.28125 C 224.75 234.28125 271.02486 235.19355 260.1875 302.875 C 251.11691 359.52303 233.3125 432.53125 233.3125 432.53125 L 287.3125 432.53125 L 316.21875 300.125 C 316.21875 300.125 323.93605 269.90228 311.1875 242.84375 C 296.63108 211.96774 274.21745 193.78852 243.84375 193.59375 C 202.52198 193.33235 159.41587 193.27741 126.65625 193.28125 z M 1314.9062 209.875 C 1316.4931 209.84986 1318.0699 209.84282 1319.625 209.875 C 1336.3895 210.22182 1353.3401 212.86116 1369.2188 218.25 C 1381.0321 222.25907 1402.4062 236.34375 1402.4062 236.34375 C 1402.4062 236.34375 1419.1241 233.06802 1427.9688 232.28125 C 1436.3679 231.53416 1444.8565 231.75595 1453.25 232.5625 C 1461.0936 233.31618 1470.4535 234.13127 1476.5312 236.78125 C 1490.4983 242.87127 1498.236 252.29339 1502.5312 263.9375 C 1506.9018 275.78458 1502.7198 288.46844 1499.2812 300.4375 C 1496.89 308.76111 1488.0625 319.0625 1488.0625 319.0625 C 1488.0625 319.0625 1484.784 298.6172 1480.5312 299.875 C 1468.1296 303.54444 1434.4827 312.97391 1413.6875 324.25 C 1380.7469 342.11031 1349.3168 362.36782 1324.25 390.21875 C 1312.8294 402.90846 1301.0222 418.01618 1292.4062 432.875 C 1283.9147 447.51957 1277.8468 463.05696 1270.75 478.3125 C 1266.0919 488.32649 1262.7259 499.02059 1259.5312 510.15625 C 1256.8633 519.45595 1254.0625 537.5 1254.0625 537.5 C 1254.0625 537.5 1246.1317 521.46136 1242.8125 512.625 C 1239.6829 504.29299 1235.4688 487.40625 1235.4688 487.40625 C 1230.8233 496.7322 1225.6362 507.52236 1223 518.1875 C 1223 518.1875 1217.4054 505.63184 1215.75 499.09375 C 1214.0555 492.39985 1212.9062 478.46875 1212.9062 478.46875 C 1212.9062 478.46875 1196.5162 483.62296 1188.5625 487.3125 C 1182.6141 490.07166 1171.2188 497.84375 1171.2188 497.84375 C 1171.2188 497.84375 1177.4045 480.6775 1181.5 472.96875 C 1187.3707 461.91818 1193.3468 451.90128 1200.625 442.3125 C 1215.0328 423.33073 1231.6344 405.21605 1250 390.03125 C 1263.2556 379.07088 1272.2454 369.13228 1284.5312 359.65625 C 1296.8038 350.19017 1323.8125 332.09375 1323.8125 332.09375 C 1323.8125 332.09375 1266.3123 355.26226 1234.5312 387.28125 C 1216.0764 405.87451 1196.9508 424.34952 1180.4375 444.6875 C 1165.8062 462.70773 1137.9496 484.58825 1132 488.4375 C 1132 488.4375 1137.0027 477.67051 1139.0625 470.625 C 1141.3437 462.82163 1143.6875 447.15625 1143.6875 447.15625 C 1143.6875 447.15625 1128.5269 446.42755 1121.9375 449.15625 C 1115.9179 451.64899 1105.1562 460.15625 1105.1562 460.15625 L 1111.125 440.8125 C 1111.125 440.8125 1102.1818 445.00226 1097.9375 445.8125 C 1092.9695 446.76095 1083.4688 447.46875 1083.4688 447.46875 C 1083.4688 447.46875 1093.8515 434.7341 1097.8125 427.5625 C 1103.1484 417.90043 1109.4062 398.09375 1109.4062 398.09375 C 1109.4062 398.09375 1098.3031 398.21632 1092.5 399.15625 C 1086.4103 400.1426 1072.5 403.625 1072.5 403.625 C 1072.5 403.625 1078.36 395.7602 1081.1875 392.125 C 1083.6363 388.97661 1088.5938 383.5625 1088.5938 383.5625 C 1088.5938 383.5625 1071.9144 383.57487 1063.7188 384.59375 C 1056.4204 385.50112 1042.0938 388.625 1042.0938 388.625 C 1042.0938 388.625 1048.2776 373.5338 1053.0938 366.34375 C 1056.8981 360.66449 1065.4375 350.375 1065.4375 350.375 C 1065.4375 350.375 1048.4618 346.00993 1043 342.71875 C 1035.5926 338.25528 1027.066 327.82383 1026.625 327.28125 C 1027.1722 327.21105 1039.8077 325.56463 1046.125 324.09375 C 1058.2745 321.26499 1069.9682 316.64976 1081.5312 311.96875 C 1093.9432 306.94443 1105.9162 300.93076 1117.875 294.90625 C 1126.8662 290.37736 1135.6302 285.38231 1144.4688 280.5625 C 1151.2988 276.83811 1158.2749 273.22788 1164.9062 269.28125 C 1174.9136 263.32522 1184.6374 256.91532 1194.6875 251.03125 C 1203.6324 245.79432 1212.1532 240.13811 1221.375 235.40625 C 1230.2037 230.87654 1239.1316 226.47415 1248.4375 223.03125 C 1259.1385 219.07252 1269.8135 215.70998 1281.3438 213.5625 C 1292.0473 211.56891 1303.7983 210.05098 1314.9062 209.875 z M 861.21875 234.84375 C 861.32673 234.84726 890.82236 235.8125 908.96875 235.8125 C 918.74052 235.8125 943.45755 247.15397 937.28125 283.03125 C 932.14927 312.84222 912.05205 320.9375 897.75 320.9375 C 879.463 320.9375 842.90625 319.71875 842.90625 319.71875 L 861.21875 234.84375 z M 1388.0312 362.625 C 1386.578 366.32543 1384.4365 371.49322 1381.5625 377.25 C 1371.1988 398.00918 1360.5157 418.85264 1346.625 437.4375 C 1335.681 452.07984 1320.053 465.70376 1305.9062 477.28125 C 1298.3382 483.47484 1284.0312 492.84375 1284.0312 492.84375 C 1284.0312 492.84375 1293.495 467.1443 1299.9688 454.84375 C 1306.5693 442.30213 1314.5735 429.67488 1323.25 418.46875 C 1334.4376 404.01943 1347.1995 390.55648 1361.5312 379.21875 C 1373.5217 369.73327 1383.1394 364.80825 1388.0312 362.625 z "
     id="path5935" />
  <path
     sodipodi:type="arc"
     style="fill:#054e81;fill-opacity:1;stroke:none"
     id="path3047"
     sodipodi:cx="1320.5042"
     sodipodi:cy="253.63208"
     sodipodi:rx="3.2429245"
     sodipodi:ry="3.2429245"
     d="m 1323.7471,253.63208 a 3.2429245,3.2429245 0 1 1 0,-5e-5"
     sodipodi:start="0"
     sodipodi:end="6.2831699"
     sodipodi:open="true"
     transform="matrix(1.3675762,0,0,1.3815548,-467.05081,-95.127574)" />
  <path
     d="m 1404.2914,274.71358 c 0,0 0.6898,-6.9756 2.637,-10.12378 1.6116,-2.6056 3.2332,-2.77679 6.0166,-4.67846 3.0137,-2.05901 3.8713,-13.89112 3.8713,-13.89112 0,0 -3.6147,6.38309 -5.6093,8.4459 -1.912,1.97731 -4.172,2.63276 -5.6849,4.92991 -3.2991,5.29382 -2.5434,9.26967 -1.2307,15.31806 z"
     id="path7724"
     inkscape:connector-curvature="0"
     style="fill:#054e81" />
  <path
     sodipodi:nodetypes="ccccssscccccssccssccssscc"
     style="fill:#054e81"
     inkscape:connector-curvature="0"
     d="m 1317.363,248.29676 c 1.4719,3.27038 -4.219,6.58414 -5.8805,11.54142 -0.6335,1.89008 -0.9706,3.88821 0.03,5.61242 0.9975,1.7192 2.8065,2.56762 4.7153,3.12154 2.3391,0.67884 3.2845,0.62181 4.9815,1.32972 3.0595,1.27636 4.8372,3.10718 7.1609,3.70133 2.0055,0.5128 3.2688,0.48207 5.3255,0.24769 2.9175,-0.3325 4.9892,-1.66092 7.5712,-3.05947 2.5287,-1.36973 4.6458,-3.23542 6.4357,-5.48643 1.6858,-2.12011 2.0087,-5.19305 3.9072,-7.12516 0.8658,-0.88117 1.8725,-1.02907 2.4926,-2.09753 0.5768,-0.99397 0.2098,-2.3389 1.0367,-3.13694 1.5448,-1.49049 4.4479,-0.48822 6.5915,-0.60093 3.5928,-0.18889 5.637,-2.16614 8.3408,-4.27774 1.5804,-1.23422 5.0717,-4.26319 5.0717,-4.26319 0,0 -15.7363,-2.99944 -23.3036,-3.78128 -10.374,-1.07195 -20.8341,-1.72617 -31.2583,-1.37907 -8.3206,0.27704 -16.6681,1.08127 -24.8228,2.75813 -6.196,1.2741 -12.0408,3.25941 -17.9495,5.51627 -6.6285,2.53138 -19.5148,8.96388 -19.5148,8.96388 0,0 13.1397,-5.25487 19.9966,-6.89533 4.8894,-1.16974 9.8961,-2.14441 14.8875,-2.74358 4.5112,-0.54151 9.0267,-0.73897 13.5611,-0.44443 4.0055,0.26021 9.9554,1.01143 10.6251,2.49847 z"
     id="path7730" />
  <path
     sodipodi:nodetypes="cccccccccc"
     style="fill:#ffffff"
     inkscape:connector-curvature="0"
     d="m 1321.6684,248.53253 15.5536,3.78139 4.1166,0.51009 7.3031,-0.26577 c 0,0 -1.5596,9.98376 -4.4488,13.44214 -2.5049,2.99872 -6.4355,5.52631 -10.3432,5.51626 -4.3535,-0.0113 -8.5808,-2.96889 -11.4924,-6.20575 -2.1598,-2.40129 -3.179,-5.04492 -3.2179,-8.2744 -0.034,-2.78858 2.5283,-8.50422 2.5283,-8.50422 z"
     id="path7732" />
  <path
     transform="matrix(1.3675762,0,0,1.3815548,-467.05081,-95.127574)"
     sodipodi:open="true"
     sodipodi:end="6.2831699"
     sodipodi:start="0"
     d="m 1323.7471,253.63208 a 3.2429245,3.2429245 0 1 1 0,-5e-5"
     sodipodi:ry="3.2429245"
     sodipodi:rx="3.2429245"
     sodipodi:cy="253.63208"
     sodipodi:cx="1320.5042"
     id="path7734"
     style="fill:#054e81;fill-opacity:1;stroke:none"
     sodipodi:type="arc" />
</svg>
