<svg width="29" height="32" viewBox="0 0 29 32" fill="none" xmlns="http://www.w3.org/2000/svg">
<g clip-path="url(#clip0_1130_4033)">
<path d="M10.5189 26.4197C13.1631 26.4197 15.3067 24.526 15.3067 21.6304V0.149658H21.0485C20.7264 4.06716 24.6196 7.85136 28.913 7.76481V13.1658C25.2412 13.1658 22.1189 11.6127 21.0322 10.7508V21.6304C21.0322 26.4197 17.2658 31.8506 10.5189 31.8506C3.77213 31.8506 0.0878906 26.4197 0.0878906 21.6304C0.0878906 14.8708 7.23897 10.9505 11.9753 11.9087V17.4099C11.737 17.3256 11.1226 17.2009 10.5992 17.2009C7.93305 17.1026 5.73121 19.2657 5.73121 21.6304C5.73121 24.2755 7.87475 26.4197 10.5189 26.4197Z" fill="white"/>
</g>
<defs>
<clipPath id="clip0_1130_4033">
<rect width="29" height="32" fill="white"/>
</clipPath>
</defs>
</svg>
