<svg width="44" height="30" viewBox="0 0 44 30" fill="none" xmlns="http://www.w3.org/2000/svg">
<path fill-rule="evenodd" clip-rule="evenodd" d="M39.1667 0.918608C41.0461 1.41193 42.5278 2.85665 43.0338 4.68899C43.9735 8.03652 43.9373 15.0135 43.9373 15.0135C43.9373 15.0135 43.9373 21.9552 43.0338 25.3027C42.5278 27.1351 41.0461 28.5798 39.1667 29.0731C35.7334 29.954 21.9999 29.954 21.9999 29.954C21.9999 29.954 8.30258 29.954 4.83307 29.0379C2.95376 28.5446 1.47199 27.0998 0.966018 25.2675C0.0625 21.9552 0.0625 14.9782 0.0625 14.9782C0.0625 14.9782 0.0625 8.03652 0.966018 4.68899C1.47199 2.85665 2.9899 1.37669 4.83307 0.883371C8.26644 0.00244141 21.9999 0.00244141 21.9999 0.00244141C21.9999 0.00244141 35.7334 0.00244141 39.1667 0.918608ZM29.0473 14.7336L17.6269 21.1467V8.32041L29.0473 14.7336Z" fill="white"/>
</svg>
